<?xml version="1.0" encoding="utf-8"?><!-- Generator: Adobe Illustrator 24.2.1, SVG Export Plug-In . SVG Version: 6.00 Build 0)  --><svg version="1.1" id="Layer_1" xmlns="http://www.w3.org/2000/svg" xmlns:xlink="http://www.w3.org/1999/xlink" x="0px" y="0px" viewBox="0 0 25 25" style="enable-background:new 0 0 25 25;" xml:space="preserve"><g><g><path d="M14.6,2.2C13.9,2.1,13.2,2,12.5,2s-1.4,0.1-2,0.2v11.4h4.1V2.2z M16.4,3.2v4.6c1.6,1.1,2.6,2.9,2.6,4.9c0,3.4-2.9,6.2-6.5,6.2c-3.6,0-6.5-2.8-6.5-6.2c0-2,1-3.8,2.6-4.9V3.2C4.7,4.7,2,8.4,2,12.7C2,18.4,6.7,23,12.5,23C18.3,23,23,18.4,23,12.7C23,8.4,20.3,4.7,16.4,3.2z"/></g></g></svg>