<svg xmlns="http://www.w3.org/2000/svg" data-name="Layer 1" viewBox="0 0 25 25" fill="currentColor"><path d="M10.5 5a1.07 1.07 0 0 1 .63.22 1.27 1.27 0 0 1 .42.57 1.55 1.55 0 0 1 .06.74 1.31 1.31 0 0 1-.31.66 1.1 1.1 0 0 1-.58.35 1 1 0 0 1-.65-.07A1.16 1.16 0 0 1 9.56 7a1.39 1.39 0 0 1-.19-.72 1.37 1.37 0 0 1 .33-.9 1.07 1.07 0 0 1 .8-.38ZM14.24 5h5.68a1.07 1.07 0 0 1 .8.38 1.32 1.32 0 0 1 .34.9 1.35 1.35 0 0 1-.34.91 1.07 1.07 0 0 1-.8.38h-5.68a1.07 1.07 0 0 1-.8-.38 1.39 1.39 0 0 1-.33-.91 1.37 1.37 0 0 1 .33-.9 1.07 1.07 0 0 1 .8-.38ZM8.6 15.85h14.27a1.07 1.07 0 0 0 .8-.38 1.37 1.37 0 0 0 .33-.9 1.39 1.39 0 0 0-.33-.91 1.07 1.07 0 0 0-.8-.38H8.6a1.07 1.07 0 0 0-.8.38 1.39 1.39 0 0 0-.33.91 1.37 1.37 0 0 0 .33.9 1.07 1.07 0 0 0 .8.38ZM19.84 11.7h3a1.07 1.07 0 0 0 .8-.38 1.37 1.37 0 0 0 .33-.9 1.39 1.39 0 0 0-.33-.91 1.07 1.07 0 0 0-.8-.38h-3a1.07 1.07 0 0 0-.8.38 1.35 1.35 0 0 0-.34.91 1.32 1.32 0 0 0 .34.9 1.07 1.07 0 0 0 .8.38ZM19.84 20a1.07 1.07 0 0 0 .63-.22 1.25 1.25 0 0 0 .41-.57 1.44 1.44 0 0 0 .07-.74 1.39 1.39 0 0 0-.31-.66 1.1 1.1 0 0 0-.58-.35 1 1 0 0 0-.66.07 1.19 1.19 0 0 0-.5.47 1.39 1.39 0 0 0-.2.72 1.32 1.32 0 0 0 .34.9 1.07 1.07 0 0 0 .8.38ZM2.13 11.7h14.06a1.07 1.07 0 0 0 .8-.38 1.37 1.37 0 0 0 .33-.9 1.39 1.39 0 0 0-.32-.91 1.07 1.07 0 0 0-.8-.38H2.13a1.07 1.07 0 0 0-.8.38 1.39 1.39 0 0 0-.33.91 1.37 1.37 0 0 0 .33.9 1.07 1.07 0 0 0 .8.38ZM13 20h3.16a1.07 1.07 0 0 0 .8-.38 1.37 1.37 0 0 0 .33-.9 1.39 1.39 0 0 0-.33-.91 1.07 1.07 0 0 0-.8-.38H13a1.07 1.07 0 0 0-.8.38 1.39 1.39 0 0 0-.33.91 1.37 1.37 0 0 0 .33.9 1.07 1.07 0 0 0 .8.38ZM5.22 13.29a1 1 0 0 1 .63.22 1.27 1.27 0 0 1 .42.57 1.34 1.34 0 0 1 .06.74 1.31 1.31 0 0 1-.31.66 1.06 1.06 0 0 1-.58.35 1 1 0 0 1-.65-.07 1.21 1.21 0 0 1-.51-.47 1.46 1.46 0 0 1-.19-.72 1.37 1.37 0 0 1 .33-.9 1.09 1.09 0 0 1 .8-.38Z"/><path d="M2.13 11.7h14.06a1.07 1.07 0 0 0 .8-.38 1.37 1.37 0 0 0 .33-.9 1.39 1.39 0 0 0-.32-.91 1.07 1.07 0 0 0-.8-.38H2.13a1.07 1.07 0 0 0-.8.38 1.39 1.39 0 0 0-.33.91 1.37 1.37 0 0 0 .33.9 1.07 1.07 0 0 0 .8.38ZM13 20h3.16a1.07 1.07 0 0 0 .8-.38 1.37 1.37 0 0 0 .33-.9 1.39 1.39 0 0 0-.33-.91 1.07 1.07 0 0 0-.8-.38H13a1.07 1.07 0 0 0-.8.38 1.39 1.39 0 0 0-.33.91 1.37 1.37 0 0 0 .33.9 1.07 1.07 0 0 0 .8.38ZM5.22 13.29a1 1 0 0 1 .63.22 1.27 1.27 0 0 1 .42.57 1.34 1.34 0 0 1 .06.74 1.31 1.31 0 0 1-.31.66 1.06 1.06 0 0 1-.58.35 1 1 0 0 1-.65-.07 1.21 1.21 0 0 1-.51-.47 1.46 1.46 0 0 1-.19-.72 1.37 1.37 0 0 1 .33-.9 1.09 1.09 0 0 1 .8-.38Z"/></svg>