<svg width="25" height="25" viewBox="0 0 25 25" fill="currentColor" xmlns="http://www.w3.org/2000/svg">
<path fill-rule="evenodd" clip-rule="evenodd" d="M13.2802 2.75958C12.7034 2.35139 12.503 2 12.503 2C12.503 2 12.3027 2.35112 11.7259 2.75969C11.1088 3.19674 10.061 3.69954 8.36654 3.90862C5.08812 4.30798 3.26618 4.21462 3.26618 4.21462C3.26618 4.21462 2.18573 10.0805 4.37841 15.0751C6.34335 19.5354 10.2997 21.9316 12.4977 23C14.6956 21.9316 18.6573 19.5354 20.6169 15.0751C22.8149 10.0805 21.7345 4.20943 21.7345 4.20943C21.7345 4.20943 19.9125 4.30279 16.6341 3.90343C14.943 3.6971 13.8966 3.1959 13.2802 2.75958ZM12.5062 12.3819V4.14105C12.4888 4.11459 12.4809 4.1 12.4809 4.1C12.4809 4.1 11.7959 5.36407 9.17826 5.70406C6.56066 6.03969 5.10597 5.96123 5.10597 5.96123C5.10597 5.96123 4.56948 9.02706 5.20124 12.3819H12.5062ZM12.5062 12.3819L19.5753 12.3818C19.4096 13.2011 19.1619 14.0392 18.8001 14.8472C17.2826 18.243 14.223 20.0757 12.5062 20.9L12.5062 12.3819Z" />
</svg>