<!-- Generated by IcoMoon.io -->
<svg version="1.1" xmlns="http://www.w3.org/2000/svg" width="32" height="32" viewBox="0 0 32 32">
<title>Cylance_logo</title>
<path d="M29.12 5.568c0-1.152-0.576-2.048-1.664-2.432-1.92-0.576-3.968-1.024-6.016-1.536 0 0.384 0 0.704 0 0.96 0 2.56-0.128 5.12 0.064 7.616 0.192 2.688-1.28 4.48-2.944 6.272-0.256-0.32-0.448-0.512-0.64-0.832 0.512-0.576 0.896-1.152 1.344-1.728 0.704-0.832 1.088-1.792 1.024-2.944-0.064-1.024 0-2.048 0-3.072 0-2.176 0-4.352 0-6.528-0.96-0.32-1.856-0.576-2.752-0.832-0.448 0-0.896 0-1.344 0-0.704 0.192-1.408 0.448-2.112 0.576-0.64 0.128-0.768 0.384-0.768 0.96 0 2.816 0 5.568 0 8.384 0 1.088 0.32 2.048 1.024 2.88 2.048 2.432 3.968 4.992 6.016 7.36 1.408 1.6 2.112 3.328 1.92 5.44-0.064 0.704 0 1.472 0 2.368 2.112-1.472 4.16-2.752 6.080-4.224 0.448-0.384 0.768-1.216 0.768-1.792 0.064-5.568 0-11.2 0-16.896zM19.264 22.4c-2.24-2.752-4.48-5.504-6.72-8.256-0.832-1.024-1.28-2.176-1.216-3.52 0-1.984 0-4.032 0-6.016 0-0.896 0-1.792 0-2.752-1.6 0.384-3.072 0.768-4.608 1.152s-2.304 1.344-2.304 2.88c0 5.44 0 10.944 0 16.384 0 1.088 0.448 1.92 1.344 2.56 1.664 1.152 3.392 2.24 5.056 3.392 0.128 0.064 0.256 0.128 0.512 0.256 0-1.28-0.064-2.368 0-3.52 0.064-0.832 0.256-1.792 0.704-2.496 0.768-1.216 1.792-2.304 2.752-3.52 0.256 0.32 0.448 0.576 0.704 0.832-0.256 0.32-0.448 0.64-0.704 0.832-1.6 1.472-2.368 3.264-2.432 5.312v0c0 0-0.128 1.92 0 2.496v0c0.064 0.832 0.576 1.408 1.408 1.92 2.88 1.792 3.136 1.856 5.952-0.128 0.256-0.192 0.448-0.576 0.448-0.832 0.064-1.344 0-2.688 0-4.032 0.128-1.152-0.192-2.112-0.896-2.944z"></path>
</svg>
