<svg width="25" height="25" viewBox="0 0 25 25" fill="currentColor" xmlns="http://www.w3.org/2000/svg">
<path d="M12.5 1C6.16854 1 1 6.16854 1 12.5C1 18.8638 6.16854 24 12.5 24C18.8638 24 24 18.8315 24 12.5C24.0323 6.16854 18.8638 1 12.5 1ZM16.764 17.9593C11.8216 21.8357 6.13624 22.8371 4.06882 20.1882C2.77669 18.5407 3.09972 15.8272 4.8441 13.0815H3.48736L3.81039 12.3385C3.81039 12.3385 6.16854 11.8539 8.55899 9.68961H9.52809L8.33287 12.3062H10.2711L9.91573 13.0815H8.00983C6.36236 16.2795 6.58848 17.3132 6.87921 18.0885C7.62219 20.2205 11.757 19.639 15.7949 16.4733C19.8329 13.3076 21.7065 8.91433 19.9298 6.68539C18.4115 4.71489 14.5997 5.07022 10.9817 7.26685C15.4396 4.35955 20.1559 3.8427 21.9972 6.20084C24.0646 8.81742 21.7065 14.1152 16.764 17.9593Z" fill="currentColor"/></svg>