<?xml version="1.0" encoding="UTF-8"?><svg id="Layer_1" xmlns="http://www.w3.org/2000/svg" viewBox="0 0 25 25"><path d="M15.65,15.55l-8.3-.11s-.05,0-.07-.02-.04-.03-.06-.05c-.03-.04-.03-.1-.02-.16,.03-.09,.11-.15,.2-.16l8.37-.11c.99-.05,2.07-.9,2.45-1.94l.48-1.32c.02-.06,.03-.11,.01-.17-.54-2.58-2.72-4.5-5.32-4.5-2.4,0-4.43,1.64-5.16,3.91-.47-.37-1.07-.57-1.72-.51-1.15,.12-2.08,1.1-2.19,2.32-.03,.31,0,.62,.06,.91-1.88,.06-3.38,1.68-3.38,3.69,0,.18,.01,.36,.03,.53,.01,.09,.08,.15,.16,.15h15.31c.09,0,.17-.06,.2-.16l.11-.43c.14-.51,.09-.98-.15-1.33-.22-.32-.58-.51-1.02-.53Zm3.81-3.78h0s-.23,0-.23,0c-.05,0-.1,.04-.12,.1l-.32,1.19c-.14,.51-.09,.98,.15,1.33,.22,.32,.58,.51,1.02,.53l1.77,.11s.05,0,.07,.02c.02,.01,.04,.03,.06,.05,.03,.04,.03,.11,.02,.16-.03,.09-.11,.15-.2,.16l-1.84,.11c-1,.05-2.07,.9-2.45,1.94l-.13,.36c-.03,.07,.02,.14,.09,.14h6.32c.07,0,.14-.05,.16-.13,.11-.41,.17-.85,.17-1.3,0-2.64-2.04-4.79-4.54-4.79Z"/></svg>