<svg width="23" height="23" viewBox="0 0 23 23" fill="currentColor" xmlns="http://www.w3.org/2000/svg"><path d="M11.5 0C5.16854 0 0 5.16854 0 11.5C0 17.8638 5.16854 23 11.5 23C17.8638 23 23 17.8315 23 11.5C23.0323 5.16854 17.8638 0 11.5 0ZM15.764 16.9593C10.8216 20.8357 5.13624 21.8371 3.06882 19.1882C1.77669 17.5407 2.09972 14.8272 3.8441 12.0815H2.48736L2.81039 11.3385C2.81039 11.3385 5.16854 10.8539 7.55899 8.68961H8.52809L7.33287 11.3062H9.27107L8.91573 12.0815H7.00983C5.36236 15.2795 5.58848 16.3132 5.87921 17.0885C6.62219 19.2205 10.757 18.639 14.7949 15.4733C18.8329 12.3076 20.7065 7.91433 18.9298 5.68539C17.4115 3.71489 13.5997 4.07022 9.98174 6.26685C14.4396 3.35955 19.1559 2.8427 20.9972 5.20084C23.0646 7.81742 20.7065 13.1152 15.764 16.9593Z" fill="currentColor"/></svg>