<?xml version="1.0" encoding="utf-8"?>
<!-- Generator: Adobe Illustrator 24.2.1, SVG Export Plug-In . SVG Version: 6.00 Build 0)  -->
<svg version="1.1" id="Layer_1" xmlns="http://www.w3.org/2000/svg" xmlns:xlink="http://www.w3.org/1999/xlink" x="0px" y="0px"
	 viewBox="0 0 25 25" style="enable-background:new 0 0 25 25;" xml:space="preserve">
<g>
	<g>
		<path d="M21.5,14.1c-0.3-0.5-0.8-0.9-1.4-1.3c1-0.6,1.5-1.5,1.5-2.6c0-0.5-0.1-1.1-0.4-1.5c-0.2-0.5-0.6-0.8-1.1-1.1
			c-0.5-0.3-1-0.4-1.6-0.4h-5v11.7h5.2c0.6,0,1.2-0.1,1.7-0.4c0.5-0.3,0.9-0.7,1.2-1.1c0.3-0.5,0.4-1.1,0.4-1.6
			C22,15.1,21.8,14.6,21.5,14.1z M15.4,9.1h2.8c0.5,0,0.8,0.1,1.1,0.4c0.3,0.3,0.5,0.6,0.5,1.1c0,0.4-0.2,0.7-0.5,1
			c-0.3,0.3-0.7,0.4-1.1,0.4h-2.8V9.1z M19.7,16.6c-0.4,0.3-0.8,0.5-1.2,0.5h-3.1v-3.3h3.1c0.5,0,0.9,0.1,1.2,0.5
			c0.3,0.3,0.5,0.7,0.5,1.2C20.1,16,19.9,16.4,19.7,16.6z M8.5,9c1,0,1.9,0.5,2.6,1.3l0.9-1.8c-0.4-0.4-0.9-0.7-1.3-0.9
			C9.9,7.2,9.2,7,8.5,7c-1,0-1.9,0.3-2.7,0.8c-0.8,0.6-1.5,1.3-2,2.2C3.2,11,3,11.9,3,13c0,1.1,0.2,2,0.8,3c0.5,0.9,1.2,1.6,2,2.2
			C6.6,18.7,7.5,19,8.5,19c0.8,0,1.5-0.2,2.1-0.5c0.5-0.3,0.9-0.6,1.3-1c0,0.1-0.9-1.6-0.9-1.6c-0.4,0.5-0.8,0.8-1.3,1
			C9,17.1,8.3,17.2,7.6,17c-0.6-0.2-1.2-0.5-1.6-1.1c-0.3-0.3-0.5-0.7-0.6-1c-0.1-0.3-0.2-0.6-0.3-0.9c-0.1-0.3-0.1-0.7-0.1-0.9
			C4.8,10.8,6.5,9,8.5,9z"/>
	</g>
</g>
</svg>
