<?xml version="1.0" encoding="utf-8"?>
<!-- Generator: Adobe Illustrator 24.2.3, SVG Export Plug-In . SVG Version: 6.00 Build 0)  -->
<svg version="1.1" id="Layer_1" xmlns="http://www.w3.org/2000/svg" xmlns:xlink="http://www.w3.org/1999/xlink" x="0px" y="0px"
	 viewBox="0 0 25 25" style="enable-background:new 0 0 25 25;" xml:space="preserve">
<g>
	<g>
		<path d="M19.8,3.3C19.8,3.3,19.8,3.3,19.8,3.3C19.8,3.3,19.8,3.3,19.8,3.3C19.8,3.3,19.8,3.3,19.8,3.3z M3.7,5.1
			C3.7,5.1,3.7,5.1,3.7,5.1c0,0,0.1,0,0.1,0C3.7,5.1,3.6,5.1,3.7,5.1z M19.9,3.2C19.9,3.2,19.9,3.3,19.9,3.2L19.9,3.2
			c-0.1,0.1-0.1,0.1-0.1,0.1C19.9,3.3,19.8,3.3,19.9,3.2c-0.1,0.1-0.1,0.1-0.1,0.1C20,3.4,19.9,3.3,19.9,3.2z M19.9,3.3
			C19.9,3.3,19.9,3.3,19.9,3.3C19.9,3.3,19.9,3.3,19.9,3.3z M20.1,3.4C20.1,3.4,20.1,3.4,20.1,3.4C20.1,3.4,20.1,3.4,20.1,3.4
			C20.1,3.4,20.1,3.4,20.1,3.4z M20.1,3.4C20.1,3.4,20.1,3.4,20.1,3.4C20.1,3.4,20.1,3.4,20.1,3.4L20.1,3.4z M21.5,7.6
			C21.5,7.6,21.5,7.6,21.5,7.6C21.5,7.6,21.5,7.6,21.5,7.6C21.5,7.6,21.5,7.6,21.5,7.6z M3.3,6C3.3,6,3.3,6,3.3,6C3.3,6,3.3,6,3.3,6
			C3.2,6,3.3,6,3.3,6z M17.4,21.6C17.4,21.6,17.4,21.6,17.4,21.6C17.4,21.6,17.4,21.6,17.4,21.6C17.4,21.6,17.4,21.6,17.4,21.6z
			 M3.5,13.1L3.5,13.1C3.5,13.1,3.5,13.1,3.5,13.1c0,0.1,0,0.1,0,0.1C3.5,13.2,3.5,13.2,3.5,13.1C3.5,13.2,3.5,13.2,3.5,13.1
			C3.5,13.2,3.5,13.1,3.5,13.1z M5.1,21.8C5.1,21.8,5.1,21.8,5.1,21.8C5.1,21.8,5.1,21.8,5.1,21.8L5.1,21.8z M20.1,3.4
			C20.1,3.4,20.1,3.4,20.1,3.4C20.1,3.4,20.1,3.4,20.1,3.4L20.1,3.4C20.1,3.4,20.1,3.4,20.1,3.4C20.2,3.4,20.1,3.4,20.1,3.4
			C20.1,3.3,20.2,3.3,20.1,3.4c0.1-0.1,0-0.1,0-0.1C20.1,3.3,20.1,3.3,20.1,3.4C20.1,3.3,20.1,3.4,20.1,3.4
			C20.1,3.4,20.1,3.4,20.1,3.4C20.1,3.4,20.1,3.4,20.1,3.4z M21.2,20.3C21.2,20.3,21.2,20.3,21.2,20.3
			C21.2,20.3,21.2,20.3,21.2,20.3L21.2,20.3z M21.7,19.1C21.7,19.1,21.7,19.1,21.7,19.1C21.7,19.1,21.7,19.1,21.7,19.1
			C21.7,19.1,21.7,19.1,21.7,19.1z M21.3,19.9C21.3,19.9,21.4,19.9,21.3,19.9C21.4,19.9,21.4,19.9,21.3,19.9
			C21.4,19.9,21.4,19.9,21.3,19.9C21.3,19.9,21.3,19.9,21.3,19.9z M5.1,21.7C5.1,21.7,5.1,21.7,5.1,21.7C5.1,21.7,5.1,21.7,5.1,21.7
			C5.1,21.7,5.1,21.7,5.1,21.7C5.1,21.7,5.1,21.7,5.1,21.7z M20.1,3.4C20.1,3.4,20.1,3.4,20.1,3.4C20.1,3.4,20.1,3.4,20.1,3.4
			C20.1,3.4,20.1,3.4,20.1,3.4C20.2,3.4,20.2,3.4,20.1,3.4L20.1,3.4C20.2,3.4,20.2,3.4,20.1,3.4C20.2,3.4,20.2,3.4,20.1,3.4
			L20.1,3.4C20.1,3.4,20.1,3.4,20.1,3.4C20.1,3.4,20.1,3.4,20.1,3.4z M21.2,20.3C21.2,20.3,21.2,20.3,21.2,20.3
			C21.2,20.3,21.2,20.3,21.2,20.3C21.2,20.3,21.2,20.3,21.2,20.3C21.2,20.3,21.2,20.3,21.2,20.3z M21.3,19.9
			C21.3,19.9,21.3,19.9,21.3,19.9C21.3,19.9,21.3,19.9,21.3,19.9C21.3,19.9,21.3,19.9,21.3,19.9C21.3,19.9,21.3,19.9,21.3,19.9z
			 M21.8,21.1C21.9,21,21.9,21,21.8,21.1c0.1,0,0-0.1,0-0.1c0,0,0.1-0.1,0.1-0.1c-0.1,0-0.2,0-0.3,0c0,0,0.1,0,0.1,0
			c-0.1,0-0.2,0-0.2-0.1c0,0,0,0,0,0c0,0-0.1-0.1-0.1-0.1c0,0.1,0,0-0.1,0c0,0,0,0,0,0c0,0-0.1,0-0.1-0.1c0-0.1,0.1-0.2-0.1-0.2
			c0,0,0,0,0,0c0,0,0,0,0,0c0,0,0,0,0.1,0c0,0,0,0,0,0v0c0,0,0,0,0,0v0c0,0,0,0,0,0c0,0,0,0,0,0c0,0,0,0,0,0c0,0,0,0,0,0
			c0,0,0,0,0,0c0,0,0,0,0,0c0,0,0-0.1,0.1,0c0,0,0,0,0,0c0.1,0,0.2,0.1,0.2,0.1c0,0,0-0.1,0-0.1c0,0,0.1,0.1,0,0.1c0-0.1,0,0,0.1,0
			c0,0,0,0,0,0c0,0-0.1,0-0.1,0c0,0,0,0,0-0.1c0,0,0,0,0.1,0c0,0,0,0-0.1,0c0-0.1,0-0.2,0-0.2c0,0.2-0.3,0-0.4,0c0,0,0.1,0,0.1,0
			c0,0,0,0-0.1,0c0,0,0,0,0,0c0,0,0,0,0,0c0,0,0,0,0,0v-0.1c0,0,0,0,0,0c0,0,0,0,0,0c0,0,0-0.1-0.1-0.1c0,0,0,0,0.1,0c0,0,0,0,0,0
			c0,0,0,0,0,0c0,0,0-0.1-0.1-0.1c0,0,0.1,0,0.1,0c0,0,0-0.1-0.1-0.1c0,0,0.1-0.1,0.2,0c0,0-0.1,0.1-0.1,0.1
			c0.1,0.1,0.2,0.1,0.2,0.2c0,0,0,0,0,0c0,0,0,0,0,0c0,0,0,0,0-0.1c0,0,0,0,0,0c0,0,0,0,0,0c0,0,0,0,0,0c-0.1,0-0.1-0.1,0-0.1
			c0,0,0,0,0-0.1c0-0.2-0.2-0.1-0.3-0.2c0.2,0,0.1,0,0.2-0.2c-0.1,0-0.1,0.1-0.1,0c0.1,0.1-0.1-0.2-0.1-0.2c0,0,0.1,0,0.1-0.1
			c0,0,0,0.1,0,0c0,0,0,0,0,0c0,0,0,0,0,0c0-0.1-0.1,0-0.1-0.1c0.1,0,0.5,0.2,0.5,0c-0.1,0-0.1,0-0.2,0.1c0,0,0.1,0,0.1,0
			c-0.1,0,0,0-0.1,0c0,0.1-0.1-0.1-0.2-0.1c0-0.1,0-0.2,0-0.2c0,0,0-0.1,0-0.1c0,0,0,0,0,0c0,0,0,0.1,0,0.1c0.2,0-0.1-0.1-0.1-0.2
			c-0.1-0.3,0.1-0.5,0.3-0.5c-0.5,0,0-0.1,0-0.1c0,0-0.1,0-0.1,0c0,0,0.1,0,0.1,0c0,0-0.2-0.1-0.2-0.1c0,0,0,0,0.1,0
			c-0.1,0-0.2,0.1-0.2,0c0,0,0.3-0.2,0.3-0.1c0,0,0.1,0.1,0.1-0.1c0,0-0.2,0-0.2-0.1c0.1,0,0.1-0.1,0.1-0.1c0,0-0.1,0-0.1-0.1
			c0.2,0,0.1,0,0.2-0.1c0-0.1-0.2,0-0.2,0c-0.2,0,0-0.3,0-0.3c0-0.1-0.1,0-0.1,0c-0.1-0.1-0.1,0-0.2,0c0.1,0,0.1-0.1,0.2-0.2
			c0,0,0,0,0.1,0c0.1-0.1,0.1-0.1,0.2-0.1c0,0,0,0,0-0.1c-0.1,0-0.3,0.2-0.4,0c0.1,0,0.2,0,0.3-0.1c0,0,0,0-0.1-0.1
			c0.2,0,0.3,0.1,0.1-0.2c0,0,0.1-0.1,0.1-0.1c0,0-0.2,0-0.1,0.1c-0.1,0-0.4-0.1-0.4,0c-0.1,0.1,0.1,0.2,0.2,0.1c0,0-0.1,0.1,0,0.1
			c0,0.1,0,0.1-0.1,0.1c0,0,0-0.1,0-0.1c-0.1-0.1-0.2,0-0.2,0c0.2-0.1-0.2-0.2,0.2-0.2c0,0,0.4,0.1,0.2,0c0,0,0,0,0,0
			c0,0-0.1-0.1-0.1,0c0.1,0,0.1-0.1,0.1-0.1c0,0-0.1,0-0.1,0c0,0,0,0,0,0c0.1,0,0.1,0,0.1,0c0,0,0.1-0.1,0.1-0.1c0,0-0.2,0-0.2,0
			c0.1-0.1,0.1,0,0.3-0.1c0,0-0.1,0-0.1-0.1c0,0-0.1,0-0.1,0c0,0,0,0,0,0c0,0,0.1,0,0.1,0c-0.1,0-0.2,0-0.3,0c0,0,0,0,0,0
			c0.1,0,0.1,0,0.2,0c0-0.1-0.1-0.1-0.1,0c0,0,0-0.1,0-0.1c-0.1-0.1,0-0.1,0-0.1c0,0,0.1,0,0.1,0c0,0-0.1,0-0.1,0
			c0.1,0-0.1-0.2-0.1-0.3c-0.1,0-0.2,0-0.3,0v0c0.2,0,0.4,0,0.5,0c0-0.1-0.3,0-0.1-0.1c-0.1,0,0,0-0.1,0c0-0.1,0.1-0.1,0.1-0.1
			c0-0.1,0-0.1-0.1-0.2c0.1,0,0.1,0,0.2-0.1c0,0,0-0.1-0.1-0.1c0-0.1,0.1,0,0.2,0c0-0.2-0.4,0-0.4-0.1c0-0.2,0.4,0,0.3-0.2
			c-0.1,0-0.4,0-0.4,0c-0.2-0.1,0-0.1-0.1-0.2c0,0,0,0,0,0v0c0.1,0,0.2,0.1,0.2,0.1c-0.1,0-0.1,0-0.1,0.1c0.1,0,0.2-0.2,0.2-0.2
			c-0.1,0,0-0.1,0-0.1c0.1,0,0.1,0,0,0.1c0,0,0.1,0,0.1,0c0,0.1,0,0.1,0,0.1c0.1-0.1,0-0.2-0.1-0.4c0,0-0.1,0.1-0.1,0.1
			c0,0,0.1-0.2,0.1-0.2c0,0,0,0,0,0c0,0,0,0,0.1,0c0,0-0.1,0-0.1,0c0,0,0-0.1,0.1-0.1c0,0,0,0,0,0c0,0,0,0,0,0
			c-0.2-0.1,0-0.1-0.2-0.2c0,0,0.1,0,0.1,0c0-0.1,0,0,0.1-0.1c0.1,0-0.1-0.1-0.2-0.1c0,0,0.1-0.1,0.1-0.1c-0.1,0-0.1,0-0.1,0
			c0,0-0.2,0-0.2,0c0.2,0,0.1-0.1,0.2-0.1c0.1-0.1,0,0,0,0c0,0,0-0.1,0.1-0.1c0.2,0.1,0.1,0.1,0,0c0-0.1,0-0.1,0.1-0.1
			c0,0,0,0,0-0.1c-0.1,0-0.2,0-0.2,0.1c-0.1-0.1-0.1-0.1-0.2-0.1c0.1,0,0.2-0.1,0.3-0.1c0,0-0.1-0.1-0.1-0.1c-0.1,0-0.2,0.1-0.3,0.1
			c0,0,0,0,0-0.1c0.1,0,0.2-0.1,0.2-0.1c-0.1-0.2,0.1,0,0.1,0c0-0.1,0-0.1-0.1-0.2c0,0,0.1,0,0.1,0c-0.1-0.2-0.2,0.2-0.4,0.1
			c-0.3-0.1,0.3-0.3,0.3-0.3c0,0,0-0.1,0-0.1c0,0,0,0,0,0c0,0,0,0,0,0c0,0,0,0,0,0c0,0,0,0,0,0c0-0.2-0.2-0.1-0.3-0.1
			c0,0,0-0.1,0.1,0c0-0.1,0-0.1,0.1-0.1c-0.2-0.1,0-0.1,0-0.1c-0.1,0,0.2-0.2,0.3-0.2c0,0-0.4-0.1-0.4-0.1c0.2-0.1,0.4-0.2,0.1-0.3
			c0.1,0,0.2-0.1,0.2,0c0-0.1-0.1,0-0.2-0.2c0.1,0,0.1,0,0.1,0c0,0,0.1,0,0.1,0c0.1-0.2-0.3-0.1-0.3-0.1c0,0.1,0.3-0.1,0.3-0.1
			c0,0-0.4,0.1-0.3,0c0.1,0,0.3,0,0.4,0c-0.1,0-0.1,0-0.2,0c0,0,0.2-0.1,0.1-0.1c-0.1,0-0.1,0-0.1,0c0.1,0,0.1,0,0.1-0.1
			c0,0,0,0-0.1,0c0.1,0,0,0,0.1,0c0,0,0,0,0-0.1c0,0-0.3-0.1-0.2,0.1c0,0-0.1,0-0.1-0.1c0,0,0.2-0.1,0.2-0.1c0,0-0.1-0.1,0-0.1
			c0,0.1,0,0,0.1,0c0-0.1-0.1-0.1-0.1,0c0,0,0,0,0,0c0.1,0,0.2,0,0.2-0.1c0-0.1-0.1,0-0.1,0c0.1-0.3,0.1-0.1-0.1-0.2
			c0,0,0.2-0.1,0.2-0.1c-0.1-0.1,0,0-0.1-0.1c0-0.1-0.1,0,0-0.1c0,0-0.1,0-0.1-0.1c0.1,0,0.2,0,0.2-0.2c0-0.2,0-0.2-0.4-0.2
			c0,0,0,0,0,0c0.2-0.1,0.3-0.1,0.4-0.3c0,0-0.3-0.1-0.3,0c0,0,0.1,0,0.1,0c0,0,0,0.1-0.1,0c0,0,0,0.1,0,0.1c0-0.1-0.3-0.1-0.1-0.2
			c0,0-0.2,0-0.3-0.1c0,0,0,0,0,0V8.1c0.1,0,0.3,0,0.4,0c0,0,0.2,0.1,0.2,0c0,0-0.1-0.2-0.1-0.2c0,0,0.1,0,0.1,0c0-0.1,0-0.1,0-0.2
			c0,0,0,0-0.1,0c0,0,0,0,0.1,0c0-0.2,0-0.5,0-0.6c0,0-0.1,0-0.1,0c0,0,0,0-0.1-0.1c0.1-0.1,0,0.2,0.2,0c0.1,0-0.1-0.1-0.1-0.1
			c0,0,0.1,0,0.1-0.1c-0.1,0-0.1,0-0.2,0c0.1,0,0.1,0,0.2,0c0-0.1-0.1,0-0.1-0.1c0.1,0,0.1-0.4,0.1-0.4c0.1,0.1-0.3,0-0.3,0
			c0.1,0,0.2,0,0.2-0.1c0-0.1,0-0.1-0.1-0.1c0.1-0.2,0.1-0.1,0.1-0.2c0.2-0.1,0-0.1-0.1-0.1c0,0,0.3,0.1,0.2-0.1
			c0,0-0.3,0.1-0.2-0.1c0.1,0,0.1,0,0.1,0c0,0,0,0,0,0c0.1,0,0.1,0,0.1-0.1c0,0,0,0,0,0c0,0,0,0,0.1,0c0,0,0,0,0,0c0,0,0,0,0,0
			c0,0,0,0,0,0c0,0,0,0,0,0c0,0-0.1,0-0.1,0C21.6,5.2,21.7,5,21.6,5c0,0,0,0.2,0,0c0,0,0,0.1,0,0.1c0,0,0-0.1,0-0.1c0,0,0,0.1,0,0.1
			c0,0,0-0.1,0-0.1c0,0,0,0.1,0,0.1c0,0-0.1-0.1-0.1-0.1c0,0,0,0.1,0,0.1c0,0-0.1,0-0.1,0c0,0,0.1-0.1,0.1-0.1c0,0-0.1,0-0.1-0.1
			c0,0,0.1-0.1,0.1-0.1c0,0,0,0.1,0,0.1c0,0,0-0.1,0-0.1c0.1,0,0,0,0.1,0c0-0.1-0.1-0.2-0.2-0.2c0,0,0.1,0,0.1,0
			c0.2,0,0.4-0.2,0.4-0.2c0,0,0,0,0,0c-0.1,0-0.1,0,0,0c0-0.1,0-0.1,0-0.2c0,0,0,0,0,0.1c0,0,0,0,0-0.1c0,0,0,0,0,0
			c-0.1,0-0.1,0.1-0.2,0.2c0,0,0,0,0,0c0-0.1-0.1-0.1-0.1-0.2c0,0,0,0,0,0c0,0,0,0,0.1,0c0,0-0.1-0.2-0.1-0.2c0,0.1-0.1,0-0.1,0
			c0,0,0-0.1-0.1,0c0-0.1,0.3-0.5,0.3-0.5c-0.1,0-0.1,0-0.1-0.1c0,0.1-0.1,0.2-0.1,0.4c0,0,0,0,0,0c0-0.1-0.1-0.2-0.1-0.2
			c0,0,0,0.1-0.1,0.1c-0.1,0-0.1,0-0.1,0.1c0,0,0,0,0,0.1c-0.1,0-0.2,0-0.2,0.1c0,0-0.1-0.1-0.1-0.1c0,0,0.2,0,0.1-0.1
			c0-0.1-0.1-0.1-0.1,0c0-0.1,0-0.1,0.1-0.2c0,0,0.1,0.1,0.1,0.1c0,0,0-0.1,0-0.1c0,0,0.1,0,0.1,0v0c0,0,0,0-0.1,0c0,0,0,0,0,0
			c0,0,0,0,0,0c0,0,0,0,0,0c0,0,0-0.3-0.1-0.2c0,0,0-0.1,0-0.1c0,0,0,0.1,0,0.1C21,3.2,21,3,21,3c0,0,0,0.1,0,0.1c0.1,0,0.1,0,0,0
			c0,0,0.1,0,0.1,0c0,0,0,0,0,0c0,0,0,0,0,0c0,0,0,0,0,0c0,0,0,0,0,0h0c-0.1,0-0.1,0-0.1,0.1c0,0-0.1-0.2-0.1-0.1
			c0,0-0.1-0.1-0.1-0.1c0,0.1,0,0.1,0.1,0.2c0,0.1-0.1,0-0.1,0.1c0,0,0-0.1,0-0.1c0,0,0,0.2-0.1,0.2c0,0,0,0.1,0,0.1c0,0,0,0,0,0
			c0,0,0,0,0,0.1c0,0.1-0.1,0.1-0.2,0.1c0,0,0,0,0,0l0,0h0c0,0,0,0,0,0c0,0,0,0,0,0c0,0,0,0.1,0,0.1c0,0-0.1-0.1-0.1-0.1
			c0,0,0,0.1,0,0.2c0,0,0,0,0,0c0,0,0,0,0,0.1c0,0,0,0,0,0c0,0,0,0,0,0c-0.1,0,0-0.2,0-0.2c0,0,0,0-0.1,0c0,0,0.1-0.1,0.2-0.1
			c0-0.1,0.1-0.2,0.1-0.3c0,0-0.1,0-0.1,0v0c0,0,0,0,0,0c0,0,0,0,0,0c0,0-0.1,0-0.1,0c0,0.1,0,0.2,0,0.2c0,0,0.1,0,0.1,0
			c0,0-0.1,0-0.1,0h0l0,0v0h0c0,0,0,0,0,0c0,0,0,0,0,0c0,0,0,0,0,0c0,0,0,0,0,0c0,0,0,0,0,0c0,0-0.1,0-0.1,0c0,0,0,0,0,0v0
			c0,0,0,0,0,0c0,0,0,0.1,0-0.1h0c0,0,0,0,0,0c0-0.1,0.1-0.2,0.1-0.2c0,0,0,0-0.1,0c0,0-0.1,0-0.1,0c0,0-0.1,0-0.1-0.1
			c-0.1,0.1-0.1,0.2-0.2,0.4c0-0.1-0.2-0.3-0.2-0.1c0.1,0,0.1,0,0.1,0.1c0,0-0.2,0.1-0.2,0.2c0,0,0-0.1-0.1-0.1c0,0,0.1,0,0,0
			c0,0,0,0,0,0c0,0,0,0,0,0c-0.1,0,0,0.1-0.1,0.1c0-0.2,0.1-0.3,0-0.4c0-0.1-0.1,0-0.1,0c0,0.1,0,0.1,0.1,0.1c0,0,0-0.1,0-0.1
			c0,0.2,0,0.1,0,0.3c-0.1,0-0.1,0-0.1,0c0,0,0,0,0,0c0,0,0,0,0,0c0,0,0,0,0,0c0-0.2-0.2,0.1-0.2,0.1c-0.3,0.1-0.5-0.1-0.5-0.3
			c0,0.5-0.1,0-0.1,0c0,0,0,0.1-0.1,0.1c0,0,0-0.1,0-0.1c0,0-0.1,0.2-0.1,0.2c0,0,0,0,0-0.1c0,0.1,0.1,0.2,0,0.2
			c0,0-0.2-0.3-0.1-0.3c0,0,0.1-0.1-0.1-0.1c0,0,0,0.2-0.1,0.2c0-0.1-0.1-0.1-0.1-0.1c0,0,0,0.1-0.1,0.1c0-0.2,0-0.1-0.1-0.2
			c-0.1,0,0,0.2,0,0.2c0,0.2-0.3,0-0.3,0c-0.1,0,0,0.1,0,0.1c-0.1,0.1,0,0.1,0,0.2c0-0.1-0.1-0.1-0.2-0.2c0,0,0,0,0-0.1
			c-0.1-0.1-0.1-0.1-0.1-0.2c0,0,0,0-0.1,0c0,0.1,0.2,0.3,0,0.4c0-0.1,0-0.2-0.1-0.3c0,0,0,0-0.1,0.1c0-0.2,0.1-0.3-0.2-0.1
			c0,0-0.1-0.1-0.1-0.1c0,0,0,0.3,0.1,0.1c0,0.1-0.1,0.4,0,0.4c0.1,0.1,0.2-0.1,0.1-0.2c0,0,0.1,0.1,0.1,0c0.1,0,0.1,0,0.1,0.1
			c0,0-0.1,0-0.1,0c-0.1,0.1,0,0.2,0,0.2c-0.1-0.2-0.2,0.2-0.2-0.2c0,0,0.1-0.4,0-0.2c0,0,0,0,0,0c0,0-0.1,0.1,0,0.1
			c0-0.1-0.1-0.1-0.1-0.1c0,0,0,0.1,0,0.1c0,0,0,0,0,0c0-0.1,0-0.1,0-0.1c0,0-0.1-0.1-0.1-0.1c0,0,0,0.2,0,0.2c0,0,0,0-0.1,0
			c0,0-0.1-0.1-0.1-0.1c0,0,0,0,0,0.1c0,0,0,0,0,0c0,0,0-0.1,0-0.1c0,0.1,0,0.2,0,0.3c0,0,0,0,0,0c0-0.1,0-0.2,0-0.2
			c-0.1,0-0.1,0.1,0,0.1c0,0-0.1,0-0.1,0c-0.1,0.1-0.1,0-0.1,0c0.1,0-0.1-0.1-0.1-0.1c-0.1,0,0.1,0.2-0.1,0.2c0,0,0-0.1,0-0.1
			c-0.1,0.5,0,0.1-0.1,0.1c0,0.1,0,0.2,0,0.4h0c0-0.3,0-0.4,0-0.6c-0.1,0,0,0.3-0.1,0.1c0,0.1,0,0,0,0.1c-0.1,0-0.1-0.1-0.1-0.2
			c-0.1,0-0.1,0-0.2,0.1c0-0.1,0-0.1-0.1-0.2c0,0-0.1,0-0.1,0.1c-0.1,0,0-0.1,0-0.2c-0.2,0,0,0.4-0.1,0.4c-0.2,0,0-0.4-0.2-0.3
			c0,0.1,0,0.4,0,0.4c-0.1,0.2-0.1,0-0.2,0.1c0,0.1,0,0.1,0,0.1h0c-0.1,0,0-0.2,0-0.3c0,0.1,0,0.1,0.1,0.1c0-0.1-0.1-0.2-0.2-0.2
			c0,0.1-0.1,0-0.1,0c0-0.1,0-0.1,0.1,0c0,0,0-0.1,0-0.1c0.1,0,0.1,0,0.1,0c-0.1-0.1-0.2,0-0.4,0.1c0,0,0.1,0.1,0.1,0.1
			c0,0-0.2-0.1-0.2-0.1c0,0,0,0,0,0c0,0,0,0,0-0.1c0,0,0,0.1,0,0.1c0,0-0.1,0-0.1-0.1c0,0,0,0,0,0c0,0,0,0,0,0
			c-0.1,0.2-0.1,0-0.2,0.2c0,0,0-0.1,0-0.1c-0.1,0,0,0-0.1-0.1c0-0.1-0.1,0.1-0.1,0.2c0,0-0.1-0.1-0.1-0.1c0,0.1,0,0.1,0,0.1
			c0,0,0,0.2,0,0.2c0-0.2-0.1-0.1-0.1-0.2c-0.1-0.1,0,0,0,0c0,0-0.1,0-0.1-0.1c0.1-0.2,0.1-0.1,0,0c-0.1,0-0.1,0-0.1-0.1
			c0,0,0,0-0.1,0c0,0.1,0,0.2,0.1,0.2c-0.1,0.1-0.1,0.1-0.1,0.2c0-0.1-0.1-0.2-0.1-0.3c0,0-0.1,0.1-0.1,0.1c0,0.1,0.1,0.2,0.1,0.3
			c0,0,0,0-0.1,0c0-0.1-0.1-0.2-0.1-0.2c-0.2,0.1,0-0.1,0-0.1c-0.1,0-0.1,0-0.2,0.1c0,0,0-0.1,0-0.1c-0.1,0.1,0.3,0.4,0.1,0.5
			c-0.1,0-0.2-0.3-0.3-0.4c0,0,0,0,0,0c0,0,0,0,0,0c0,0,0,0,0,0c0,0,0,0,0,0c-0.1,0-0.1,0.2-0.1,0.3c0,0-0.1-0.1-0.2-0.2
			c-0.1,0.2-0.1,0-0.1,0c0,0.1-0.2-0.2-0.2-0.3c0,0-0.1,0.4-0.1,0.4c-0.1-0.2-0.2-0.4-0.3-0.1c0-0.1-0.1-0.2,0-0.2
			c-0.1,0,0,0.1-0.1,0.2c0-0.1,0-0.1,0-0.1c0,0,0-0.1,0-0.1c-0.2-0.1-0.1,0.3-0.1,0.3c0.1,0-0.1-0.3-0.1-0.3c0,0,0.1,0.4,0,0.3
			c0-0.1,0-0.3,0-0.4c0,0.1,0,0.1,0,0.2c0,0-0.1-0.2-0.1-0.1c0,0.1,0,0.1,0,0.1c0-0.1,0-0.1-0.1-0.1c0,0,0,0,0,0.1c0-0.1,0,0,0-0.1
			c0,0,0,0-0.1,0c0,0-0.1,0.3,0.1,0.2c0,0,0,0.1-0.1,0.1c0,0-0.1-0.2-0.1-0.2c0,0-0.1,0.1-0.1,0c0.1,0,0,0,0-0.1
			c-0.1,0-0.1,0.1,0,0.1c0,0,0,0,0,0c0-0.1,0-0.2-0.1-0.2c-0.1,0,0,0.1,0,0.1c-0.1,0-0.2-0.1-0.1-0.1c0,0.1,0,0.1,0,0.2
			c0,0-0.1-0.2-0.1-0.2c-0.1,0.1,0,0-0.1,0.1c-0.1,0,0,0.1-0.1,0c0,0,0,0.1-0.1,0.1c0-0.1,0-0.2-0.2-0.2c-0.2,0-0.2,0-0.2,0.4
			c0,0,0,0,0,0C8.4,3.5,8.4,3.4,8.2,3.3c0,0-0.1,0.3,0,0.3c0,0,0-0.1,0-0.1c0,0,0.1,0,0,0.1c0,0,0.1,0,0.1,0c-0.1,0-0.1,0.3-0.2,0.1
			c0,0,0,0.2-0.1,0.3c0,0,0.1,0,0.1,0.1c0,0,0,0,0,0H8.1C8,3.9,8,3.6,8,3.6c0,0,0.1-0.2,0-0.2c0,0-0.2,0.1-0.2,0.1c0,0,0-0.1,0-0.1
			c-0.2,0.1-0.7,0-0.8,0c0,0,0,0.1,0,0.1c0,0,0,0-0.1,0.1c-0.1-0.1,0.1,0,0-0.2c0-0.1-0.1,0.1-0.1,0.1c0,0,0-0.1-0.1-0.1
			c0,0.1,0,0.1,0,0.2c0-0.1,0-0.1,0-0.2c-0.1,0,0,0.1-0.1,0.1c0-0.1-0.4-0.1-0.4-0.1c0.1-0.1,0,0.3,0,0.3c0-0.1,0-0.2-0.1-0.2
			C6,3.4,6,3.4,6,3.5C5.8,3.4,5.8,3.4,5.7,3.4c-0.1-0.2-0.1,0-0.1,0.1C5.5,3.4,5.7,3.3,5.5,3.3c0,0,0.1,0.3-0.1,0.2
			c0-0.1-0.1-0.2,0-0.2c0,0,0,0.1,0,0.1c0-0.1,0-0.1-0.1-0.1c0,0,0,0,0,0c0,0,0-0.1-0.1-0.1c0,0,0,0.1,0,0.1c0,0,0,0,0-0.1
			c0,0,0,0.1,0,0.2C5.2,3.3,5.1,3.3,4.9,3.3c0,0,0.1,0,0.1,0c0,0,0,0-0.1,0c0,0,0,0,0.1,0c0,0-0.1,0-0.1,0c0.1,0,0.1,0,0.2,0
			C5,3.6,5,3.6,5,3.5c0,0,0,0.1-0.1,0.1c-0.1-0.1,0-0.2-0.1-0.3c0,0-0.1,0.2-0.2,0.2c0,0,0,0,0,0c0-0.2-0.2-0.1-0.1-0.2
			c0,0-0.1,0-0.1,0c0,0,0.1,0,0.1,0C4.5,2.9,4.4,3,4.2,3c0,0,0,0.1,0,0.1c0,0-0.1-0.1-0.1-0.1c0,0,0.1,0,0.1,0.1
			C4,3.1,4.4,3.2,4.5,3.3c0,0-0.1-0.1-0.1,0c0,0,0,0-0.1,0c0,0,0,0-0.1,0c0,0,0,0,0,0c-0.1,0-0.1,0-0.1-0.1c0,0-0.1,0.3-0.1,0.3H4
			c0,0,0.1,0,0.1,0c0,0-0.1,0-0.1,0c-0.2,0-0.3-0.2-0.5-0.2c0,0,0,0.1,0,0.1c0.1,0,0.1,0,0.2,0c0,0,0,0,0,0.1c0,0,0.1-0.1,0.1-0.1
			c0,0,0,0,0,0c0,0.1-0.2,0.2,0,0.2c-0.1,0.1,0,0-0.1,0.1c0,0,0.1,0,0.1,0c-0.1,0,0,0.1,0,0.1c-0.1,0,0-0.1,0-0.1c0,0,0,0.1,0,0.1
			c-0.1,0,0,0,0-0.1c0,0,0,0.2,0,0c0,0,0,0.1,0,0.1c-0.1-0.1-0.3-0.1-0.2,0c0,0-0.1,0-0.1,0c0,0-0.2-0.1-0.2,0c0,0,0,0,0.1,0
			c0,0-0.1,0-0.1,0c0,0,0,0,0,0C3.1,4,3.1,4,3.1,4c0,0,0,0,0,0v0c0,0,0,0,0,0c0,0,0,0,0,0.1c0,0,0,0,0-0.1c0,0,0.1,0,0.1,0
			c-0.1,0-0.1,0-0.1,0.1c0.1,0,0.1,0,0.1-0.1c0,0.1,0,0.1,0.1,0.1c0,0,0,0,0,0c0.1,0,0.2,0.1,0.2,0.1c0,0-0.1,0,0,0c0,0,0.1,0,0.1,0
			c0,0,0,0,0,0c0,0,0,0,0-0.1c0.1,0,0.1,0.1,0.1,0.2c-0.1,0.2-0.1,0.1,0,0c0,0.1,0,0.1,0.1,0.2h0c0,0,0,0,0,0.1c0,0,0,0,0,0
			c0,0,0,0,0,0v0c0,0.1-0.1-0.1-0.1,0c0,0-0.1-0.1-0.1-0.1c0,0.1,0,0.1-0.1,0.1c0,0,0,0,0-0.1c0,0,0,0,0,0c0,0,0,0,0,0
			c0-0.1-0.1-0.1-0.1-0.1c0,0-0.1,0-0.1,0c0,0,0,0.1,0,0.2h0c0,0,0,0,0,0c0,0,0,0,0,0h0c0,0,0,0,0,0c0,0,0,0,0,0c0,0.1,0,0,0,0
			c0,0,0,0.1,0,0.1c0,0,0,0,0,0c0,0,0.2,0.1,0.3,0.1c0,0,0,0,0,0c0,0-0.1,0-0.1,0c0,0,0.1,0,0.1,0c0,0,0,0,0,0c0,0,0,0,0,0
			c0,0,0,0,0,0v0c0,0,0,0,0,0c0.1,0,0.1,0,0,0c0,0,0,0,0,0c0,0,0,0,0,0c0,0,0,0,0,0c0,0,0,0,0,0c0,0,0,0,0,0c0,0,0,0,0,0
			c0,0,0,0,0.1,0c0,0,0,0-0.1,0c0,0,0,0,0.1,0c0,0-0.1,0-0.1,0c0,0,0,0,0,0c0,0,0,0,0.1,0c0,0,0,0.1,0,0.1c0,0,0,0,0,0
			c-0.1,0-0.1,0-0.2,0c0,0,0,0,0,0c0,0,0,0,0,0c0,0,0,0,0,0c0,0,0,0,0,0c0,0-0.1,0-0.1,0c0,0,0,0,0.1,0c0,0-0.2-0.1-0.2-0.1
			c0,0,0,0,0,0c0,0-0.1-0.1-0.1,0c0,0,0,0,0,0c0,0,0,0,0,0c0,0,0,0,0,0c0,0,0,0,0,0c0,0,0,0.2,0,0.2c0.1,0.1,0.2,0.1,0.3,0.2
			c-0.1,0-0.3,0.2-0.1,0.2c0-0.1,0-0.1,0.1-0.1c0,0,0.1,0.2,0.2,0.2c0,0-0.1,0-0.1,0.1c0,0,0-0.1,0,0c0,0,0,0,0,0c0,0,0,0,0,0
			c0,0.1,0.1,0,0.1,0.1c-0.1,0-0.5-0.2-0.5,0c0,0,0.1,0,0.1,0.1c0.1,0,0.1,0,0.1-0.1l-0.1,0c0.2,0,0.2,0,0.3,0c0,0,0,0.1,0,0
			C3.3,6,3.7,6.2,3.7,6.2c0.1,0.3-0.1,0.5-0.3,0.5c0.5,0,0,0.1,0,0.1c0,0,0.1,0,0.1,0.1c0,0-0.1,0-0.1,0C3.4,7,3.6,7,3.6,7
			c0,0,0,0-0.1,0c0.1,0,0.2-0.1,0.2,0c0,0-0.3,0.2-0.3,0.2c0,0-0.1-0.1-0.1,0.1c0,0,0.2,0,0.2,0.1c-0.1,0-0.1,0.1-0.1,0.1
			c0,0,0.1,0,0.1,0.1c-0.2,0-0.1,0-0.2,0.1c0,0.1,0.2,0,0.2,0c0.2,0,0,0.3,0,0.3c0,0.1,0.1,0,0.1,0c0.1,0.1,0.1,0,0.2,0
			C3.8,7.8,3.8,7.9,3.7,8c0,0,0,0-0.1,0C3.5,8,3.5,8.1,3.4,8.1c0,0,0,0,0,0.1c0.1,0,0.3-0.2,0.4,0c-0.1,0-0.2,0-0.3,0.1
			c0,0,0,0,0.1,0.1c-0.2,0-0.3-0.1-0.1,0.2c0,0-0.1,0.1-0.1,0.1c0,0,0.2,0,0.1-0.1c0.1,0,0.4,0.1,0.4,0c0.1-0.1-0.1-0.2-0.2-0.1
			c0,0,0.1-0.1,0-0.1c0-0.1,0-0.1,0.1-0.1c0,0,0,0.1,0,0.1c0.1,0.1,0.2,0,0.2,0C3.7,8.4,4.1,8.5,3.7,8.5c0,0-0.4-0.1-0.2,0
			c0,0,0,0,0,0c0,0,0.1,0.1,0.1,0c-0.1,0-0.1,0.1-0.1,0.1c0,0,0.1,0,0.1,0c0,0,0,0,0,0c-0.1,0-0.1,0-0.1,0c0,0-0.1,0.1-0.1,0.1
			c0,0,0.2,0,0.2,0c0,0-0.2,0.1-0.2,0.1c0,0.1,0.1,0,0.1,0c0,0,0,0.1,0,0.1c0,0,0.1,0,0.1,0c0,0,0,0,0,0c0,0-0.1,0-0.1,0
			c0.1,0,0.2,0,0.3,0c0,0,0,0,0,0c-0.1,0-0.1,0-0.2,0c0,0.1,0.1,0.1,0.1,0c0,0,0,0.1,0,0.1c0.1,0.1,0,0.1,0,0.1c0,0-0.1,0.1-0.1,0.1
			c0,0.1,0.1-0.1,0.2,0.1c0,0-0.1,0-0.1,0c0.5,0.1,0.1,0,0.1,0.1c0.1,0,0.2,0,0.3,0v0c-0.2,0-0.4,0-0.6,0c0,0.1,0.3,0,0.1,0.1
			c0.1,0,0,0,0.1,0c0,0.1-0.1,0.1-0.1,0.1c0,0.1,0,0.1,0.1,0.2c-0.1,0-0.1,0-0.2,0.1c0,0,0,0.1,0.1,0.1c0,0.1-0.1,0-0.2,0
			c0,0.2,0.4,0,0.4,0.1c0,0.2-0.4,0-0.3,0.2c0.1,0,0.4,0,0.4,0c0.2,0.1,0,0.1,0.1,0.2c0,0,0.1,0,0.1,0v0c-0.1,0.1-0.2,0-0.2,0
			c0.1,0,0.1,0,0.1-0.1c-0.1,0-0.2,0.2-0.2,0.2c0.1,0,0,0.1,0,0.1c-0.1,0-0.1,0,0-0.1c0,0-0.1,0-0.1,0c0-0.1,0-0.1,0-0.1
			c-0.1,0.1,0,0.2,0.1,0.4c0,0,0.1-0.1,0.1-0.1c0,0-0.1,0.2-0.1,0.2c0,0,0,0,0,0c0,0,0,0-0.1,0c0,0,0.1,0,0.1,0c0,0,0,0.1-0.1,0.1
			c0,0,0,0,0,0c0,0,0,0,0,0c0.2,0.1,0,0.1,0.2,0.2c0,0-0.1,0-0.1,0c0,0.1,0,0-0.1,0.1c-0.1,0,0.1,0.1,0.2,0.1c0,0-0.1,0.1-0.1,0.1
			c0.1,0,0.1,0,0.1,0c0,0,0.2,0,0.2,0c-0.2,0-0.1,0.1-0.2,0.1c-0.1,0.1,0,0,0,0c0,0,0,0.1-0.1,0.1c-0.2-0.1-0.1-0.1,0,0
			c0,0.1,0,0.1-0.1,0.1c0,0,0,0,0,0.1c0.1,0,0.2,0,0.2-0.1c0.1,0.1,0.1,0.1,0.2,0.1c-0.1,0-0.2,0.1-0.3,0.1c0,0,0.1,0.1,0.1,0.1
			c0.1,0,0.2-0.1,0.3-0.1c0,0,0,0,0,0.1c-0.1,0-0.2,0.1-0.2,0.1c0.1,0.2-0.1,0-0.1,0c0,0.1,0,0.1,0.1,0.2c0,0-0.1,0-0.1,0
			c0.1,0.2,0.4-0.3,0.4-0.1c0,0.1-0.2,0.2-0.3,0.3c0,0.1,0.1,0.2,0.3,0.2c0,0,0,0,0,0c0,0,0,0,0,0c0,0-0.1,0.2-0.2,0.2
			c0.2,0.1,0,0.1,0,0.1c0.1,0-0.2,0.2-0.3,0.2c0,0,0.4,0.1,0.4,0.1c-0.2,0.1-0.4,0.2-0.1,0.3c-0.1,0-0.2,0.1-0.2,0
			c0,0.1,0.1,0,0.2,0.2c-0.1,0-0.1,0-0.1,0c0,0-0.1,0-0.1,0c-0.1,0.2,0.3,0.1,0.3,0.1c0-0.1-0.3,0.1-0.3,0.1c0,0,0.4-0.1,0.3,0
			c-0.1,0-0.3,0-0.4,0c0.1,0,0.1,0,0.2,0c0,0-0.2,0.1-0.1,0.1c0.1,0,0.1,0,0.1,0c-0.1,0-0.1,0-0.1,0.1c0,0,0,0,0.1,0
			c-0.1,0,0,0-0.1,0c0,0,0,0,0,0.1c0,0,0.3,0.1,0.2-0.1c0,0,0.1,0,0.1,0.1c0,0-0.2,0.1-0.2,0.1c0,0,0.1,0.1,0,0.1c0-0.1,0,0-0.1,0
			c0,0.1,0.1,0.1,0.1,0c0,0,0,0,0,0c-0.1,0-0.2,0-0.2,0.1c0,0.1,0.1,0,0.1,0c-0.1,0-0.1,0.1,0,0.1c0,0,0.1,0,0.1,0.1
			c0,0-0.2,0.1-0.2,0.1c0.1,0.1,0,0,0.1,0.1c0,0.1,0.1,0,0,0.1c0,0,0.1,0,0.1,0.1c-0.1,0-0.2,0-0.2,0.2c0,0.2,0,0.2,0.4,0.2
			c0,0,0,0,0,0c-0.2,0.1-0.3,0.1-0.4,0.3c0,0,0.3,0.1,0.3,0c0,0-0.1,0-0.1,0c0,0,0-0.1,0.1,0c0,0,0-0.1,0-0.1c0,0.1,0.3,0.1,0.1,0.2
			c0,0,0.2,0,0.3,0.1c0,0,0-0.1,0.1-0.1c0,0,0,0,0,0V17c-0.1,0-0.4,0-0.4,0c0,0-0.2-0.1-0.2,0c0,0,0.1,0.2,0.1,0.2c0,0-0.1,0-0.1,0
			c0.1,0.2,0,0.7,0,0.8c0,0,0.1,0,0.1,0c0,0,0,0,0.1,0.1c-0.1,0.1,0-0.2-0.2,0c-0.1,0,0.1,0.1,0.1,0.1c0,0-0.1,0-0.1,0.1
			c0.1,0,0.1,0,0.2,0c-0.1,0-0.1,0-0.2,0c0,0.1,0.1,0,0.1,0.1c-0.1,0-0.1,0.4-0.1,0.4c-0.1-0.1,0.3,0,0.3,0c-0.1,0-0.2,0-0.2,0.1
			c0,0.1,0,0.1,0.1,0.1c-0.1,0.2-0.1,0.1-0.1,0.2c-0.2,0.1,0,0.1,0.1,0.1c-0.1,0.1-0.2-0.1-0.2,0.1c0,0,0.3-0.1,0.2,0.1
			c-0.2-0.1,0,0-0.1,0.1c-0.1,0,0-0.1,0-0.1c-0.1,0-0.1,0-0.1,0.1c0,0,0,0,0,0c0,0.1,0,0.2,0,0.2c0-0.1,0-0.1,0.1-0.1
			c0,0-0.2,0.3-0.1,0.3c0,0,0,0,0,0c0,0,0.2,0.1,0.2,0c0,0,0,0,0,0c-0.1,0.1-0.4,0-0.2,0.2h0c0,0,0,0,0,0c0,0,0,0,0,0c0,0,0,0,0,0
			c0,0.1,0,0.2-0.1,0.1c0,0,0,0.1,0,0.1c0,0,0-0.1,0-0.1c-0.1,0-0.2,0.1-0.2,0.2c0,0,0.1,0,0.1,0c0,0-0.1,0-0.1,0
			c0,0.1,0.1,0.1,0.1,0.1c0,0,0,0,0,0c0,0.1,0.1-0.1,0.2-0.2c0,0,0,0,0,0c0,0.1,0,0.1-0.1,0.2c0,0,0.1,0.2,0.1,0.2c0,0,0,0,0,0
			c0,0,0,0,0,0c0,0,0,0,0.1,0.1c0,0,0,0,0,0c0,0,0,0,0,0c0,0,0,0,0,0c0,0,0,0,0,0c0,0,0,0,0,0c0,0,0,0,0,0c0,0,0,0,0,0c0,0,0,0,0,0
			c-0.1,0.1,0,0.5,0,0.4c0,0,0,0,0-0.1c0,0,0,0,0,0c0,0,0,0,0,0c0,0.1,0.1,0.3,0.2,0c0,0,0.1,0,0.1,0.1c0,0,0,0,0,0c0.1,0,0,0,0.1,0
			c0,0,0,0-0.1,0v0c0.2,0,0,0.2,0.1,0.3c0,0,0-0.1,0-0.1c0,0,0,0.2,0,0.2c0,0,0.1,0,0.1,0c0,0,0,0,0,0c-0.1,0,0,0,0,0c0,0,0,0,0,0
			c0,0,0.1,0,0.2,0c0,0,0.1,0.1,0.1,0c0,0,0.1-0.3,0.1-0.4c0,0,0,0,0,0c0,0,0,0,0.1,0c0,0,0,0,0,0v0c0,0,0,0,0,0c0,0,0,0,0,0
			c0-0.2,0.3-0.2,0.2-0.3c0.1,0,0.1,0,0.1,0.1c0,0,0,0,0,0c0,0,0.1,0,0.1,0c0-0.1,0,0,0,0.1c0,0,0.1,0,0.1,0c0,0-0.1,0-0.1,0
			c0,0,0.1,0,0.1,0c0,0,0,0,0,0c0,0,0,0,0,0c0,0,0,0,0,0c0,0,0,0,0.1,0c0.1,0,0.1-0.1,0.1,0c0-0.1,0,0,0,0c0,0.1,0,0.1,0,0.2
			c0,0,0,0,0,0c0,0,0-0.1,0-0.1v0c0,0,0,0,0,0c0,0,0,0,0,0c0,0,0,0,0,0c0,0-0.1,0.2-0.2,0.2c0,0,0.1,0,0.2,0c0,0,0,0,0,0
			c0,0,0,0,0,0c0,0,0,0,0,0c0,0,0,0,0,0c0,0,0,0,0,0h0c0,0,0,0,0,0c0,0,0,0,0,0c0,0,0,0,0,0c0,0,0,0,0,0c0,0,0,0,0,0h0c0,0,0,0,0,0
			c0,0,0,0,0,0c0,0,0,0,0,0h0c0,0,0,0,0,0c0,0,0,0,0,0c0,0,0,0,0,0c0,0,0.2,0,0.2,0c0.1-0.1,0-0.2,0.1-0.3c0,0.2,0.1,0.1,0.2,0.2
			c0-0.1-0.1-0.1,0-0.1c-0.1,0.1,0.2-0.1,0.2-0.1c0,0,0,0.1,0.1,0.1c0,0-0.1,0,0,0c0,0,0,0,0,0c0,0,0,0,0,0c0.1,0,0-0.1,0.1-0.1
			c0,0.1-0.1,0.3-0.1,0.4c0,0,0,0,0,0c0,0,0,0,0,0c0,0,0,0,0.1,0c0-0.1,0-0.1,0-0.2c0,0,0,0.1,0,0.1c0-0.1,0,0,0-0.1
			c-0.1,0,0.1-0.1,0.1-0.2c0.1,0,0.1,0,0.1,0c0,0,0,0,0,0c0,0,0,0,0,0c0,0,0,0,0,0c0,0.2,0.2-0.1,0.2-0.1c0.3-0.1,0.5,0.1,0.5,0.3
			c0-0.5,0.1,0,0.1,0c0,0,0-0.1,0.1-0.1c0,0,0,0.1,0,0.1c0,0,0.1-0.2,0.1-0.2c0,0,0,0,0,0.1c0-0.1-0.1-0.2,0-0.2
			c0,0,0.2,0.3,0.1,0.3c0,0-0.1,0.1,0.1,0.1c0,0,0-0.2,0.1-0.2c0,0.1,0.1,0.1,0.1,0.1c0,0,0-0.1,0.1-0.1c0,0.2,0,0.1,0.1,0.2
			c0.1,0,0-0.2,0-0.2c0-0.2,0.3,0,0.3,0c0.1,0,0-0.1,0-0.1c0.1-0.1,0-0.1,0-0.2c0,0.1,0.1,0.1,0.2,0.2c0,0,0,0,0,0.1
			C8,21.6,8,21.6,8.1,21.7c0,0,0,0,0.1,0c0-0.1-0.2-0.3,0-0.4c0,0.1,0,0.2,0.1,0.3c0,0,0,0,0.1-0.1c0,0.2-0.1,0.3,0.2,0.1
			c0,0,0.1,0.1,0.1,0.1c0,0,0-0.3-0.1-0.1c0-0.1,0.1-0.4,0-0.4c-0.1-0.1-0.2,0.1-0.1,0.2c0,0-0.1-0.1-0.1,0c-0.1,0-0.1,0-0.1-0.1
			c0,0,0.1,0,0.1,0c0.1-0.1,0-0.2,0-0.2c0.1,0.2,0.2-0.2,0.2,0.2c0,0-0.1,0.4,0,0.2c0,0,0,0,0,0c0,0,0.1-0.1,0-0.1
			c0,0.1,0.1,0.1,0.1,0.1c0,0,0-0.1,0-0.1c0,0,0,0,0,0c0,0.1,0,0.1,0,0.1c0,0,0.1,0.1,0.1,0.1c0,0,0-0.2,0-0.2c0,0,0.1,0.2,0.1,0.2
			c0,0,0.1-0.1,0.1-0.1c0,0,0,0,0,0c0,0,0,0.1,0,0.1c0-0.1,0-0.2,0-0.3c0,0,0,0,0,0c0,0.1,0,0.2,0,0.2c0.1,0,0.1-0.1,0-0.1
			c0,0,0.1,0,0.1,0c0.1-0.1,0.1,0,0.1,0c0,0,0,0.1,0,0.1c0,0,0-0.1,0-0.1c0,0.1,0.1,0.1,0.1,0.1c0-0.2,0.1-0.1,0.2-0.1
			c0.1-0.1,0-0.3,0.1-0.5h0c-0.1,0.3,0,0.5,0,0.7c0.1,0,0-0.3,0.1-0.1c0-0.1,0,0,0-0.1c0.1,0,0.1,0.1,0.1,0.1c0.1,0,0.1,0,0.2-0.1
			c0,0.1,0,0.1,0.1,0.2c0,0,0.1,0,0.1-0.1c0.1,0,0,0.1,0,0.2c0.2,0,0-0.4,0.1-0.4c0.2,0,0,0.4,0.2,0.3c0-0.1,0-0.4,0-0.4
			c0.1-0.2,0.1,0,0.2-0.1c0-0.1,0,0,0-0.1c0.2,0,0,0.2,0,0.3c0-0.1,0-0.1-0.1-0.1c0,0.1,0.1,0.2,0.2,0.2c0-0.1,0.1,0,0.1,0
			c0,0.1,0,0.1-0.1,0c0,0,0,0.1,0,0.1c-0.1,0-0.1,0-0.1,0c0.1,0.1,0.2,0,0.4-0.1c0,0-0.1-0.1-0.1-0.1c0,0,0.2,0.1,0.2,0.1
			c0,0,0,0,0,0c0,0,0,0,0,0.1c0,0,0-0.1,0-0.1c0,0,0.1,0,0.1,0.1c0,0,0,0,0,0c0,0,0,0,0,0c0.1-0.2,0.1,0,0.2-0.2c0,0,0,0.1,0,0.1
			c0.1,0,0,0,0.1,0.1c0,0.1,0.1-0.1,0.1-0.2c0,0,0.1,0.1,0.1,0.1c0-0.1,0-0.1,0-0.1c0,0,0-0.2,0-0.2c0,0.2,0.1,0.1,0.1,0.2
			c0.1,0.1,0,0,0,0c0,0,0.1,0,0.1,0.1c-0.1,0.2-0.1,0.1,0,0c0.1,0,0.1,0,0.1,0.1c0,0,0,0,0.1,0c0-0.1,0-0.2-0.1-0.2
			c0.1-0.1,0.1-0.1,0.1-0.2c0,0.1,0.1,0.2,0.1,0.3c0,0,0.1-0.1,0.1-0.1c0-0.1-0.1-0.2-0.1-0.3c0,0,0,0,0.1,0c0,0.1,0.1,0.2,0.1,0.2
			c0.2-0.1,0,0.1,0,0.1c0.1,0,0.1,0,0.2-0.1c0,0,0,0.1,0,0.1c0.2-0.1-0.2-0.2-0.1-0.4c0.1-0.3,0.3,0.3,0.3,0.3c0,0,0.1,0,0.1,0
			c0,0,0,0,0,0c0,0,0,0,0,0c0,0,0,0,0,0c0,0,0,0,0,0c0.1,0,0.1-0.2,0.1-0.3c0,0,0.1,0.1,0.1,0.2c0.1-0.2,0.1,0,0.1,0
			c0-0.1,0.2,0.2,0.2,0.3c0,0,0.1-0.4,0.1-0.4c0.1,0.2,0.2,0.4,0.3,0.1c0,0.1,0.1,0.2,0,0.2c0.1,0,0-0.1,0.1-0.2c0,0.1,0,0.1,0,0.1
			c0,0,0,0.1,0,0.1c0.2,0.1,0.1-0.3,0.1-0.3c-0.1,0,0.1,0.3,0.1,0.3c0,0-0.1-0.4,0-0.3c0,0.1,0,0.3,0,0.4c0-0.1,0-0.1,0-0.2
			c0,0,0.1,0.2,0.1,0.1c0-0.1,0-0.1,0-0.1c0,0.1,0,0.1,0.1,0.1c0,0,0,0,0-0.1c0,0.1,0,0,0,0.1c0,0,0,0,0.1,0c0,0,0.1-0.3-0.1-0.2
			c0,0,0-0.1,0.1-0.1c0,0,0.1,0.2,0.1,0.2c0,0,0.1-0.1,0.1,0c-0.1,0,0,0,0,0.1c0.1,0,0.1-0.1,0-0.1c0,0,0,0,0,0c0,0.1,0,0.2,0.1,0.2
			c0.1,0,0-0.1,0-0.1c0.1,0,0.1,0.1,0.2,0.1c0-0.1,0-0.1,0-0.2c0,0,0.1,0.2,0.1,0.2c0.1-0.1,0,0,0.1-0.1c0.1,0,0-0.1,0.1,0
			c0,0,0-0.1,0.1-0.1c0,0.1,0,0.2,0.2,0.2c0.2,0,0.2,0,0.2-0.4c0,0,0,0,0,0c0.1,0.3,0.1,0.3,0.3,0.4c0,0,0.1-0.3,0-0.3
			c0,0,0,0.1,0,0.1c0,0-0.1,0,0-0.1c0,0-0.1,0-0.1,0c0.1,0,0.1-0.3,0.2-0.1c0,0,0-0.2,0.1-0.3c0,0-0.1,0-0.1-0.1c0,0,0.1,0,0.1-0.1
			c0.1,0,0.1,0.4,0.1,0.5c0,0-0.1,0.2,0,0.2c0,0,0.2-0.1,0.2-0.1c0,0,0,0.1,0,0.1c0.1,0,0.1,0,0.2,0c0,0,0,0,0-0.1c0,0,0,0,0,0.1
			c0.2,0,0.5,0,0.6,0c0,0,0-0.1,0-0.1c0,0,0,0,0.1-0.1c0.1,0.1-0.1,0,0,0.2c0,0.1,0.1-0.1,0.1-0.1c0,0,0,0.1,0.1,0.1
			c0-0.1,0-0.1,0-0.2c0,0.1,0,0.1,0,0.2c0.1,0,0-0.1,0.1-0.1c0,0.1,0.4,0.1,0.4,0.1c-0.1,0.1,0-0.3,0-0.3c0,0.1,0,0.2,0.1,0.2
			c0.1,0,0.1,0,0.1-0.1c0.2,0.1,0.1,0.1,0.2,0.1c0.1,0.2,0.1,0,0.1-0.1c0.1,0.1-0.1,0.2,0.1,0.2c0,0-0.1-0.3,0.1-0.2
			c0,0,0,0.1,0,0.1h0c0,0.1,0,0.1,0.1,0.1c0,0,0,0,0,0c0,0,0,0,0.1,0c0,0,0,0,0-0.1c0,0,0.4,0.2,0.4,0.1c0.1,0,0.1,0,0.2-0.1
			c0,0.1,0,0,0,0l0,0c0,0,0,0,0,0c0,0,0,0,0,0c0,0,0.1,0.1,0.1,0.1c-0.1,0-0.2,0,0,0c0,0-0.1,0-0.1,0c0,0,0.3,0,0.2-0.1c0,0,0,0,0,0
			c0.1,0.1,0.1,0,0.2,0.1c0,0,0,0,0,0c0,0,0,0,0.1,0c0,0,0,0,0-0.1c0,0,0,0,0,0c0,0,0,0,0.1,0c0,0-0.1,0-0.1,0
			c0.1,0,0.1-0.1,0.2-0.1c0,0,0,0-0.1,0c0.1,0,0.1-0.1,0-0.2c0,0,0,0,0,0c0,0,0,0,0,0c0.2,0,0.6,0.2,0.7,0.2c0,0,0,0-0.1,0
			c0,0,0.1,0,0.1,0c0.1,0,0-0.2-0.3,0c0,0-0.1,0-0.1,0c0,0,0,0,0,0l0,0c0,0,0,0,0,0c0,0,0,0,0,0c0,0,0,0,0,0c0,0,0.2,0,0.2-0.1
			c0,0-0.1-0.1-0.1-0.1c0.1-0.1,0.1-0.1,0.1-0.1c0,0,0,0,0,0c0,0,0,0,0,0c0,0,0,0,0,0c0,0,0,0,0,0c0,0,0,0,0,0c0.1,0,0.2,0,0.2,0
			c0,0,0,0,0,0c0,0,0.2,0,0.2,0c0,0-0.1,0-0.1,0c0,0,0.1,0,0.1,0C21.9,21.1,21.9,21.1,21.8,21.1c0,0,0.1,0,0.1,0
			C21.9,21.1,21.8,21.1,21.8,21.1z M21.6,20.3C21.6,20.3,21.6,20.3,21.6,20.3L21.6,20.3C21.6,20.3,21.6,20.3,21.6,20.3z M21.6,20.3
			C21.6,20.3,21.6,20.3,21.6,20.3C21.6,20.3,21.6,20.3,21.6,20.3C21.6,20.3,21.6,20.3,21.6,20.3C21.6,20.4,21.6,20.4,21.6,20.3
			C21.6,20.4,21.6,20.4,21.6,20.3C21.6,20.4,21.6,20.4,21.6,20.3C21.6,20.4,21.6,20.4,21.6,20.3C21.6,20.4,21.6,20.3,21.6,20.3
			C21.6,20.3,21.6,20.3,21.6,20.3z M21.3,20.2C21.3,20.2,21.3,20.2,21.3,20.2C21.3,20.2,21.3,20.2,21.3,20.2
			C21.2,20.2,21.2,20.2,21.3,20.2z M21.6,19.9C21.6,19.9,21.6,19.9,21.6,19.9C21.6,19.9,21.6,19.9,21.6,19.9
			C21.6,19.9,21.6,19.9,21.6,19.9C21.6,19.9,21.6,19.9,21.6,19.9C21.6,20,21.6,20,21.6,19.9C21.6,20,21.6,20,21.6,19.9
			C21.6,20,21.6,20,21.6,19.9C21.6,20,21.6,19.9,21.6,19.9z M21.5,16.1C21.5,16.1,21.6,16.2,21.5,16.1
			C21.4,16.1,21.5,16.1,21.5,16.1z M21.2,12.3C21.2,12.3,21.2,12.3,21.2,12.3C21.2,12.3,21.1,12.3,21.2,12.3
			C21.1,12.3,21.1,12.3,21.2,12.3z M21.5,9.8C21.5,9.9,21.5,9.9,21.5,9.8C21.5,9.9,21.5,9.9,21.5,9.8z M21.6,4.3
			C21.6,4.3,21.6,4.3,21.6,4.3C21.6,4.3,21.6,4.3,21.6,4.3z M21.5,4.1C21.5,4.1,21.5,4.1,21.5,4.1C21.5,4,21.6,4,21.5,4.1z
			 M21.5,3.7L21.5,3.7C21.5,3.7,21.5,3.7,21.5,3.7C21.5,3.6,21.5,3.6,21.5,3.7C21.5,3.6,21.5,3.7,21.5,3.7
			C21.5,3.7,21.5,3.7,21.5,3.7z M21.1,7.9C21.1,7.9,21.1,7.9,21.1,7.9c0,0-0.1-0.1,0-0.2C21.2,7.8,21.2,7.9,21.1,7.9z M21.1,7.6
			C21.1,7.6,21.1,7.6,21.1,7.6c0.1-0.1,0-0.1,0.1-0.2c0.3-0.2,0.1,0.1,0.2,0.1c0,0-0.1,0.1-0.1,0.1C21.3,7.5,21.2,7.5,21.1,7.6
			c0.1,0,0.1,0,0.1-0.1C21.2,7.6,21.1,7.6,21.1,7.6z M21,6.8C21,6.8,21.1,6.8,21,6.8C21.1,6.8,21,6.8,21,6.8z M21,7.3
			C21,7.3,21,7.3,21,7.3C21,7.3,21,7.3,21,7.3z M21.2,6.9c0.1,0.1,0.1,0,0.2,0C21.3,6.9,21.2,7,21.2,6.9c0,0.1,0,0.1,0,0.1
			C21.1,7,21,6.9,21,6.9C21.1,6.9,21.2,6.9,21.2,6.9z M21.2,7.1C21.2,7.1,21.1,7.1,21.2,7.1C21.2,7.1,21.2,7.1,21.2,7.1z M21.3,7.8
			C21.3,7.8,21.3,7.9,21.3,7.8C21.3,7.8,21.3,7.8,21.3,7.8C21.3,7.8,21.3,7.8,21.3,7.8z M21.4,8c-0.1,0-0.1,0-0.2-0.1
			C21.2,7.9,21.3,7.9,21.4,8z M21.4,8C21.4,8,21.4,8,21.4,8C21.4,8,21.4,8,21.4,8z M21.5,7.2C21.4,7.2,21.5,7.2,21.5,7.2
			C21.4,7.3,21.5,7.3,21.5,7.2c-0.1,0.1-0.1,0.1-0.2,0.1C21.4,7.2,21.4,7.2,21.5,7.2C21.4,7.2,21.4,7.2,21.5,7.2z M21.3,6.8
			c0,0.1-0.1,0-0.2,0c0,0,0,0,0,0C21.2,6.7,21.3,6.8,21.3,6.8c0-0.1-0.1-0.1-0.1-0.2c0,0,0.3-0.1,0.3,0c0,0,0,0-0.1,0
			C21.5,6.7,21.6,6.7,21.3,6.8z M21,5.8c0,0,0.1,0,0.1,0C21.2,5.8,21.1,5.9,21,5.8z M21.3,6.1C21.2,6.1,21.2,6.1,21.3,6.1
			C21.2,6,21.2,6.1,21.3,6.1z M21.2,6C21.3,6,21.2,6,21.2,6C21.2,6,21.2,6,21.2,6z M21.4,6.4C21.4,6.4,21.4,6.4,21.4,6.4
			C21.3,6.4,21.3,6.4,21.4,6.4C21.2,6.4,21.4,6.3,21.4,6.4z M21.3,6.2c0,0.1,0.1,0.1,0.2,0.1C21.4,6.4,21.3,6.3,21.3,6.2
			C21.3,6.2,21.3,6.2,21.3,6.2z M21.4,5.7C21.4,5.7,21.3,5.8,21.4,5.7c-0.1,0.1-0.1,0.1-0.2,0.1c0,0-0.1,0.1,0,0.1c0,0-0.1,0,0,0
			c0,0,0,0,0,0c0,0-0.1,0-0.1,0c0,0,0.1,0,0.1-0.1c-0.1-0.1,0.1-0.1,0.1-0.2c0,0-0.1-0.1-0.1-0.1c0,0,0.1-0.1,0.1-0.1
			C21.4,5.6,21.4,5.6,21.4,5.7C21.4,5.7,21.4,5.7,21.4,5.7z M21.5,5.3c0,0,0,0-0.1,0c0,0,0,0,0-0.1C21.4,5.3,21.4,5.3,21.5,5.3z
			 M21.2,4c0.1,0,0.1,0,0.2,0C21.4,4,21.3,4.1,21.2,4C21.3,4,21.2,4,21.2,4z M21,4C21,4,21,4,21,4C21,4,21,4.1,21,4L21,4z M21,4.1
			c0,0.1,0.1,0.1,0.1,0.1c0,0.1,0,0.1,0,0.1c0,0,0,0,0,0h0c0,0-0.1,0-0.2,0V4.1z M21,4.7C21,4.7,21,4.7,21,4.7c0,0,0.2-0.3,0.1,0
			C21.1,4.7,21,4.7,21,4.7L21,4.7z M21.1,5C21.1,4.9,21.1,4.9,21.1,5c0-0.1,0-0.1,0-0.1C21.1,4.8,21.2,4.9,21.1,5z M21,4.9
			C21,4.9,21,4.9,21,4.9C21,4.9,21,4.9,21,4.9C21,4.9,21,4.9,21,4.9L21,4.9z M21,5.1c0.1,0,0.1,0,0.2,0.1c0,0-0.1,0.1-0.1,0.1
			C21.1,5.2,21.1,5.2,21,5.1L21,5.1z M21,5.5c0-0.1,0.4-0.1,0.4,0c-0.1,0-0.1,0,0,0c0,0,0,0,0,0C21.4,5.5,21.1,5.5,21,5.5
			C21.1,5.5,21.1,5.6,21,5.5C21,5.6,21,5.5,21,5.5L21,5.5z M21,5.7C21,5.7,21.1,5.7,21,5.7C21,5.8,21,5.7,21,5.7L21,5.7z M21,6
			C21,6,21,6,21,6C21,6,21,6,21,6L21,6z M21,6.1C21,6.1,21.1,6.1,21,6.1C21.1,6.2,21,6.2,21,6.1L21,6.1z M21,6.3c0,0,0.1,0,0.1,0
			C21.1,6.4,21,6.4,21,6.3L21,6.3z M21,7.4C21,7.3,21,7.3,21,7.4C21,7.2,21.1,7.3,21,7.4L21,7.4z M21,14c0.1,0,0.1,0,0.2,0
			C21.1,14,21.1,14,21,14C21,14.1,21.1,14,21,14z M21,13.3c0-0.1,0.2,0,0.2,0c0,0,0,0.1-0.1,0.1c0,0,0.1,0,0.1,0
			c0,0-0.1,0.1-0.1,0.2C20.9,13.5,21.1,13.3,21,13.3z M21.1,10.1C21.1,10.1,21,10.1,21.1,10.1C21.1,10,21.2,10,21.1,10.1
			C21.2,10.1,21.1,10.1,21.1,10.1z M21.2,11.1C21.2,11.2,21.2,11.1,21.2,11.1C21.2,11.1,21.2,11.1,21.2,11.1z M21.1,10.9
			C21.1,11,21.1,11,21.1,10.9C21.1,11,21.1,11,21.1,10.9C21.1,11,21,10.9,21.1,10.9z M21.4,13.8C21.4,13.8,21.4,13.8,21.4,13.8
			c0,0-0.1,0-0.1,0C21.2,13.7,21.4,13.8,21.4,13.8z M21.3,13.5C21.3,13.5,21.3,13.5,21.3,13.5C21.3,13.5,21.3,13.5,21.3,13.5z
			 M21.2,13.7C21.2,13.7,21.2,13.7,21.2,13.7C21.3,13.7,21.3,13.7,21.2,13.7z M21.2,14C21.1,14,21.1,14,21.2,14
			C21.1,13.9,21.1,14,21.2,14z M21.2,13.9C21.2,13.9,21.2,13.9,21.2,13.9C21.2,13.9,21.2,13.9,21.2,13.9z M21.2,14.3
			C21.2,14.3,21.2,14.3,21.2,14.3C21.2,14.3,21.2,14.3,21.2,14.3C21.3,14.3,21.3,14.3,21.2,14.3C21.2,14.3,21.2,14.3,21.2,14.3z
			 M21.5,14.1C21.5,14.2,21.4,14.1,21.5,14.1c-0.1,0-0.1,0.1-0.2,0.1c0,0,0-0.1,0-0.1C21.3,14.1,21.4,14.1,21.5,14.1z M21.2,14
			C21.2,14.1,21.2,14,21.2,14c0,0,0.2-0.2,0.2-0.1C21.4,14,21.3,14,21.2,14z M21.5,13.7c-0.1,0-0.2,0-0.2-0.1
			C21.3,13.7,21.4,13.7,21.5,13.7z M21.5,13.5C21.4,13.5,21.4,13.4,21.5,13.5C21.5,13.3,21.5,13.5,21.5,13.5z M21.3,13.3
			c0,0,0.1,0.1,0.1,0.1C21.4,13.4,21.3,13.5,21.3,13.3C21.3,13.4,21.3,13.4,21.3,13.3z M21.3,13C21.3,13,21.3,13,21.3,13
			C21.3,13,21.3,12.9,21.3,13z M21.3,12.8C21.3,12.8,21.3,12.9,21.3,12.8C21.2,12.8,21.3,12.8,21.3,12.8z M21.2,13.1
			C21.2,13,21.2,13,21.2,13.1C21.2,12.7,21.2,13,21.2,13.1z M21.1,12.7C21.2,12.7,21.1,12.7,21.1,12.7c0,0.1-0.1,0.2-0.1,0.1
			C21.1,12.8,21.1,12.7,21.1,12.7C21.1,12.7,21.1,12.7,21.1,12.7z M21.5,11.8C21.5,11.8,21.5,11.8,21.5,11.8c-0.2,0.1,0,0.1-0.3,0
			c0.1,0,0-0.1,0-0.1C21.4,11.7,21.3,11.9,21.5,11.8z M21.3,11.3C21.3,11.3,21.3,11.2,21.3,11.3c0,0,0.1-0.1,0.1-0.1
			C21.3,11.2,21.4,11.3,21.3,11.3c0,0-0.1,0-0.2,0C21.1,11.2,21.3,11.2,21.3,11.3z M21.4,10.6C21.5,10.7,21.4,10.6,21.4,10.6
			C21.4,10.7,21.4,10.6,21.4,10.6z M21.4,10.8C21.4,10.8,21.4,10.8,21.4,10.8C21.4,10.9,21.2,10.8,21.4,10.8
			C21.3,10.8,21.3,10.8,21.4,10.8z M21.3,9.8C21.3,9.8,21.3,9.8,21.3,9.8C21.2,9.8,21.2,9.8,21.3,9.8C21.2,9.8,21.3,9.8,21.3,9.8
			C21.3,9.8,21.3,9.8,21.3,9.8z M21.3,9.1C21.3,9.1,21.3,9.1,21.3,9.1C21.3,9.2,21.2,9.1,21.3,9.1C21.2,9.1,21.3,9.1,21.3,9.1z
			 M21.3,8.9C21.3,8.9,21.2,9,21.3,8.9C21.1,8.9,21.3,8.9,21.3,8.9z M21.3,9.7C21.3,9.6,21.3,9.6,21.3,9.7
			C21.3,9.6,21.3,9.6,21.3,9.7C21.4,9.6,21.4,9.6,21.3,9.7C21.4,9.6,21.4,9.6,21.3,9.7C21.4,9.6,21.4,9.6,21.3,9.7
			C21.4,9.7,21.4,9.7,21.3,9.7z M21.5,8.8C21.5,8.8,21.5,8.8,21.5,8.8C21.5,8.8,21.5,8.8,21.5,8.8z M21.4,8.8
			C21.4,8.8,21.4,8.8,21.4,8.8C21.4,8.7,21.5,8.8,21.4,8.8z M21.5,9.4C21.5,9.4,21.5,9.4,21.5,9.4c0,0.1,0,0.1,0,0.1
			C21.4,9.5,21.3,9.4,21.5,9.4C21.4,9.4,21.4,9.4,21.5,9.4z M21.3,8.7C21.3,8.7,21.3,8.7,21.3,8.7C21.4,8.8,21.3,8.7,21.3,8.7
			C21.3,8.7,21.3,8.7,21.3,8.7z M21.3,8.8c0,0-0.2,0-0.2-0.1C21.2,8.7,21.2,8.7,21.3,8.8z M21.1,8.4C21,8.4,21,8.3,21.1,8.4
			C21.1,8.3,21.1,8.3,21.1,8.4z M21,8.5C21,8.5,21,8.5,21,8.5C21,8.4,21,8.5,21,8.5C21.1,8.5,21.1,8.5,21,8.5c0.2,0,0.2,0,0.2,0.1
			c0,0-0.2,0.1-0.2,0.1c0,0,0,0,0,0V8.5z M21,8.7C21,8.7,21,8.7,21,8.7C21.1,8.7,21.1,8.7,21,8.7z M21,9.1C21,9.1,21.1,9.1,21,9.1
			c0.1,0,0.1-0.1,0.1-0.1C21,9,21,9,21,9V8.8c0.1,0,0.1-0.1,0.1,0c0,0,0,0,0,0.1c0,0,0,0,0,0c0,0,0,0,0,0c0,0,0,0,0,0c0,0,0,0,0,0
			c0,0,0,0.1,0.1,0.2c-0.1,0-0.1,0-0.2,0.1V9.1z M21.2,9.3c0,0-0.2,0-0.1-0.1C21,9.2,21.2,9.3,21.2,9.3z M21,9.4
			c0.1,0,0.2-0.1,0.2-0.1c-0.1,0.1-0.2,0.2-0.2,0.3V9.4z M21,9.6c0,0,0.1,0,0.1,0C21,9.7,21.1,9.7,21,9.6C21.1,9.7,21,9.7,21,9.6
			L21,9.6z M21,10.2C21,10.2,21.1,10.2,21,10.2C21,10.2,21,10.2,21,10.2L21,10.2z M21,10.5C21,10.5,21,10.5,21,10.5
			C21.1,10.5,21,10.5,21,10.5L21,10.5z M21,10.6C21,10.6,21,10.6,21,10.6C21.1,10.7,21,10.6,21,10.6L21,10.6z M21,10.7
			C21,10.7,21,10.7,21,10.7C21,10.8,21,10.8,21,10.7L21,10.7z M21,10.8C21,10.8,21,10.8,21,10.8C21,10.8,21,10.8,21,10.8L21,10.8z
			 M21,14.3C21.1,14.3,21.1,14.3,21,14.3C21.1,14.3,21.1,14.3,21,14.3C21,14.3,21,14.3,21,14.3C21,14.3,21,14.3,21,14.3L21,14.3z
			 M21.1,15.4c-0.1,0,0.1-0.1,0.1,0C21.2,15.4,21.2,15.4,21.1,15.4z M21.1,15.2c0.1,0,0.1,0,0.2-0.1c0,0,0,0,0,0c0-0.1,0.2,0,0.1,0
			C21.3,15.2,21.2,15.2,21.1,15.2z M21.1,14.8C21.1,14.8,21.1,14.8,21.1,14.8C21.1,14.8,21.1,14.8,21.1,14.8z M21,14.9
			c0-0.1,0.3,0,0.3,0c0.1,0,0,0,0.2,0c0,0.1-0.2,0.1-0.2,0.2C21.3,15,21,15,21,14.9L21,14.9z M3.1,4c0-0.1,0-0.1,0-0.1
			C3.1,4,3.2,4,3.1,4z M3.3,4.8C3.3,4.8,3.4,4.8,3.3,4.8C3.4,4.8,3.4,4.8,3.3,4.8C3.4,4.9,3.4,4.8,3.3,4.8z M3.4,4.8L3.4,4.8
			C3.4,4.8,3.4,4.8,3.4,4.8C3.4,4.8,3.4,4.8,3.4,4.8z M3.4,4.9C3.4,4.8,3.4,4.8,3.4,4.9C3.4,4.8,3.4,4.8,3.4,4.9
			C3.4,4.8,3.4,4.8,3.4,4.9C3.4,4.8,3.4,4.8,3.4,4.9C3.4,4.8,3.4,4.8,3.4,4.9C3.4,4.8,3.4,4.8,3.4,4.9c0-0.1,0-0.1,0-0.1
			C3.5,4.7,3.5,4.8,3.4,4.9c0.1-0.1,0.1-0.1,0.1-0.1C3.5,4.8,3.4,4.9,3.4,4.9z M3.6,5.2C3.6,5.2,3.6,5.2,3.6,5.2L3.6,5.2
			C3.6,5.2,3.6,5.2,3.6,5.2z M3.3,5.2C3.4,5.1,3.4,5.1,3.3,5.2C3.4,5.1,3.4,5.2,3.3,5.2z M3.5,5.3c0.1,0,0.1-0.1,0.1-0.1
			c0,0,0,0.1,0.1,0.1C3.7,5.3,3.5,5.4,3.5,5.3z M3.6,6C3.6,6,3.6,6,3.6,6C3.6,6,3.6,6,3.6,6C3.6,6,3.6,6,3.6,6z M3.5,9
			C3.5,9,3.4,8.9,3.5,9C3.5,9,3.5,9,3.5,9z M3.9,9.7c0.1,0-0.1,0.1-0.1,0C3.8,9.7,3.8,9.7,3.9,9.7z M3.9,9.8c-0.1,0-0.1,0-0.2,0.1
			c0,0,0,0,0,0c0,0.1-0.2,0-0.1,0C3.6,9.9,3.8,9.8,3.9,9.8z M3.8,10.3C3.9,10.3,3.9,10.3,3.8,10.3C3.9,10.3,3.8,10.3,3.8,10.3z
			 M3.7,10.2c-0.1,0,0,0-0.2,0c0-0.1,0.2-0.1,0.2-0.2c0,0.1,0.3,0.1,0.3,0.1C4,10.2,3.7,10.2,3.7,10.2z M3.5,13.2
			C3.6,13.2,3.6,13.2,3.5,13.2c0.1-0.1,0.1,0,0.2,0.1c0,0,0,0,0,0.1C3.7,13.3,3.6,13.2,3.5,13.2z M3.5,15.2
			C3.4,15.2,3.5,15.2,3.5,15.2C3.5,15.2,3.5,15.2,3.5,15.2z M4.2,3.3C4.2,3.3,4.2,3.3,4.2,3.3C4.2,3.3,4.2,3.3,4.2,3.3
			C4.2,3.3,4.2,3.3,4.2,3.3z M4.1,3.4C4.1,3.4,4.1,3.5,4.1,3.4C4,3.4,4.1,3.5,4.1,3.4z M4,3.6c0,0.1,0.1,0.1,0.1,0.2
			c0,0-0.1-0.1-0.1,0C4,3.7,4,3.6,4,3.6z M3.7,3.9c-0.1,0-0.1,0.1,0,0.2c-0.2,0.1-0.2-0.3,0-0.3c0,0.1,0,0.2,0.1,0.2
			c0,0-0.1,0.1-0.1,0.1C3.8,4.1,3.7,3.9,3.7,3.9z M3.8,4.4C3.9,4.4,3.8,4.4,3.8,4.4C3.9,4.4,3.8,4.4,3.8,4.4
			C3.8,4.4,3.8,4.4,3.8,4.4C3.8,4.4,3.8,4.4,3.8,4.4C3.9,4.4,3.9,4.3,3.8,4.4C3.9,4.3,4,4.4,4,4.4v0C4,4.4,3.9,4.5,3.8,4.4
			C3.8,4.4,3.8,4.4,3.8,4.4z M3.9,7C4,7.1,4,7.1,3.9,7C4,7,4,7.2,3.9,7C3.9,7,3.9,7,3.9,7z M3.9,6.6C3.9,6.6,4,6.5,3.9,6.6
			C4,6.6,3.9,6.6,3.9,6.6z M4,7.4C4,7.4,4,7.4,4,7.4L4,7.4C4,7.4,4,7.5,4,7.4C4,7.5,4,7.5,4,7.4C4,7.4,4,7.4,4,7.4z M4,6.9
			C4,6.9,4,6.9,4,6.9L4,6.9C4,6.9,4,6.9,4,6.9z M4,6.5C4,6.5,4,6.5,4,6.5L4,6.5C4,6.5,4,6.5,4,6.5z M3.9,6.2
			C3.9,6.2,3.8,6.3,3.9,6.2c0.1,0,0.1,0,0.1,0.1v0.1C3.9,6.3,3.8,6.3,3.9,6.2z M3.8,5.6C3.8,5.6,3.8,5.6,3.8,5.6
			C3.7,5.7,3.8,5.7,3.8,5.6z M3.9,7.2C3.8,7.2,3.8,7.2,3.9,7.2C3.8,7.2,3.8,7.2,3.9,7.2C3.8,7.1,3.8,7.1,3.9,7.2z M3.9,6
			C3.9,6,3.9,6,3.9,6C3.9,6,3.9,6,3.9,6C3.9,6,3.9,6,3.9,6z M4,5.9C4,5.9,4,5.9,4,5.9L4,5.9C4,5.9,4,5.9,4,5.9z M4,5.5
			C4,5.5,3.9,5.5,4,5.5C3.9,5.6,3.9,5.6,4,5.5c-0.1,0-0.1,0-0.2,0C3.9,5.5,4,5.5,4,5.5L4,5.5C4,5.5,4,5.5,4,5.5z M3.9,4.6
			C3.9,4.6,3.9,4.6,3.9,4.6C3.9,4.6,3.9,4.6,3.9,4.6z M3.8,4.9C3.8,5,3.9,5,3.8,4.9c0.1,0.1,0,0.1,0,0.1C3.8,5,3.8,5,3.8,4.9z
			 M3.8,5.3C3.8,5.3,3.8,5.4,3.8,5.3C3.8,5.3,3.8,5.3,3.8,5.3z M3.7,6.8C3.7,6.8,3.7,6.8,3.7,6.8C3.7,6.8,3.7,6.8,3.7,6.8
			C3.7,6.7,3.7,6.7,3.7,6.8c-0.1,0-0.1,0-0.2,0C3.6,6.7,3.7,6.7,3.7,6.8C3.8,6.7,3.8,6.8,3.7,6.8C3.8,6.8,3.8,6.8,3.7,6.8
			C3.8,6.9,3.7,6.9,3.7,6.8z M3.6,7.2C3.6,7.1,3.6,7.2,3.6,7.2C3.6,7.2,3.6,7.2,3.6,7.2z M3.7,7.3C3.7,7.3,3.7,7.3,3.7,7.3
			C3.7,7.3,3.7,7.3,3.7,7.3z M3.7,7.3C3.7,7.3,3.7,7.3,3.7,7.3C3.8,7.3,3.7,7.3,3.7,7.3C3.7,7.3,3.7,7.3,3.7,7.3z M3.7,7.6
			C3.8,7.6,3.7,7.6,3.7,7.6C3.8,7.6,3.8,7.6,3.7,7.6z M3.8,7.3C3.8,7.3,3.8,7.2,3.8,7.3C3.9,7.3,3.9,7.3,3.8,7.3z M3.9,7.5
			C3.9,7.5,3.9,7.5,3.9,7.5C3.9,7.5,3.9,7.5,3.9,7.5z M3.9,8.9c0,0-0.1-0.1,0-0.1C3.9,8.8,3.9,8.9,3.9,8.9z M3.8,8.9
			c0,0.1,0,0.1,0,0.1C3.8,8.9,3.8,8.9,3.8,8.9C3.8,8.9,3.8,8.9,3.8,8.9z M3.5,8.7c0.1,0,0.1-0.1,0.2-0.1c0,0-0.1,0-0.1-0.1
			c0,0,0.1,0,0.1,0C3.7,8.7,3.7,8.8,3.5,8.7z M3.8,9.3C3.7,9.3,3.7,9.3,3.8,9.3C3.7,9.3,3.7,9.3,3.8,9.3C3.8,9.3,3.8,9.2,3.8,9.3
			C3.8,9.2,3.8,9.2,3.8,9.3c0-0.1,0.1-0.1,0-0.3c0,0,0.2,0,0.3,0.1v0.1C3.9,9.2,3.9,9.2,3.8,9.3z M4,9.3L4,9.3C4,9.3,4,9.3,4,9.3
			C4,9.3,4,9.3,4,9.3z M3.9,9.3C3.9,9.3,3.9,9.4,3.9,9.3C3.9,9.3,3.9,9.3,3.9,9.3z M3.8,9.5C3.8,9.5,3.8,9.5,3.8,9.5
			C3.9,9.5,4,9.4,4,9.4c0,0-0.1-0.1-0.1-0.1c0,0,0.1,0,0.2,0.1v0.1C3.9,9.6,3.9,9.5,3.8,9.5z M3.9,10.8C3.9,10.8,3.9,10.8,3.9,10.8
			C4,10.8,4,10.8,3.9,10.8L3.9,10.8C4,10.8,3.8,10.8,3.9,10.8C3.9,10.8,3.9,10.8,3.9,10.8z M3.8,16.2C3.8,16.2,3.8,16.3,3.8,16.2
			C3.9,16.1,3.9,16.1,3.8,16.2c0.1-0.1,0.1-0.1,0-0.1c0-0.1,0.1,0,0.1,0v0.1C3.9,16.3,3.8,16.3,3.8,16.2z M4,16.4
			C3.9,16.4,3.9,16.4,4,16.4C3.9,16.4,3.9,16.4,4,16.4z M3.9,16.1C3.9,16.1,3.9,16.1,3.9,16.1C3.9,16.1,3.9,16.1,3.9,16.1z
			 M3.8,15.9c0.1,0,0.2,0,0.2-0.1V16C3.9,16,3.8,16,3.8,15.9z M3.8,15.8C3.8,15.8,3.8,15.8,3.8,15.8c0.1,0,0.2,0,0.1,0.1
			C3.9,15.9,3.8,15.8,3.8,15.8z M3.7,15.7c0,0,0.1-0.2,0.1-0.2c0,0,0.1-0.1,0.1-0.1v0.2C4,15.7,3.8,15.7,3.7,15.7z M3.8,16.1
			C3.8,16.1,3.7,16.2,3.8,16.1C3.7,16.2,3.7,16.1,3.8,16.1z M3.7,16C3.7,15.9,3.7,16,3.7,16C3.7,16,3.7,16,3.7,16
			C3.7,16,3.7,16,3.7,16z M3.8,11.7c0,0,0.1-0.1,0.1-0.2c0.2,0-0.1,0.2,0.1,0.3C3.9,11.9,3.8,11.8,3.8,11.7
			C3.8,11.7,3.8,11.7,3.8,11.7C3.8,11.7,3.8,11.7,3.8,11.7z M3.6,11.3C3.6,11.3,3.6,11.3,3.6,11.3c0,0,0.1,0,0.1,0
			C3.7,11.4,3.6,11.3,3.6,11.3z M3.7,11.5C3.7,11.6,3.7,11.6,3.7,11.5C3.7,11.6,3.7,11.5,3.7,11.5z M3.8,11.4
			C3.8,11.4,3.7,11.4,3.8,11.4C3.7,11.4,3.7,11.4,3.8,11.4z M3.8,11.1C3.9,11.1,3.9,11.1,3.8,11.1C3.8,11.1,3.8,11.1,3.8,11.1z
			 M3.9,14.1C3.9,14.1,3.9,14.2,3.9,14.1c-0.1,0-0.1,0-0.1,0C3.9,14.1,3.9,14.1,3.9,14.1z M3.9,15c0,0.1-0.1,0.1-0.1,0
			C3.8,15,3.9,15,3.9,15z M3.7,14C3.8,13.9,3.8,14,3.7,14C3.8,14,3.8,14,3.7,14z M3.9,15.4C4,15.4,3.9,15.4,3.9,15.4
			c0,0,0.1-0.1,0.1-0.1v0.1C4,15.5,3.9,15.4,3.9,15.4z M4,14.9C4,14.9,4,14.8,4,14.9L4,14.9C4,14.9,3.9,14.8,4,14.9z M3.9,14.6
			C3.9,14.6,4,14.6,3.9,14.6L3.9,14.6C4,14.6,4,14.6,3.9,14.6z M4,14.5C4,14.5,4,14.4,4,14.5L4,14.5C4,14.5,4,14.5,4,14.5z M4,14.3
			C4,14.3,3.9,14.3,4,14.3C4,14.3,4,14.3,4,14.3L4,14.3C4,14.3,4,14.3,4,14.3z M4,14.3C4,14.3,4,14.3,4,14.3C4,14.3,4,14.3,4,14.3
			L4,14.3C4,14.3,4,14.3,4,14.3z M3.9,11C4,11,3.9,11.1,3.9,11C3.9,11.1,3.9,11.1,3.9,11C3.9,11.1,3.9,11.1,3.9,11z M3.8,11.2
			C3.8,11.2,3.8,11.2,3.8,11.2C3.8,11.2,3.8,11.2,3.8,11.2z M3.8,10.8C3.8,10.8,3.8,10.8,3.8,10.8C3.8,10.8,3.7,10.8,3.8,10.8
			C3.7,10.8,3.7,10.8,3.8,10.8C3.7,10.8,3.8,10.8,3.8,10.8z M3.5,11C3.5,10.9,3.6,11,3.5,11c0.1,0,0.1-0.1,0.2-0.1c0,0,0,0.1,0,0.1
			C3.7,11,3.6,11,3.5,11z M3.8,11.1C3.8,11,3.8,11.1,3.8,11.1c0,0-0.2,0.2-0.2,0.1C3.6,11.1,3.7,11.1,3.8,11.1z M3.5,11.4
			c0.1,0,0.2,0,0.2,0.1C3.7,11.4,3.6,11.4,3.5,11.4z M3.5,11.6C3.5,11.6,3.6,11.7,3.5,11.6C3.5,11.8,3.5,11.6,3.5,11.6z M3.7,11.8
			c0,0-0.1-0.1-0.1-0.1C3.6,11.7,3.7,11.6,3.7,11.8C3.7,11.7,3.7,11.7,3.7,11.8z M3.6,12.1C3.6,12.1,3.6,12.1,3.6,12.1
			C3.7,12.1,3.7,12.2,3.6,12.1z M3.7,12.3C3.7,12.2,3.7,12.2,3.7,12.3C3.7,12.3,3.7,12.3,3.7,12.3z M3.7,12
			C3.8,12.1,3.8,12.1,3.7,12C3.8,12.3,3.7,12.1,3.7,12z M3.8,12.4C3.8,12.4,3.9,12.4,3.8,12.4c0-0.1,0.1-0.2,0.1-0.1
			C3.9,12.3,3.9,12.3,3.8,12.4C3.9,12.4,3.9,12.4,3.8,12.4z M3.8,12.8C3.8,12.8,3.8,12.8,3.8,12.8C3.8,12.8,3.9,12.8,3.8,12.8
			C3.9,12.8,3.8,12.8,3.8,12.8z M3.7,13.8C3.7,13.8,3.7,13.8,3.7,13.8c0,0-0.1,0.1-0.1,0.1C3.7,13.9,3.6,13.8,3.7,13.8
			c0,0,0.1,0,0.2,0C3.9,13.9,3.7,13.9,3.7,13.8z M3.6,14.5C3.5,14.4,3.6,14.5,3.6,14.5C3.6,14.4,3.6,14.5,3.6,14.5z M3.6,14.3
			C3.6,14.3,3.6,14.3,3.6,14.3C3.6,14.2,3.8,14.3,3.6,14.3C3.7,14.3,3.6,14.3,3.6,14.3z M3.7,15.3C3.7,15.3,3.7,15.3,3.7,15.3
			C3.7,15.3,3.7,15.3,3.7,15.3C3.7,15.3,3.7,15.3,3.7,15.3C3.7,15.3,3.7,15.3,3.7,15.3z M3.6,15.4C3.6,15.4,3.6,15.4,3.6,15.4
			C3.6,15.4,3.6,15.4,3.6,15.4C3.7,15.5,3.7,15.5,3.6,15.4C3.6,15.5,3.6,15.5,3.6,15.4C3.6,15.5,3.6,15.5,3.6,15.4
			C3.6,15.5,3.6,15.5,3.6,15.4z M3.5,16.3C3.5,16.3,3.5,16.3,3.5,16.3C3.5,16.3,3.5,16.3,3.5,16.3z M3.5,16.3
			C3.6,16.3,3.6,16.3,3.5,16.3C3.6,16.4,3.5,16.3,3.5,16.3z M3.5,15.7C3.5,15.7,3.5,15.7,3.5,15.7c0-0.1,0-0.1,0-0.1
			C3.6,15.6,3.7,15.6,3.5,15.7C3.6,15.7,3.6,15.7,3.5,15.7z M3.6,16.4C3.6,16.4,3.6,16.4,3.6,16.4C3.6,16.3,3.7,16.4,3.6,16.4
			C3.7,16.4,3.7,16.4,3.6,16.4z M3.7,16.3c0,0,0.2,0,0.2,0.1C3.8,16.4,3.8,16.4,3.7,16.3z M3.9,16.7C4,16.7,4,16.8,3.9,16.7
			C3.9,16.8,3.9,16.8,3.9,16.7z M4,16.6C4,16.7,3.9,16.6,4,16.6C3.9,16.6,3.9,16.6,4,16.6c-0.2,0-0.2,0-0.2-0.1c0,0,0.2-0.1,0.2-0.1
			c0,0,0,0,0.1,0L4,16.6C4,16.6,4,16.6,4,16.6z M4,21C4,21,4,21.1,4,21c0.1-0.1-0.1-0.1-0.2-0.1c0,0,0-0.1,0-0.1c0,0,0.1,0,0.1,0
			L4,21L4,21z M3.7,19.6C3.7,19.6,3.7,19.6,3.7,19.6c0,0,0.2,0,0.3,0c0,0,0-0.1,0-0.1C4.1,19.7,3.6,19.7,3.7,19.6
			C3.7,19.6,3.7,19.6,3.7,19.6z M3.9,19.1C3.9,19.1,4,19.1,3.9,19.1L3.9,19.1C4,19.2,4,19.1,3.9,19.1z M4,19.4L4,19.4
			c0,0.1-0.1,0-0.1,0C3.9,19.3,3.9,19.4,4,19.4z M3.9,18.9C3.9,18.9,3.9,18.9,3.9,18.9L3.9,18.9C4,19,3.9,19,3.9,18.9z M4,19.3
			c0,0-0.1,0-0.1,0C3.8,19.3,3.9,19.2,4,19.3z M4,19.9L4,19.9C4,20,3.9,20,3.9,20c-0.1,0-0.1-0.1-0.1-0.1C3.9,19.9,3.9,19.9,4,19.9z
			 M4,20.2C4,20.2,4,20.2,4,20.2L4,20.2C4,20.2,4,20.2,4,20.2z M4,20.2L4,20.2C4,20.2,4,20.2,4,20.2C4,20.2,4,20.2,4,20.2z M4,20.1
			C4,20.1,4,20.1,4,20.1L4,20.1C4,20.1,4,20.1,4,20.1z M3.9,20.5C3.9,20.5,3.9,20.5,3.9,20.5c0-0.1-0.1,0-0.1-0.1c0,0,0.1,0,0.1,0
			C3.9,20.4,3.9,20.4,3.9,20.5C3.9,20.4,4,20.5,3.9,20.5z M3.9,20.1C3.9,20.2,3.9,20.2,3.9,20.1c0,0.1,0,0.1,0,0.1c0,0,0,0,0,0
			C3.8,20.2,3.8,20.2,3.9,20.1z M3.8,20.7C3.8,20.6,3.9,20.6,3.8,20.7C3.8,20.6,3.9,20.7,3.8,20.7z M3.8,20.8
			C3.9,20.8,3.8,20.8,3.8,20.8C3.8,20.8,3.8,20.8,3.8,20.8z M4,18.8c-0.1,0-0.1,0-0.1,0C3.9,18.7,4,18.7,4,18.8L4,18.8z M3.8,18.1
			c0.1,0,0.1,0.1,0.1,0.1c-0.1,0-0.1,0-0.1,0c-0.1-0.1-0.1,0-0.2,0C3.7,18.2,3.8,18.1,3.8,18.1C3.9,18.1,3.8,18.1,3.8,18.1z M3.8,18
			C3.8,18,3.9,18,3.8,18C3.8,18,3.8,18,3.8,18z M4,18.3C4,18.3,3.9,18.3,4,18.3C3.9,18.3,3.9,18.3,4,18.3z M4,17.8
			C3.9,17.8,4,17.8,4,17.8C4,17.8,4,17.8,4,17.8z M4,17.7C4,17.9,3.8,17.7,4,17.7C4,17.7,4,17.8,4,17.7z M3.9,17.2
			C3.9,17.2,3.9,17.2,3.9,17.2c0,0,0.1,0.1,0,0.2C3.8,17.3,3.8,17.2,3.9,17.2z M3.9,17.5C3.9,17.5,3.8,17.5,3.9,17.5
			c-0.1,0.1,0,0.1-0.1,0.2c-0.3,0.2-0.1-0.1-0.2-0.1c0,0,0.1-0.1,0.1-0.1C3.6,17.6,3.8,17.6,3.9,17.5c-0.1,0-0.1,0-0.1,0.1
			C3.8,17.5,3.9,17.5,3.9,17.5z M3.6,17.3C3.7,17.3,3.7,17.2,3.6,17.3C3.7,17.3,3.7,17.3,3.6,17.3C3.7,17.3,3.6,17.3,3.6,17.3z
			 M3.6,17.1c0.1,0,0.1,0,0.2,0.1C3.7,17.2,3.6,17.2,3.6,17.1z M3.6,17.1C3.6,17.1,3.6,17.1,3.6,17.1C3.6,17.1,3.6,17.1,3.6,17.1z
			 M3.5,17.5C3.5,17.5,3.5,17.5,3.5,17.5C3.5,17.5,3.5,17.5,3.5,17.5z M3.5,17.9C3.5,17.9,3.5,17.9,3.5,17.9
			C3.6,17.8,3.5,17.8,3.5,17.9c0.1-0.1,0.1-0.1,0.2-0.1C3.6,17.9,3.6,17.9,3.5,17.9C3.5,17.9,3.6,17.9,3.5,17.9z M3.7,18.3
			c0-0.1,0.1,0,0.2,0c0,0,0,0,0,0C3.8,18.4,3.7,18.3,3.7,18.3c0,0.1,0.1,0.1,0.1,0.2c0,0-0.3,0.1-0.3,0c0,0,0,0,0.1,0
			C3.5,18.4,3.4,18.4,3.7,18.3z M3.7,19C3.7,19,3.8,19,3.7,19C3.7,19.1,3.7,19,3.7,19z M3.8,19.1C3.7,19.1,3.8,19.1,3.8,19.1
			C3.8,19.1,3.8,19.1,3.8,19.1z M3.6,18.7C3.6,18.7,3.6,18.7,3.6,18.7C3.7,18.6,3.7,18.6,3.6,18.7C3.7,18.7,3.6,18.8,3.6,18.7z
			 M3.6,18.8c0-0.1-0.1-0.1-0.2-0.1C3.5,18.7,3.7,18.7,3.6,18.8C3.7,18.9,3.7,18.9,3.6,18.8z M3.5,19.4C3.5,19.4,3.7,19.3,3.5,19.4
			c0.1-0.1,0.1-0.1,0.2-0.1c0,0,0.1-0.1,0-0.1c0,0,0.1,0,0,0c0,0,0,0,0,0c0,0,0.1,0,0.1,0c0,0-0.1,0-0.1,0.1
			c0.1,0.1-0.1,0.1-0.1,0.2c0,0,0.1,0.1,0.1,0.1c0,0-0.1,0.1-0.1,0.1C3.6,19.5,3.6,19.5,3.5,19.4C3.6,19.4,3.6,19.4,3.5,19.4z
			 M3.5,19.8c0,0,0,0,0.1,0c0,0,0,0,0,0.1C3.6,19.8,3.6,19.8,3.5,19.8z M3.6,20.4C3.6,20.4,3.6,20.4,3.6,20.4
			C3.6,20.4,3.6,20.4,3.6,20.4C3.7,20.4,3.7,20.3,3.6,20.4z M3.5,21.1C3.4,21.1,3.5,21,3.5,21.1C3.5,21,3.5,21,3.5,21.1z M3.5,20.7
			c0-0.1,0-0.1,0.1-0.1C3.6,20.7,3.6,20.7,3.5,20.7z M3.7,21.1C3.6,21.1,3.6,21.1,3.7,21.1c0,0,0.1-0.1,0.1-0.1c0,0-0.1,0.1,0,0.1
			C3.8,21.1,3.7,21.1,3.7,21.1z M4.1,21.3c0,0.1,0,0.1-0.1,0.2c0,0-0.2-0.1-0.2-0.2c0.1,0,0.2,0,0.2-0.1C4,21.3,4,21.3,4.1,21.3
			c0,0-0.2,0-0.1,0C4,21.4,4,21.4,4.1,21.3z M4.1,21C4.1,21,4.1,21,4.1,21L4.1,21C4.2,21,4.2,21,4.1,21z M4.3,4H4.1
			C4.1,4,4,3.9,4,3.9C4.1,4,4.2,4,4.3,4c-0.1-0.1,0-0.1,0-0.1c-0.1-0.1,0,0,0,0C4.3,3.9,4.3,3.9,4.3,4z M4.3,3.8
			C4.3,3.8,4.3,3.8,4.3,3.8C4.3,3.8,4.3,3.8,4.3,3.8z M4.4,21.5C4.4,21.4,4.4,21.5,4.4,21.5C4.4,21.5,4.4,21.5,4.4,21.5z M4.4,21.3
			C4.4,21.3,4.3,21.2,4.4,21.3c-0.1,0-0.1-0.1-0.1-0.2C4.5,21.1,4.5,21.2,4.4,21.3z M4.5,3.9C4.5,3.8,4.4,3.8,4.5,3.9
			C4.5,3.8,4.5,3.9,4.5,3.9z M4.6,21.2C4.6,21.2,4.6,21.2,4.6,21.2C4.6,21.2,4.6,21.2,4.6,21.2z M4.7,4L4.7,4C4.7,4,4.7,4,4.7,4
			C4.7,4,4.7,4,4.7,4z M4.7,3.9c0,0-0.1,0.1-0.1,0C4.7,3.9,4.6,3.8,4.7,3.9C4.7,3.8,4.7,3.8,4.7,3.9C4.7,3.9,4.8,4,4.7,3.9z
			 M4.7,3.7C4.7,3.7,4.7,3.6,4.7,3.7c0-0.1,0-0.1,0-0.1C4.8,3.6,4.8,3.6,4.7,3.7z M4.9,3.8C4.9,3.8,4.9,3.9,4.9,3.8
			C4.9,3.9,4.9,3.9,4.9,3.8C4.9,3.9,4.9,3.9,4.9,3.8z M4.9,21.3c0,0,0.1-0.1,0.1,0C5,21.3,5,21.3,4.9,21.3z M5.1,21.7L5.1,21.7
			C5.1,21.7,5.1,21.7,5.1,21.7C5.1,21.7,5.1,21.7,5.1,21.7z M5.3,21.3C5.3,21.3,5.4,21.3,5.3,21.3C5.2,21.3,5.3,21.3,5.3,21.3z
			 M5.2,3.9C5.2,3.9,5.2,3.9,5.2,3.9C5.2,3.9,5.2,3.9,5.2,3.9C5.2,3.9,5.2,3.9,5.2,3.9z M5.2,3.8C5.2,3.8,5.2,3.9,5.2,3.8
			C5.2,3.9,5.2,3.9,5.2,3.8C5.2,3.9,5.2,3.8,5.2,3.8z M5.1,4c0,0,0-0.1,0-0.1c0,0,0-0.1,0.1-0.1c0,0,0,0,0,0c0,0,0,0,0,0
			c0,0,0,0,0,0c0,0.1,0,0.1,0,0C5.2,3.9,5.2,4,5.1,4L5.1,4z M5.3,21.6c0-0.1-0.1-0.1-0.1-0.1c0,0,0.1,0,0.1-0.1
			C5.4,21.4,5.4,21.6,5.3,21.6z M5.3,3.6c0,0,0-0.1,0-0.1C5.3,3.5,5.4,3.5,5.3,3.6C5.3,3.6,5.4,3.6,5.3,3.6z M19.5,4
			C19.5,4,19.5,4,19.5,4L19.5,4C19.5,4,19.5,4,19.5,4z M19.4,3.8c0,0,0,0.1,0.1,0.2C19.4,4,19.5,3.9,19.4,3.8c0,0.1,0,0.1,0,0.1
			C19.4,3.9,19.4,3.9,19.4,3.8z M19.3,3.7C19.3,3.8,19.5,3.8,19.3,3.7C19.3,3.8,19.3,3.8,19.3,3.7z M19.3,21.1
			C19.3,21.1,19.3,21.2,19.3,21.1c0,0.1,0,0.1-0.1,0.1C19.2,21.2,19.3,21.2,19.3,21.1z M19.2,21C19.2,21,19.2,21,19.2,21
			C19.2,21,19.2,21,19.2,21L19.2,21z M19.2,21.3c0,0-0.1-0.1,0-0.1C19.2,21.2,19.2,21.2,19.2,21.3z M19.1,4C19.1,4,19.1,4,19.1,4
			L19.1,4C19.1,4,19.1,4,19.1,4z M19,21C19,21,19.1,21,19,21C19,21,19,21,19,21L19,21z M19,3.9C19,3.9,19,3.9,19,3.9
			C19,3.9,19,3.9,19,3.9C19,3.9,19,3.9,19,3.9C19,3.9,19,3.9,19,3.9z M18.8,3.9C18.7,3.8,18.7,3.8,18.8,3.9c0,0.1,0,0.1-0.1,0.1
			h-0.1C18.6,3.9,18.7,3.8,18.8,3.9z M18.5,4C18.5,4,18.5,4,18.5,4L18.5,4C18.5,4,18.5,4,18.5,4z M18.4,3.9
			C18.4,3.9,18.4,4,18.4,3.9C18.3,3.9,18.3,3.9,18.4,3.9z M18.2,3.5c0,0.1,0.1,0.2,0,0.3C18.2,3.8,18.2,3.6,18.2,3.5z M18.2,3.7
			C18.2,3.7,18.2,3.8,18.2,3.7C18.1,3.8,18.1,3.7,18.2,3.7z M18.1,4L18.1,4C18.1,4,18.1,4,18.1,4L18.1,4C18.1,3.9,18.1,3.9,18.1,4
			C18.2,4,18.2,4,18.1,4z M18.1,3.9C18.1,3.9,18.1,3.8,18.1,3.9C18.1,3.8,18.1,3.8,18.1,3.9z M18,3.9C18,3.9,18,3.9,18,3.9
			C17.9,4,17.9,4,18,3.9C18,4,17.8,4,18,3.9z M17.8,3.6C17.9,3.5,17.8,3.8,17.8,3.6C17.8,3.6,17.8,3.6,17.8,3.6z M17.8,3.8
			C17.9,3.8,17.9,3.8,17.8,3.8C17.8,3.8,17.8,3.8,17.8,3.8C17.8,3.8,17.8,3.8,17.8,3.8z M17.7,3.6C17.7,3.6,17.7,3.7,17.7,3.6
			C17.7,3.7,17.7,3.7,17.7,3.6z M17.7,3.9C17.7,3.8,17.7,3.8,17.7,3.9L17.7,3.9C17.7,3.8,17.8,3.9,17.7,3.9z M17.7,3.7
			C17.7,3.7,17.7,3.7,17.7,3.7C17.6,3.7,17.7,3.7,17.7,3.7z M17.5,3.9C17.5,3.9,17.6,3.9,17.5,3.9C17.6,4,17.6,4,17.5,3.9
			C17.6,3.9,17.6,4,17.5,3.9L17.5,3.9C17.5,4,17.5,3.9,17.5,3.9z M17.5,3.9C17.5,3.9,17.5,3.9,17.5,3.9C17.5,3.9,17.5,3.9,17.5,3.9z
			 M17.4,3.7C17.4,3.7,17.4,3.8,17.4,3.7C17.4,3.7,17.4,3.7,17.4,3.7z M16.3,3.5c0,0.1,0.1,0.1,0.1,0.2c0,0,0-0.1,0.1-0.1
			c0,0,0,0.1,0,0.1C16.3,3.7,16.2,3.7,16.3,3.5z M16.3,4L16.3,4C16.3,4,16.3,4,16.3,4C16.3,4,16.3,4,16.3,4z M16.3,3.9
			C16.3,3.9,16.3,3.9,16.3,3.9C16.3,3.9,16.3,4.1,16.3,3.9z M16.2,3.8C16.2,3.9,16.2,3.9,16.2,3.8c0,0-0.1,0.1-0.1,0
			C16.1,3.9,16.2,3.8,16.2,3.8z M16.1,3.8C16.1,3.8,16.1,3.7,16.1,3.8C16.1,3.8,16,3.8,16.1,3.8C16.1,3.8,16.1,3.8,16.1,3.8z
			 M16,3.4C16.1,3.5,16.1,3.4,16,3.4C16,3.5,16,3.5,16,3.4z M15.8,3.8C15.8,3.8,15.8,3.8,15.8,3.8c0,0,0.1,0,0.2,0
			c0,0,0,0.2-0.1,0.3h-0.1C15.9,3.9,15.8,3.9,15.8,3.8C15.7,3.7,15.8,3.8,15.8,3.8z M15.7,4L15.7,4C15.7,4,15.7,4,15.7,4
			C15.7,4,15.7,4,15.7,4z M15.7,3.9C15.7,3.9,15.7,3.9,15.7,3.9C15.7,3.9,15.7,3.9,15.7,3.9z M15.5,3.8C15.5,3.8,15.5,3.8,15.5,3.8
			c0,0.1,0.1,0.1,0.1,0.1c0,0,0.1-0.1,0.1-0.1c0,0-0.1,0.1-0.1,0.2h-0.1C15.4,3.9,15.5,3.9,15.5,3.8z M15.3,3.7
			C15.3,3.7,15.3,3.7,15.3,3.7c0.1,0.1,0,0.1,0,0.1C15.3,3.8,15.3,3.8,15.3,3.7z M15.1,3.6c0,0,0.1,0.2,0.1,0.2
			C15.2,3.8,15.1,3.7,15.1,3.6c0,0.1,0,0.1,0,0.1C15.1,3.7,15.1,3.6,15.1,3.6C15.1,3.6,15.1,3.6,15.1,3.6z M14.8,3.6
			C14.8,3.6,14.8,3.6,14.8,3.6c0-0.1,0-0.1,0-0.1c0.1,0,0.1,0.2,0.2,0.2c-0.1,0-0.1,0.3-0.1,0.3C14.8,4,14.8,3.6,14.8,3.6z
			 M14.7,3.8C14.7,3.8,14.7,3.9,14.7,3.8C14.7,3.9,14.7,3.8,14.7,3.8z M14.3,3.7C14.3,3.7,14.2,3.8,14.3,3.7
			C14.2,3.8,14.2,3.7,14.3,3.7C14.2,3.7,14.2,3.7,14.3,3.7z M14.3,3.9C14.3,3.9,14.3,3.9,14.3,3.9C14.3,4,14.2,4,14.3,3.9
			C14.2,4,14.2,3.8,14.3,3.9C14.2,3.9,14.2,3.9,14.3,3.9z M14.1,3.5c0,0,0.1,0.1,0.1,0.1c0,0-0.1,0-0.1,0C14,3.7,14,3.6,14.1,3.5
			C14.1,3.5,14,3.5,14.1,3.5z M14,3.9c-0.1,0.1,0-0.1,0-0.1C14,3.8,14,3.9,14,3.9z M13.9,3.6c0.1,0,0.1,0.1,0.1,0.2c0.1,0,0,0,0,0
			C13.9,3.8,13.8,3.6,13.9,3.6z M13.9,3.8C13.9,3.8,13.8,3.8,13.9,3.8C13.8,3.8,14,3.8,13.9,3.8z M13.7,3.6
			C13.7,3.6,13.7,3.6,13.7,3.6c0,0,0,0.1,0,0.1C13.7,3.7,13.7,3.6,13.7,3.6z M13.7,3.8C13.6,3.8,13.6,3.8,13.7,3.8
			C13.7,3.7,13.7,3.8,13.7,3.8z M13.7,3.5c0,0.1,0,0.2-0.1,0.2C13.6,3.6,13.7,3.6,13.7,3.5z M13.4,3.5C13.4,3.5,13.4,3.5,13.4,3.5
			C13.3,3.6,13.4,3.5,13.4,3.5z M13.3,3.6c0-0.1,0.1,0.1,0,0.1C13.3,3.7,13.3,3.7,13.3,3.6C13.3,3.6,13.3,3.6,13.3,3.6z M13.2,3.8
			C13.3,3.7,13.3,4,13.2,3.8c0.1,0,0.2,0.1,0.2,0.1c0,0.2-0.2-0.1-0.3,0.1C13.2,3.9,13.3,3.8,13.2,3.8z M13,3.7
			C13,3.7,12.9,3.8,13,3.7C12.7,3.8,13,3.7,13,3.7z M12.8,3.7C12.8,3.7,12.8,3.7,12.8,3.7C12.8,3.7,12.8,3.7,12.8,3.7
			C12.7,3.7,12.7,3.7,12.8,3.7z M12.7,3.8c0,0,0.1,0.2,0,0.1C12.4,3.8,12.7,3.8,12.7,3.8z M12.2,3.8C12.3,3.8,12.3,3.8,12.2,3.8
			C12.1,3.9,12.2,3.8,12.2,3.8z M11.8,3.5C11.8,3.5,11.8,3.5,11.8,3.5c0.1,0.2,0.1,0,0,0.3c0-0.1-0.1,0-0.1,0
			C11.6,3.6,11.9,3.6,11.8,3.5z M11.2,3.6c0,0.1,0,0.2,0,0.3c0,0-0.1-0.3-0.1-0.4C11.1,3.6,11.2,3.6,11.2,3.6z M11.1,3.7
			C11.1,3.8,11.1,3.8,11.1,3.7C11,3.8,11.1,3.8,11.1,3.7z M10.9,3.9C11,3.8,11,3.9,10.9,3.9C10.9,3.9,10.9,3.8,10.9,3.9z M10.8,3.6
			C10.8,3.6,10.8,3.6,10.8,3.6C10.8,3.6,10.8,3.7,10.8,3.6C10.8,3.7,10.8,3.6,10.8,3.6z M10.8,4L10.8,4C10.8,4,10.8,4,10.8,4
			C10.8,4,10.8,4,10.8,4z M10.7,4C10.7,3.9,10.7,3.9,10.7,4C10.7,4,10.7,4,10.7,4L10.7,4C10.7,4,10.7,4,10.7,4z M10.6,3.5
			c0,0,0,0.1,0,0.1C10.6,3.6,10.6,3.5,10.6,3.5z M10.6,4L10.6,4C10.6,4,10.6,3.9,10.6,4C10.6,3.9,10.6,4,10.6,4z M10.5,3.9
			C10.5,3.9,10.5,4,10.5,3.9L10.5,3.9C10.5,4,10.5,3.9,10.5,3.9z M10.2,3.9C10.2,3.9,10.2,3.9,10.2,3.9C10.2,3.9,10.2,4,10.2,3.9
			L10.2,3.9C10.2,4,10.2,3.9,10.2,3.9z M10.1,3.8c0,0.1,0,0.1,0,0.1C10,3.9,10,3.8,10.1,3.8z M9.8,3.5C9.8,3.5,9.8,3.5,9.8,3.5
			C9.8,3.4,9.9,3.5,9.8,3.5z M9.7,3.7C9.7,3.7,9.7,3.7,9.7,3.7C9.7,3.5,9.8,3.7,9.7,3.7C9.7,3.7,9.7,3.7,9.7,3.7z M9.7,4H9.6
			c0,0,0,0,0,0c0,0,0.1-0.1,0-0.1c0,0.1,0,0,0,0C9.7,3.9,9.7,3.9,9.7,4z M9.6,3.6C9.6,3.5,9.6,3.6,9.6,3.6C9.7,3.6,9.7,3.6,9.6,3.6
			C9.6,3.7,9.6,3.7,9.6,3.6C9.6,3.6,9.7,3.6,9.6,3.6z M9.5,3.6c0,0-0.1,0.2-0.1-0.1C9.4,3.5,9.5,3.5,9.5,3.6z M9.6,4H9.4
			c0-0.1,0-0.2,0-0.2c0,0,0-0.1,0-0.1C9.4,3.8,9.6,3.9,9.6,4z M9.2,3.9C9.2,3.8,9.2,3.8,9.2,3.9C9.2,3.8,9.2,3.9,9.2,3.9
			C9.2,3.9,9.2,3.9,9.2,3.9z M9.1,3.8c0,0.1,0,0.2,0.1,0.2H9.1c0,0-0.1-0.1-0.1-0.1C9.1,3.9,9.1,3.9,9.1,3.8
			C9.1,3.8,9.1,3.8,9.1,3.8z M9,3.7C9.1,3.7,9.1,3.7,9,3.7C9,3.7,9,3.7,9,3.7C9,3.7,9,3.7,9,3.7z M9,3.9C9,3.9,9,3.9,9,3.9
			C9,3.8,9,3.9,9,3.9z M9,3.7C8.9,3.8,8.9,3.7,9,3.7C8.9,3.6,8.9,3.7,9,3.7z M8.8,3.8C8.8,3.8,8.8,3.8,8.8,3.8
			C8.9,3.9,8.9,3.9,8.8,3.8C8.9,3.9,9,3.9,9,3.9C9,3.9,8.9,4,8.9,4H8.8C8.8,3.9,8.7,3.8,8.8,3.8z M8.8,3.8C8.7,3.9,8.7,3.9,8.8,3.8
			C8.7,3.8,8.7,3.9,8.8,3.8c-0.1,0,0-0.1,0-0.1C8.8,3.8,8.8,3.8,8.8,3.8z M8.8,3.5C8.8,3.5,8.7,3.5,8.8,3.5C8.8,3.4,8.8,3.5,8.8,3.5
			z M8.8,3.5C8.8,3.6,8.7,3.6,8.8,3.5C8.7,3.5,8.7,3.5,8.8,3.5z M8.7,3.7C8.7,3.7,8.7,3.7,8.7,3.7C8.7,3.7,8.6,3.6,8.7,3.7z
			 M8.7,3.9C8.7,3.9,8.6,3.9,8.7,3.9C8.6,3.9,8.7,3.9,8.7,3.9z M8.5,3.9C8.5,3.9,8.5,3.9,8.5,3.9c-0.1-0.1,0-0.1,0.1-0.1
			c0,0,0.1,0.2,0.1,0.2c0,0,0,0,0,0.1H8.5C8.5,4,8.5,4,8.5,3.9C8.5,4,8.5,4,8.4,4C8.4,3.9,8.5,4,8.5,3.9z M8.3,3.9
			C8.3,4,8.3,3.9,8.3,3.9C8.3,3.9,8.3,3.9,8.3,3.9z M8,3.5C8,3.6,8,3.6,8,3.5C8,3.6,8,3.6,8,3.5z M8,3.6C8,3.6,8,3.6,8,3.6
			C8,3.6,8,3.6,8,3.6c0,0.1,0,0.1-0.1,0.2C7.9,3.7,7.9,3.6,8,3.6z M7.8,3.7C7.8,3.7,7.8,3.7,7.8,3.7C7.8,3.7,7.8,3.7,7.8,3.7
			C7.8,3.7,7.9,3.6,7.8,3.7z M7.9,3.9C7.9,3.9,7.9,3.9,7.9,3.9c0,0-0.1,0.1-0.2,0C7.8,3.7,7.9,3.8,7.9,3.9z M7.7,3.8
			C7.7,3.8,7.7,3.8,7.7,3.8C7.7,3.9,7.6,3.8,7.7,3.8z M7.6,3.5C7.6,3.5,7.6,3.5,7.6,3.5C7.6,3.4,7.6,3.5,7.6,3.5z M7.4,3.5
			c0.1,0.1,0.2,0.1,0.2,0.2c0-0.1,0,0.1,0,0.1c0,0,0,0,0,0c0.1,0,0.1,0.1,0.1,0.1c0,0,0,0,0-0.1c0,0-0.1,0.2-0.2,0
			C7.3,3.7,7.3,3.6,7.4,3.5z M7.4,4C7.4,4,7.3,3.9,7.4,4C7.2,3.9,7.3,3.8,7.4,4z M7.2,3.5C7.2,3.5,7.3,3.5,7.2,3.5
			c0.1,0.1,0.1,0.1,0,0.2C7.2,3.6,7.2,3.5,7.2,3.5C7.2,3.5,7.2,3.5,7.2,3.5z M7.1,3.8C7.1,3.8,7.1,3.9,7.1,3.8
			C7.1,3.9,7.1,3.8,7.1,3.8C7.1,3.8,7.1,3.8,7.1,3.8z M6.9,3.7c0,0,0.1,0.2,0.1,0.2c0,0,0,0,0,0c0,0.1-0.1,0.1-0.1,0.1
			c0-0.1,0-0.1,0-0.2c0,0,0,0,0,0C7,3.6,6.9,3.7,6.9,3.7C6.9,3.6,6.9,3.6,6.9,3.7z M6.5,3.5C6.5,3.5,6.5,3.6,6.5,3.5
			c0.1,0.1,0-0.1,0.1,0c0,0,0.1,0.2,0.2,0.2c0,0-0.1,0.2-0.1,0.2c0,0,0,0,0,0c-0.1-0.1,0.1-0.3,0-0.3c0,0.1-0.1,0.2-0.1,0.2
			C6.5,3.8,6.4,3.6,6.5,3.5C6.5,3.5,6.5,3.5,6.5,3.5z M6.8,4C6.8,4,6.8,3.9,6.8,4C6.8,3.9,6.8,3.9,6.8,4z M6.4,3.6
			c0,0,0.1,0.2,0,0.1C6.4,3.6,6.4,3.6,6.4,3.6C6.4,3.6,6.4,3.6,6.4,3.6z M6.4,4L6.4,4c0-0.1,0-0.1,0-0.1C6.4,3.9,6.4,4,6.4,4
			C6.4,4,6.4,4,6.4,4z M6.2,3.6c0.1,0,0.1-0.1,0.1-0.2C6.4,3.5,6.3,3.7,6.2,3.6C6.2,3.7,6.2,3.7,6.2,3.6z M6.2,3.9c0,0,0,0,0,0.1h0
			C6.1,4,6.1,3.9,6.2,3.9z M6.1,3.7C6.1,3.7,6.1,3.7,6.1,3.7C6.1,3.7,6.1,3.8,6.1,3.7C6,3.7,6.1,3.7,6.1,3.7z M5.8,3.4
			c0,0,0,0.1,0,0.1C5.7,3.5,5.7,3.5,5.8,3.4z M5.5,21.1C5.4,21.1,5.4,21,5.5,21.1L5.5,21.1C5.4,21,5.4,21,5.5,21.1
			C5.5,21,5.5,21,5.5,21.1C5.5,21,5.5,21.1,5.5,21.1z M5.5,21.3c0,0,0-0.1-0.1-0.2C5.6,21.1,5.5,21.2,5.5,21.3c0-0.1,0-0.1,0-0.1
			C5.6,21.2,5.6,21.2,5.5,21.3z M5.7,21.4C5.6,21.3,5.5,21.3,5.7,21.4C5.7,21.3,5.7,21.3,5.7,21.4z M5.7,4L5.7,4
			C5.7,4,5.7,3.9,5.7,4c0-0.1,0-0.1,0.1-0.1C5.8,3.9,5.7,3.9,5.7,4z M5.8,3.9c0,0,0-0.1,0-0.1C5.8,3.8,5.8,3.9,5.8,3.9z M5.7,3.6
			C5.7,3.6,5.6,3.7,5.7,3.6c-0.1,0.1-0.1,0-0.1,0c0,0.1,0,0.2,0,0.3c0,0,0.1,0,0.1,0C5.4,4.1,5.4,3.6,5.5,3.6c0,0,0,0,0,0
			c0.1,0.1,0,0,0.1,0c0,0,0,0,0,0C5.6,3.6,5.6,3.6,5.7,3.6c0-0.1,0-0.1,0-0.1c0,0,0.1,0.1,0.1,0c0,0.1,0,0.1,0,0.2
			c0,0,0.1,0.1,0.1,0c0,0,0,0,0,0c0,0,0,0.1,0,0c0,0,0,0.1,0,0.1c0,0,0-0.1-0.1-0.1C5.8,3.8,5.7,3.7,5.7,3.6z M5.9,21.1
			c-0.1-0.1,0-0.1,0-0.1h0.1C5.9,21,5.9,21.1,5.9,21.1z M5.9,4C5.9,4,5.9,4,5.9,4C5.9,4,6,4,5.9,4C6,4,6,4,5.9,4L5.9,4z M6,3.8
			C6,3.7,6,3.7,6,3.8C6,3.8,6,3.7,6,3.8z M6,21.2C6,21.2,6,21.2,6,21.2C6,21.1,6,21.2,6,21.2C6,21.2,6,21.2,6,21.2
			C6,21.2,6,21.2,6,21.2z M6.2,21.2C6.2,21.3,6.3,21.3,6.2,21.2c0-0.1,0.1-0.1,0.1-0.2C6.4,21.1,6.3,21.3,6.2,21.2z M6.5,21.1
			c0,0,0-0.1,0-0.1C6.5,21,6.5,21.1,6.5,21.1z M6.6,21.2C6.6,21.2,6.6,21.1,6.6,21.2C6.6,21.2,6.6,21.2,6.6,21.2z M6.7,21.1
			C6.7,21,6.6,21,6.7,21.1L6.7,21.1C6.7,21,6.7,21,6.7,21.1C6.7,21,6.7,21,6.7,21.1z M6.7,21.6c0-0.1-0.1-0.2,0-0.3
			C6.8,21.3,6.7,21.5,6.7,21.6z M6.8,21.4C6.8,21.4,6.7,21.3,6.8,21.4C6.9,21.3,6.8,21.4,6.8,21.4z M6.9,21C6.9,21,6.9,21.2,6.9,21
			C6.9,21.2,6.9,21.2,6.9,21C6.8,21.2,6.9,21,6.9,21z M6.9,21.2C6.9,21.2,6.9,21.3,6.9,21.2C6.9,21.3,6.9,21.3,6.9,21.2z M7,21.2
			C7,21.2,7,21.2,7,21.2C7,21.1,7,21.1,7,21.2C7,21.1,7.1,21.1,7,21.2z M7.1,21C7.1,21,7.1,21,7.1,21L7.1,21C7.1,21,7.1,21,7.1,21z
			 M7.1,21.5C7.1,21.6,7.2,21.3,7.1,21.5C7.2,21.5,7.2,21.5,7.1,21.5z M7.2,21.3C7.1,21.3,7.1,21.3,7.2,21.3
			C7.2,21.3,7.2,21.3,7.2,21.3C7.2,21.3,7.2,21.3,7.2,21.3z M7.2,21C7.2,21,7.2,21,7.2,21C7.2,21.1,7.2,21.1,7.2,21
			C7.2,21,7.2,21,7.2,21L7.2,21C7.2,21,7.3,21,7.2,21C7.3,21.1,7.2,21.1,7.2,21z M7.3,21.5C7.2,21.4,7.3,21.4,7.3,21.5
			C7.3,21.4,7.3,21.4,7.3,21.5z M7.3,21.2C7.3,21.3,7.3,21.3,7.3,21.2L7.3,21.2C7.3,21.3,7.2,21.2,7.3,21.2z M7.3,21.4
			C7.3,21.4,7.3,21.4,7.3,21.4C7.3,21.4,7.3,21.4,7.3,21.4C7.3,21.4,7.3,21.4,7.3,21.4z M7.5,21.1C7.4,21.2,7.4,21.2,7.5,21.1
			C7.4,21.1,7.4,21.1,7.5,21.1c-0.1,0-0.1-0.1-0.1-0.1h0C7.4,21,7.5,21.2,7.5,21.1z M7.5,21.2C7.5,21.2,7.5,21.2,7.5,21.2
			C7.5,21.2,7.5,21.2,7.5,21.2z M7.6,21.4C7.6,21.3,7.6,21.3,7.6,21.4C7.6,21.4,7.6,21.4,7.6,21.4z M7.8,21C7.8,21,7.8,21,7.8,21
			L7.8,21C7.8,21,7.8,21,7.8,21z M8.2,21C8.1,21,8.1,21,8.2,21L8.2,21C8.2,21,8.2,21,8.2,21C8.2,21.1,8.2,21.1,8.2,21
			C8.2,21.1,8.2,21.1,8.2,21z M8.3,21C8.3,21,8.3,21,8.3,21C8.3,21,8.3,21,8.3,21L8.3,21C8.3,21,8.3,21,8.3,21z M8.5,21
			C8.4,21,8.4,21,8.5,21L8.5,21C8.5,21,8.4,21,8.5,21z M8.7,21.6c0-0.1-0.1-0.1-0.1-0.2c0,0,0,0.1-0.1,0.1c0,0,0-0.1,0-0.1
			C8.6,21.4,8.7,21.4,8.7,21.6z M8.6,21C8.6,21,8.6,21,8.6,21L8.6,21C8.7,21,8.7,21.1,8.6,21C8.6,21.1,8.6,21,8.6,21z M8.7,21.1
			C8.7,21.2,8.7,21.2,8.7,21.1C8.7,21.2,8.7,21,8.7,21.1z M8.8,21.3C8.8,21.2,8.8,21.2,8.8,21.3c0,0,0.1-0.1,0.1,0
			C8.8,21.2,8.8,21.3,8.8,21.3z M8.8,21L8.8,21C8.8,21,8.8,21,8.8,21C8.8,21,8.8,21,8.8,21z M8.8,21.3c0.1,0,0.1,0,0.1,0
			C8.9,21.3,8.9,21.3,8.8,21.3C8.9,21.3,8.9,21.3,8.8,21.3z M9,21.6C8.9,21.6,8.9,21.7,9,21.6C9,21.6,9,21.6,9,21.6z M9.2,21.3
			C9.2,21.3,9.2,21.3,9.2,21.3c0,0-0.1,0-0.2,0c0,0,0-0.4,0.1-0.3C9.1,21.2,9.2,21.2,9.2,21.3C9.2,21.4,9.2,21.3,9.2,21.3z M9.1,21
			L9.1,21C9.1,21,9.1,21.1,9.1,21C9.1,21,9.1,21,9.1,21z M9.2,21C9.2,21,9.2,21,9.2,21C9.3,21,9.3,21,9.2,21L9.2,21
			C9.3,21,9.3,21.1,9.2,21C9.2,21.1,9.2,21.1,9.2,21z M9.3,21.2C9.3,21.2,9.3,21.2,9.3,21.2C9.3,21.2,9.3,21.2,9.3,21.2z M9.5,21.3
			C9.5,21.3,9.5,21.3,9.5,21.3c0-0.1-0.1-0.1-0.1-0.1c0,0-0.1,0.1-0.1,0.1c-0.1,0,0.1-0.2,0.1-0.2C9.6,21.2,9.5,21.1,9.5,21.3z
			 M9.7,21.4C9.7,21.4,9.7,21.4,9.7,21.4c-0.1-0.1,0-0.1,0-0.1C9.7,21.3,9.7,21.3,9.7,21.4z M9.9,21.5c0,0-0.1-0.2-0.1-0.2
			C9.8,21.3,9.9,21.4,9.9,21.5c0-0.1,0-0.1,0-0.1C9.9,21.4,9.9,21.5,9.9,21.5C9.9,21.5,9.9,21.5,9.9,21.5z M10.1,21.5
			C10.1,21.5,10.1,21.5,10.1,21.5c0,0.1,0,0.1,0,0.1c-0.1,0-0.1-0.2-0.2-0.2c0.1,0,0.1-0.3,0.1-0.3C10.2,21.1,10.2,21.5,10.1,21.5z
			 M10.3,21.3C10.3,21.2,10.3,21.2,10.3,21.3C10.3,21.2,10.3,21.3,10.3,21.3z M10.5,21C10.5,21,10.5,21,10.5,21L10.5,21
			C10.5,21,10.5,21,10.5,21z M10.7,21.4C10.7,21.4,10.8,21.3,10.7,21.4C10.8,21.3,10.8,21.4,10.7,21.4
			C10.8,21.4,10.7,21.4,10.7,21.4z M10.7,21.2C10.7,21.2,10.7,21.2,10.7,21.2C10.7,21.1,10.7,21.1,10.7,21.2
			C10.8,21.1,10.8,21.3,10.7,21.2C10.7,21.2,10.7,21.2,10.7,21.2z M10.9,21.6c0,0-0.1-0.1-0.1-0.1c0,0,0.1,0,0.1,0
			C11,21.4,10.9,21.5,10.9,21.6C10.9,21.6,10.9,21.6,10.9,21.6z M10.9,21.1C10.9,21,10.9,21,10.9,21.1L10.9,21.1
			C10.9,21,10.9,21,10.9,21.1C10.9,21,10.9,21,10.9,21.1L10.9,21.1C11,21,10.9,21.1,10.9,21.1z M11,21.2c0.1-0.1,0,0.1,0,0.1
			C11,21.3,11,21.2,11,21.2z M11.1,21.5c-0.1,0-0.1-0.1-0.1-0.2c-0.1,0,0,0,0,0C11.1,21.3,11.2,21.5,11.1,21.5z M11.1,21.2
			C11.1,21.2,11.2,21.3,11.1,21.2C11.1,21.3,11,21.3,11.1,21.2z M11.3,21.5C11.3,21.5,11.3,21.5,11.3,21.5c0,0,0-0.1,0-0.1
			C11.3,21.4,11.3,21.5,11.3,21.5z M11.4,21.4C11.3,21.4,11.3,21.3,11.4,21.4C11.4,21.3,11.4,21.3,11.4,21.4z M11.3,21
			C11.4,21,11.4,21,11.3,21C11.3,21.1,11.3,21,11.3,21z M11.3,21.6c0-0.1,0-0.2,0.1-0.2C11.4,21.5,11.3,21.5,11.3,21.6z M11.6,21.6
			C11.6,21.6,11.6,21.6,11.6,21.6C11.7,21.5,11.6,21.6,11.6,21.6z M11.7,21.5c0,0.1-0.1-0.1,0-0.1C11.7,21.4,11.7,21.4,11.7,21.5
			C11.7,21.5,11.7,21.5,11.7,21.5z M11.7,21.3C11.7,21.4,11.7,21.1,11.7,21.3c-0.1,0-0.2-0.1-0.2-0.1c0-0.2,0.2,0.1,0.3-0.1
			C11.8,21.2,11.7,21.3,11.7,21.3z M12,21.4C12,21.3,12,21.3,12,21.4C12.3,21.3,12,21.4,12,21.4z M12.2,21.4
			C12.2,21.4,12.2,21.4,12.2,21.4C12.2,21.4,12.2,21.4,12.2,21.4C12.3,21.4,12.3,21.4,12.2,21.4z M12.3,21.3c0,0-0.1-0.2,0-0.1
			C12.6,21.3,12.3,21.3,12.3,21.3z M12.4,21C12.4,21,12.4,21,12.4,21L12.4,21C12.4,21,12.4,21,12.4,21z M12.7,21.3
			C12.7,21.3,12.7,21.3,12.7,21.3C12.8,21.2,12.7,21.3,12.7,21.3z M13.2,21.6C13.2,21.6,13.2,21.6,13.2,21.6c-0.1-0.2-0.1,0,0-0.3
			c0,0.1,0.1,0,0.1,0C13.3,21.5,13.1,21.5,13.2,21.6z M13.3,21.1C13.3,21.1,13.3,21,13.3,21.1L13.3,21.1
			C13.4,21,13.4,21.1,13.3,21.1z M13.6,21L13.6,21C13.6,21,13.6,21,13.6,21z M13.7,21C13.7,21,13.7,21,13.7,21L13.7,21
			C13.7,21,13.7,21,13.7,21z M13.8,21.5c0-0.1,0-0.2,0-0.3c0,0,0.1,0.3,0.1,0.4C13.8,21.5,13.8,21.5,13.8,21.5z M13.9,21.4
			C13.9,21.3,13.9,21.3,13.9,21.4C13.9,21.3,13.9,21.3,13.9,21.4z M14,21.2C14,21.3,14,21.2,14,21.2C14.1,21.2,14.1,21.3,14,21.2z
			 M14.2,21.5C14.2,21.5,14.2,21.5,14.2,21.5C14.1,21.5,14.2,21.4,14.2,21.5C14.2,21.4,14.2,21.5,14.2,21.5z M14.2,21.1
			C14.2,21.1,14.2,21.1,14.2,21.1C14.2,21.1,14.2,21.1,14.2,21.1C14.2,21.1,14.2,21.1,14.2,21.1C14.2,21.1,14.2,21.1,14.2,21.1z
			 M14.2,21.1C14.2,21.1,14.3,21.2,14.2,21.1C14.2,21.1,14.3,21.1,14.2,21.1C14.3,21.1,14.3,21.1,14.2,21.1z M14.3,21
			C14.3,21,14.3,21,14.3,21L14.3,21C14.3,21,14.3,21,14.3,21z M14.4,21.6c0,0,0-0.1,0-0.1C14.4,21.5,14.4,21.5,14.4,21.6z
			 M14.4,21.1C14.4,21.1,14.4,21.1,14.4,21.1C14.4,21.2,14.3,21.1,14.4,21.1z M14.5,21.2c-0.1,0-0.1,0-0.1-0.1c0.1,0,0.1,0,0.1-0.1
			h0C14.5,21.1,14.5,21.2,14.5,21.2z M14.8,21.2C14.8,21.2,14.8,21.2,14.8,21.2C14.8,21.2,14.8,21.1,14.8,21.2
			C14.9,21.1,14.8,21.1,14.8,21.2z M14.8,21C14.8,21,14.8,21,14.8,21L14.8,21C14.9,21,14.9,21,14.8,21z M14.9,21.3
			c0-0.1,0-0.1,0-0.1C15,21.2,15,21.3,14.9,21.3z M15,21C15,21,15,21,15,21L15,21C15,21,15,21,15,21z M15.1,21.6
			C15.2,21.6,15.2,21.6,15.1,21.6C15.2,21.7,15.1,21.6,15.1,21.6z M15.2,21.1C15.2,21,15.2,21,15.2,21.1L15.2,21.1
			C15.2,21,15.2,21,15.2,21.1z M15.2,21.4C15.2,21.4,15.2,21.4,15.2,21.4C15.2,21.6,15.2,21.4,15.2,21.4
			C15.3,21.4,15.3,21.4,15.2,21.4z M15.3,21L15.3,21c0.1,0,0.1,0.1,0.1,0.1c0,0,0,0.1,0,0.1c0-0.1,0,0,0,0
			C15.3,21.2,15.3,21.1,15.3,21z M15.3,21L15.3,21C15.4,21,15.3,21,15.3,21C15.3,21,15.3,21,15.3,21z M15.4,21.5
			C15.4,21.6,15.4,21.5,15.4,21.5C15.3,21.5,15.3,21.5,15.4,21.5C15.4,21.4,15.4,21.4,15.4,21.5C15.4,21.5,15.3,21.5,15.4,21.5z
			 M15.5,21.5c0,0,0.1-0.2,0.1,0.1C15.6,21.6,15.5,21.6,15.5,21.5z M15.4,21C15.4,21,15.4,21,15.4,21L15.4,21L15.4,21
			C15.5,21,15.5,21,15.4,21L15.4,21c0.1,0,0.1,0,0.1,0c0,0,0,0,0,0h0c0,0,0,0,0,0.1c0.1,0,0.1,0.3,0.1,0.2c0,0,0,0.1,0,0.1
			C15.6,21.3,15.3,21.1,15.4,21z M15.8,21.2C15.8,21.3,15.8,21.3,15.8,21.2C15.7,21.3,15.7,21.2,15.8,21.2
			C15.8,21.2,15.8,21.2,15.8,21.2z M15.9,21.3c0-0.2-0.1-0.2-0.2-0.3h0.2c0.1,0.1,0.1,0.2,0.1,0.2C15.9,21.2,15.9,21.2,15.9,21.3
			C15.9,21.3,15.9,21.3,15.9,21.3z M15.9,21C15.9,21,15.9,21,15.9,21L15.9,21C15.9,21,15.9,21,15.9,21z M16,21.4
			C15.9,21.4,15.9,21.4,16,21.4C15.9,21.4,16,21.4,16,21.4C16,21.4,16,21.4,16,21.4z M16,21.2C16,21.2,16,21.2,16,21.2
			C16,21.2,16,21.2,16,21.2z M16,21L16,21C16,21,16,21,16,21C16,21,16,21.1,16,21z M16,21.3C16.1,21.3,16.1,21.4,16,21.3
			C16.1,21.4,16.1,21.4,16,21.3z M16.1,21.3C16,21.2,16,21.2,16.1,21.3C16,21.2,16,21.2,16.1,21.3c-0.2-0.1,0.1-0.2,0.1-0.2
			C16.2,21.1,16.3,21.3,16.1,21.3C16.2,21.3,16.2,21.3,16.1,21.3z M16.2,21.3C16.3,21.2,16.3,21.2,16.2,21.3
			C16.3,21.2,16.3,21.2,16.2,21.3c0.1,0,0,0.1,0,0.1C16.2,21.3,16.2,21.3,16.2,21.3z M16.3,21C16.3,21.1,16.3,21.1,16.3,21
			C16.3,21.1,16.2,21,16.3,21z M16.2,21.6C16.2,21.6,16.2,21.6,16.2,21.6C16.2,21.7,16.2,21.6,16.2,21.6z M16.2,21.6
			C16.2,21.5,16.2,21.5,16.2,21.6C16.3,21.6,16.3,21.6,16.2,21.6z M16.3,21.4C16.3,21.4,16.3,21.4,16.3,21.4
			C16.3,21.4,16.4,21.5,16.3,21.4z M16.3,21.2C16.3,21.2,16.3,21.2,16.3,21.2C16.3,21.2,16.3,21.2,16.3,21.2z M16.5,21.2
			C16.5,21.2,16.5,21.2,16.5,21.2c0.1,0.1,0,0.1-0.1,0.1c0,0-0.1-0.2-0.1-0.2c0,0,0-0.1,0.1-0.2h0.1c0,0,0,0,0,0
			C16.5,21.1,16.5,21.1,16.5,21.2c0-0.1,0.1-0.1,0.1-0.1C16.5,21.2,16.5,21.1,16.5,21.2z M16.5,21L16.5,21
			C16.6,21,16.6,21.1,16.5,21C16.6,21,16.5,21,16.5,21z M16.7,21.2C16.7,21.1,16.7,21.1,16.7,21.2C16.7,21.2,16.7,21.2,16.7,21.2z
			 M16.7,21.1C16.7,21.1,16.7,21,16.7,21.1L16.7,21.1C16.7,21,16.7,21.1,16.7,21.1z M16.7,21.1C16.7,21.1,16.7,21,16.7,21.1
			C16.8,21.1,16.8,21.1,16.7,21.1z M17,21.6C17,21.5,17,21.5,17,21.6C17,21.5,17,21.5,17,21.6z M17,21.5C17,21.5,17,21.5,17,21.5
			C17,21.5,17,21.5,17,21.5c0-0.1,0-0.1,0.1-0.2C17.1,21.4,17.1,21.5,17,21.5z M17.1,21.4C17.2,21.4,17.2,21.4,17.1,21.4
			C17.2,21.4,17.2,21.4,17.1,21.4C17.2,21.4,17.1,21.5,17.1,21.4z M17.1,21.2C17.1,21.2,17.1,21.2,17.1,21.2c0,0,0.1-0.1,0.2,0
			C17.2,21.4,17.1,21.3,17.1,21.2z M17.2,21L17.2,21C17.2,21,17.2,21,17.2,21C17.2,21,17.2,21,17.2,21z M17.3,21.3
			C17.3,21.3,17.3,21.3,17.3,21.3C17.3,21.2,17.4,21.3,17.3,21.3z M17.6,21.6c-0.1-0.1-0.2-0.1-0.2-0.2c0,0.1,0-0.1,0-0.1
			c0,0,0,0,0,0c-0.1,0-0.1-0.1-0.1-0.1c0,0,0,0,0,0.1c0,0,0.1-0.2,0.2,0C17.6,21.4,17.6,21.5,17.6,21.6z M17.6,21.1
			C17.6,21.1,17.7,21.2,17.6,21.1C17.8,21.1,17.6,21.3,17.6,21.1z M17.8,21.6C17.7,21.6,17.7,21.6,17.8,21.6c-0.1-0.1-0.1-0.1,0-0.2
			C17.7,21.5,17.8,21.6,17.8,21.6C17.8,21.6,17.8,21.6,17.8,21.6z M17.9,21.3C17.9,21.3,17.8,21.2,17.9,21.3
			C17.9,21.2,17.9,21.3,17.9,21.3C17.9,21.3,17.9,21.3,17.9,21.3z M18.1,21.4c0,0-0.1-0.2-0.1-0.2c0,0,0,0,0,0
			c0-0.1,0.1-0.1,0.1-0.1c0,0.1,0,0.1,0,0.2c0,0,0,0,0,0C18,21.5,18.1,21.4,18.1,21.4C18.1,21.5,18.1,21.5,18.1,21.4z M18.1,21
			C18.1,21,18.1,21,18.1,21L18.1,21C18.1,21,18.1,21,18.1,21z M6,19V6h13v13H6z M18.2,21C18.2,21,18.2,21,18.2,21
			C18.2,21,18.2,21,18.2,21L18.2,21C18.2,21,18.2,21,18.2,21z M18.2,21.2C18.2,21.2,18.2,21.2,18.2,21.2
			C18.2,21.1,18.2,21.2,18.2,21.2z M18.5,21.6C18.4,21.6,18.5,21.5,18.5,21.6c-0.1-0.1,0,0.1-0.1,0c0,0-0.1-0.2-0.2-0.2
			c0,0,0.1-0.2,0.1-0.2c0,0,0,0,0,0c0.1,0.1-0.1,0.3,0,0.3c0-0.1,0.1-0.2,0.1-0.2C18.4,21.3,18.5,21.5,18.5,21.6
			C18.5,21.6,18.5,21.6,18.5,21.6z M18.6,21.5c0,0-0.1-0.2,0-0.1C18.6,21.5,18.6,21.5,18.6,21.5C18.6,21.5,18.6,21.5,18.6,21.5z
			 M18.6,21L18.6,21c0.1,0.1,0.1,0.2,0.1,0.2c-0.1,0-0.1-0.1,0-0.1C18.6,21.1,18.6,21,18.6,21z M18.7,21.5c-0.1,0-0.1,0.1-0.1,0.2
			C18.6,21.6,18.6,21.4,18.7,21.5C18.8,21.4,18.8,21.4,18.7,21.5z M18.8,21.2c0,0,0-0.1,0-0.2h0C18.9,21.1,18.9,21.2,18.8,21.2z
			 M18.9,21.4C18.9,21.4,18.9,21.4,18.9,21.4C18.9,21.4,18.9,21.3,18.9,21.4C19,21.4,18.9,21.4,18.9,21.4z M18.9,21
			C18.9,21,18.9,21,18.9,21L18.9,21C18.9,21,18.9,21,18.9,21z M19,21.3C19,21.3,19,21.4,19,21.3C19,21.4,19,21.4,19,21.3z
			 M19.1,21.1C19,21.1,19,21.1,19.1,21.1C18.9,21.1,19.1,21,19.1,21.1z M19.2,21.6c0,0,0-0.1,0-0.1C19.3,21.5,19.3,21.6,19.2,21.6z
			 M19.5,21.5C19.5,21.5,19.5,21.5,19.5,21.5C19.4,21.4,19.5,21.5,19.5,21.5C19.5,21.5,19.5,21.5,19.5,21.5c-0.1,0.1-0.2,0-0.2,0
			c0,0,0,0.1,0,0.1c0,0-0.1-0.1-0.1,0c0-0.1,0-0.1,0-0.2c0,0-0.1-0.1-0.1,0c0,0,0,0,0,0c0,0,0-0.1,0,0c0,0,0-0.1,0-0.1
			c0,0,0,0.1,0.1,0.1c0.1-0.1,0.1,0.1,0.2,0.1c0,0,0.1-0.1,0.1-0.1C19.4,21.4,19.4,21.4,19.5,21.5c-0.1-0.1-0.1-0.2,0-0.3
			c0,0-0.1,0-0.1,0C19.6,21,19.6,21.5,19.5,21.5z M20.1,3.7C20.1,3.7,20.1,3.7,20.1,3.7C20.1,3.7,20.1,3.7,20.1,3.7
			C20.1,3.7,20.1,3.7,20.1,3.7z M20.1,21C20.1,21,20.1,21.1,20.1,21C20.1,21.1,20.1,21.1,20.1,21C20.1,21,20,21,20.1,21L20.1,21
			C20,21,20,21,20.1,21L20.1,21z M19.9,3.7C19.9,3.7,19.9,3.7,19.9,3.7C19.9,3.7,19.9,3.7,19.9,3.7C19.9,3.7,19.9,3.7,19.9,3.7z
			 M19.8,3.6C19.8,3.6,19.8,3.7,19.8,3.6C19.8,3.7,19.8,3.7,19.8,3.6C19.8,3.6,19.8,3.6,19.8,3.6z M19.8,3.7L19.8,3.7
			C19.8,3.7,19.8,3.7,19.8,3.7C19.8,3.7,19.8,3.7,19.8,3.7z M19.6,21.6c0,0,0,0,0-0.1c0,0,0,0,0.1,0C19.7,21.5,19.7,21.5,19.6,21.6z
			 M19.6,3.8C19.6,3.8,19.6,3.7,19.6,3.8C19.8,3.8,19.6,3.8,19.6,3.8z M19.8,21C19.7,21,19.7,21.1,19.8,21
			C19.7,21.1,19.7,21,19.8,21L19.8,21C19.8,21,19.8,21,19.8,21z M19.7,3.7c0,0-0.1-0.1,0-0.2C19.6,3.6,19.7,3.6,19.7,3.7
			C19.8,3.6,19.7,3.7,19.7,3.7z M19.8,21.3C19.8,21.3,19.9,21.2,19.8,21.3C19.8,21.3,19.8,21.3,19.8,21.3z M19.9,21.2
			c-0.2,0,0,0-0.1-0.1c0.1,0,0.1,0,0.1-0.1c0,0,0,0,0,0h0c0,0,0,0,0,0C19.9,21.1,19.9,21.1,19.9,21.2C19.9,21.2,19.9,21.2,19.9,21.2
			z M20,21.6C20,21.6,19.9,21.6,20,21.6C20,21.6,20,21.6,20,21.6C20,21.6,20,21.6,20,21.6z M19.9,3.8c0,0,0.1,0,0.1,0
			C20,3.8,19.9,3.9,19.9,3.8z M20,21.8C20,21.7,20,21.7,20,21.8C20.1,21.7,20.1,21.8,20,21.8C20,21.8,20,21.8,20,21.8z M20.1,21.7
			C20,21.7,20,21.7,20.1,21.7C20,21.7,20,21.7,20.1,21.7C20.1,21.7,20.1,21.7,20.1,21.7z M20,21.5C20,21.5,20,21.5,20,21.5
			C20.1,21.6,20.1,21.6,20,21.5C20,21.6,20,21.6,20,21.5z M20,21.2C20,21.2,20,21.2,20,21.2C20.1,21.2,20.1,21.2,20,21.2
			C20.1,21.3,20,21.2,20,21.2z M20.3,3.8C20.3,3.8,20.3,3.8,20.3,3.8C20.3,3.9,20.3,3.9,20.3,3.8C20.3,3.8,20.3,3.8,20.3,3.8z
			 M20.3,21.5c0,0-0.1-0.1,0-0.1C20.2,21.4,20.3,21.5,20.3,21.5C20.3,21.5,20.3,21.5,20.3,21.5z M20.3,21.3
			C20.3,21.2,20.3,21.2,20.3,21.3c0-0.1,0-0.1,0-0.1C20.2,21.2,20.3,21.2,20.3,21.3c0-0.1,0.2-0.2,0.1-0.1
			C20.3,21.2,20.4,21.3,20.3,21.3z M20.4,3.9C20.4,3.9,20.4,3.9,20.4,3.9C20.4,3.9,20.3,3.9,20.4,3.9z M20.5,21.3
			C20.5,21.3,20.5,21.2,20.5,21.3C20.5,21.3,20.5,21.3,20.5,21.3z M20.6,4c-0.1,0-0.1-0.1-0.1-0.2c0,0,0.1,0.1,0.1,0
			C20.6,3.8,20.6,4,20.6,4z M20.9,21C20.9,21,20.9,21,20.9,21C20.8,21,20.8,21,20.9,21L20.9,21z M20.7,21.3
			C20.7,21.3,20.7,21.3,20.7,21.3C20.7,21.3,20.7,21.3,20.7,21.3z M20.8,21.2C20.8,21.2,20.8,21.2,20.8,21.2
			C20.8,21.3,20.7,21.2,20.8,21.2c0,0-0.1-0.1,0-0.2h0c0,0.1,0.2,0.1,0.2,0.2C20.9,21.1,20.8,21.1,20.8,21.2z M20.9,21.7
			C20.9,21.7,20.9,21.6,20.9,21.7C21,21.7,20.9,21.6,20.9,21.7z M21,21.5c0-0.1-0.1-0.1-0.1-0.2c0,0,0.1,0.1,0.1,0
			C21,21.3,21,21.5,21,21.5z M21.2,20.3C21.2,20.3,21.2,20.3,21.2,20.3L21.2,20.3C21.2,20.3,21.2,20.3,21.2,20.3
			C21.2,20.3,21.2,20.3,21.2,20.3C21.2,20.3,21.2,20.3,21.2,20.3C21.2,20.3,21.2,20.3,21.2,20.3C21.2,20.3,21.2,20.3,21.2,20.3
			C21.2,20.3,21.2,20.3,21.2,20.3C21.2,20.3,21.2,20.3,21.2,20.3z M21.1,20.1C21.1,20.1,21.1,20.1,21.1,20.1
			C21.2,20.1,21.2,20.1,21.1,20.1C21.1,20.1,21.1,20.1,21.1,20.1z M21.2,19.8C21.2,19.8,21.2,19.7,21.2,19.8
			C21.2,19.8,21.2,19.8,21.2,19.8z M21.2,19.5C21.2,19.5,21.1,19.5,21.2,19.5C21.3,19.4,21.2,19.4,21.2,19.5z M21.1,17.9
			C21.1,17.9,21.1,17.9,21.1,17.9C21.2,17.9,21.2,17.9,21.1,17.9C21.2,17.9,21.2,17.9,21.1,17.9z M21.3,18.3
			C21.3,18.3,21.3,18.3,21.3,18.3C21.3,18.3,21.3,18.3,21.3,18.3C21.3,18.4,21.3,18.4,21.3,18.3c0.1,0,0.1,0,0.2,0
			C21.4,18.4,21.3,18.4,21.3,18.3C21.2,18.4,21.2,18.3,21.3,18.3C21.2,18.3,21.2,18.3,21.3,18.3C21.2,18.2,21.2,18.2,21.3,18.3z
			 M21.4,17.9C21.3,18,21.4,17.9,21.4,17.9C21.3,17.9,21.4,17.9,21.4,17.9z M21.2,17.8C21.2,17.8,21.3,17.8,21.2,17.8
			C21.3,17.8,21.3,17.8,21.2,17.8z M21.3,17.8C21.3,17.8,21.3,17.8,21.3,17.8C21.2,17.7,21.3,17.8,21.3,17.8
			C21.3,17.8,21.3,17.8,21.3,17.8z M21.2,17.5C21.2,17.5,21.2,17.5,21.2,17.5C21.2,17.5,21.1,17.5,21.2,17.5z M21.1,17.8
			C21.1,17.8,21.1,17.8,21.1,17.8C21.2,17.8,21.2,17.9,21.1,17.8z M21.1,17.6C21.1,17.6,21.1,17.6,21.1,17.6
			C21.1,17.6,21.1,17.5,21.1,17.6z M21.1,16.2c0,0,0.1,0.1,0,0.1C21.1,16.3,21.1,16.2,21.1,16.2z M21.2,16.2c0-0.1,0-0.1,0-0.1
			C21.2,16.2,21.2,16.2,21.2,16.2C21.2,16.2,21.2,16.2,21.2,16.2z M21.4,16.4c-0.1,0-0.1,0.1-0.2,0.1c0,0,0.1,0,0.1,0.1
			c0,0-0.1,0-0.1,0C21.3,16.4,21.2,16.3,21.4,16.4z M21,15.6c0.1,0,0.1,0,0.1,0c0,0,0,0,0,0C21.1,15.6,21,15.7,21,15.6
			c0.1,0.1,0.1,0.2,0.2,0.2C21.1,15.8,21.1,15.7,21,15.6L21,15.6z M21.1,15.7C21.1,15.8,21.1,15.8,21.1,15.7
			C21,15.8,21.1,15.7,21.1,15.7z M21,15.9c0.1,0,0.1-0.1,0.2-0.1c0,0,0,0,0,0c0,0,0,0,0,0c0,0,0,0-0.1,0c0,0,0,0,0,0
			c0,0.1-0.1,0.1,0,0.2C21.2,16.1,21.1,16.1,21,15.9L21,15.9z M21,17.7C21,17.7,21,17.7,21,17.7C21,17.7,21,17.7,21,17.7
			C21,17.7,21,17.7,21,17.7C21,17.7,21,17.7,21,17.7L21,17.7z M21,18C21,18,21,18,21,18C21,18.1,21,18.1,21,18C21,18,21,18,21,18
			L21,18z M21,18.2C21,18.2,21,18.2,21,18.2C21,18.2,21,18.2,21,18.2L21,18.2z M21,18.5C21,18.5,21,18.5,21,18.5
			C21.1,18.5,21,18.5,21,18.5L21,18.5z M21,18.6C21,18.6,21,18.6,21,18.6C21,18.6,21,18.6,21,18.6L21,18.6z M21,18.8
			c0.1,0,0.2,0.1,0.1,0.1c0,0,0.1,0,0,0C21.1,18.9,21,18.9,21,18.8L21,18.8z M21.1,19.1C21.1,19.1,21.1,19.1,21.1,19.1
			C21.1,19.1,21.1,19.1,21.1,19.1C21.1,19.1,21.1,19.1,21.1,19.1z M21,19.6C21,19.6,21.1,19.5,21,19.6c0.1-0.1,0.1,0,0.1,0
			C21.1,19.6,21,19.6,21,19.6L21,19.6z M21.1,20.5C21.1,20.5,21.1,20.5,21.1,20.5C21.1,20.5,21.1,20.5,21.1,20.5z M21,20.7L21,20.7
			c0-0.1,0.1-0.1,0.2-0.1c0,0-0.1,0.1,0,0.1C21.1,20.8,21.1,20.8,21,20.7c0.1,0,0.1,0,0.1,0C21.1,20.7,21,20.7,21,20.7z M21.2,21.3
			c0-0.1,0-0.2-0.1-0.2c0,0,0.1-0.1,0.1-0.1c0,0,0.1,0.2,0.1,0.2c0.1,0,0.1-0.1,0-0.2C21.5,21,21.4,21.4,21.2,21.3z M21.4,21.3
			C21.4,21.3,21.4,21.3,21.4,21.3C21.4,21.3,21.4,21.3,21.4,21.3C21.4,21.3,21.4,21.3,21.4,21.3z M21.4,19.9
			C21.4,19.9,21.3,19.9,21.4,19.9c-0.1,0-0.1,0-0.1,0C21.3,20,21.3,20,21.4,19.9z M21.2,20.3C21.2,20.3,21.2,20.3,21.2,20.3
			C21.2,20.3,21.2,20.3,21.2,20.3C21.2,20.3,21.2,20.3,21.2,20.3z M21.2,20.3L21.2,20.3C21.2,20.3,21.2,20.3,21.2,20.3
			C21.2,20.3,21.2,20.3,21.2,20.3C21.2,20.3,21.2,20.3,21.2,20.3C21.2,20.3,21.2,20.3,21.2,20.3z"/>
	</g>
</g>
</svg>
