<?xml version="1.0" encoding="utf-8"?>
<!-- Generator: Adobe Illustrator 22.0.1, SVG Export Plug-In . SVG Version: 6.00 Build 0)  -->
<svg version="1.1" id="Layer_1" xmlns="http://www.w3.org/2000/svg" xmlns:xlink="http://www.w3.org/1999/xlink" x="0px" y="0px"
	 viewBox="0 0 25 25" style="enable-background:new 0 0 25 25;" xml:space="preserve">
<g>
	<g>
		<path d="M21.7,8.4h-0.3v6c0,1.4-1.1,2.5-2.5,2.5H7V17c0,1,0.8,1.8,1.8,1.8h9l3.8,2.3c0.1,0.1,0.3,0,0.2-0.2l-0.3-2.1h0.2
			c1,0,1.8-0.8,1.8-1.8v-6.8C23.5,9.2,22.7,8.4,21.7,8.4z M18.1,15.7c1.1,0,2.1-0.9,2.1-2.1V5.9c0-1.1-0.9-2.1-2.1-2.1H3.5
			c-1.1,0-2.1,0.9-2.1,2.1v7.7c0,1.1,0.9,2.1,2.1,2.1h0.3l-0.4,2.4c0,0.1,0.1,0.2,0.2,0.2l4.3-2.6H18.1z M16.2,8.1
			c0.7,0,1.3,0.6,1.3,1.3s-0.6,1.3-1.3,1.3s-1.3-0.6-1.3-1.3S15.4,8.1,16.2,8.1z M10.9,8.1c0.7,0,1.3,0.6,1.3,1.3s-0.6,1.3-1.3,1.3
			c-0.7,0-1.3-0.6-1.3-1.3S10.2,8.1,10.9,8.1z M5.6,10.8c-0.7,0-1.3-0.6-1.3-1.3s0.6-1.3,1.3-1.3S7,8.7,7,9.4S6.4,10.8,5.6,10.8z"/>
	</g>
</g>
</svg>
