<svg width="25" height="25" viewBox="0 0 25 25" fill="currentColor" xmlns="http://www.w3.org/2000/svg"><path d="M1 12.0654C1.06359 12.023 1.12719 11.9806 1.16959 11.9382C1.76313 11.3447 2.35668 10.7512 2.97143 10.1152C2.97143 11.4295 2.97143 12.7226 2.97143 14.0369C2.92903 13.9945 2.88664 13.9733 2.86544 13.9521C2.29309 13.3797 1.72074 12.8074 1.14839 12.235C1.10599 12.1926 1.0424 12.1502 1 12.1078C1 12.0866 1 12.0866 1 12.0654Z"/><path d="M12.9346 6.10876C14.906 8.08018 16.835 10.0304 18.8065 11.9806C18.8065 10.2636 18.8065 8.58894 18.8065 6.89309C18.87 6.95668 18.9124 6.97788 18.9548 7.02028C19.6756 7.74101 20.3963 8.46175 21.1171 9.18249C21.1806 9.24608 21.223 9.37327 21.223 9.45807C21.223 11.2175 21.223 12.977 21.223 14.7364C21.223 14.8212 21.2018 14.9272 21.1594 14.9696C20.6931 15.4571 20.2055 15.9447 19.718 16.4111C19.6968 16.4323 19.6756 16.4323 19.6332 16.4535C18.2129 15.0332 16.7926 13.5917 15.33 12.129C15.33 12.2562 15.33 12.3198 15.33 12.3834C15.33 15.118 15.33 17.8313 15.33 20.5659C15.33 20.7143 15.2876 20.8203 15.1816 20.9263C14.482 21.6258 13.7825 22.3253 13.0829 23.0249C13.0406 23.0673 12.9982 23.1097 12.9346 23.1733C12.9346 17.4922 12.9346 11.8323 12.9346 6.10876Z" /><path d="M9.71244 11.9382C9.71244 11.8747 9.71244 11.7899 9.71244 11.7263C9.71244 9.0129 9.71244 6.32074 9.71244 3.60737C9.71244 3.45899 9.75484 3.353 9.86083 3.247C10.5604 2.56866 11.2387 1.86912 11.9382 1.16959C11.9806 1.12719 12.023 1.08479 12.1078 1.0212C12.1078 6.68111 12.1078 12.3198 12.1078 18.0221C10.1364 16.0507 8.18618 14.1005 6.21475 12.129C6.21475 13.8673 6.21475 15.5631 6.21475 17.2802C6.15115 17.2166 6.10876 17.1954 6.06636 17.153C5.34562 16.4323 4.62488 15.7327 3.92535 15.012C3.86175 14.9484 3.81935 14.8212 3.81935 14.7364C3.81935 12.977 3.81935 11.2175 3.81935 9.45807C3.81935 9.35207 3.86175 9.22488 3.94654 9.16129C4.4129 8.67373 4.90046 8.18618 5.38802 7.69862C6.80829 9.14009 8.22857 10.5604 9.64885 11.9806C9.67005 11.9806 9.69124 11.9594 9.71244 11.9382Z"/><path d="M7.04147 14.1217C7.12627 14.1853 7.16866 14.2276 7.21106 14.27C8.80092 15.8599 10.3908 17.4498 11.9594 19.0184C12.0654 19.1244 12.1078 19.2304 12.1078 19.3788C12.1078 20.5659 12.1078 21.753 12.1078 22.9401C12.1078 23.0037 12.1078 23.0673 12.1078 23.1733C12.023 23.1097 11.9806 23.0673 11.9382 23.0249C10.3484 21.435 8.73733 19.8452 7.14747 18.2341C7.08387 18.1705 7.02028 18.0645 7.02028 17.9797C7.02028 16.729 7.02028 15.4783 7.02028 14.2488C7.04147 14.2276 7.04147 14.1853 7.04147 14.1217Z"/><path d="M12.9346 1C13.0194 1.08479 13.0618 1.12719 13.1253 1.16959C14.7152 2.75945 16.3051 4.34931 17.8949 5.93917C17.9797 6.02396 18.0221 6.12995 18.0221 6.25714C18.0221 7.44424 18.0221 8.63134 18.0221 9.81843C18.0221 9.88203 18.0221 9.94562 18.0221 10.0304C17.9373 9.96682 17.8949 9.92442 17.8525 9.88203C16.2627 8.29217 14.6728 6.7023 13.0829 5.11244C12.977 5.00645 12.9346 4.92166 12.9346 4.77327C12.9346 3.58617 12.9346 2.42028 12.9346 1.23318C12.9346 1.16959 12.9346 1.12719 12.9346 1Z" /><path d="M16.1567 14.1641C17.1318 15.1392 18.0857 16.0931 19.0396 17.0258C18.0857 17.9797 17.1318 18.9336 16.1567 19.9088C16.1567 18.0009 16.1567 16.0931 16.1567 14.1641Z"/><path d="M8.88571 9.98802C7.9318 9.0341 6.97788 8.08018 6.04516 7.14747C6.99908 6.21475 7.953 5.26083 8.88571 4.30691C8.88571 6.17235 8.88571 8.08018 8.88571 9.98802Z"/><path d="M24 12.0866C23.3641 12.7226 22.7281 13.3585 22.071 14.0157C22.071 12.7438 22.071 11.4507 22.071 10.1576C22.0922 10.1364 22.0922 10.1364 22.1134 10.1152C22.7493 10.7724 23.3641 11.4507 24 12.0866Z"/></svg>