<?xml version="1.0" encoding="utf-8"?>
<!-- Generator: Adobe Illustrator 22.0.1, SVG Export Plug-In . SVG Version: 6.00 Build 0)  -->
<svg version="1.1" id="Layer_1" xmlns="http://www.w3.org/2000/svg" xmlns:xlink="http://www.w3.org/1999/xlink" x="0px" y="0px"
	 viewBox="0 0 25 25" style="enable-background:new 0 0 25 25;" xml:space="preserve">
<g>
	<g>
		<path d="M1.2,14.7h6.4v-4.3H1.2V14.7z M9.3,8.6h6.4V4.3H9.3V8.6z M9.3,20.7h6.4v-4.3H9.3V20.7z M17.4,14.7h6.4v-4.3h-6.4V14.7z
			 M1.2,8.1v0.6h6.4V4.3L5,4.3C2.9,4.3,1.2,6,1.2,8.1z M20,4.3l-2.6,0v4.3h6.4V8.1C23.8,6,22.1,4.3,20,4.3z M1.2,16.9
			c0,2.1,1.7,3.8,3.8,3.8l2.6,0v-4.3H1.2V16.9z M17.4,20.7l2.6,0c2.1,0,3.8-1.7,3.8-3.8v-0.6h-6.4V20.7z"/>
	</g>
</g>
</svg>
