<svg width="21" height="25" viewBox="0 0 21 25" fill="currentColor" xmlns="http://www.w3.org/2000/svg"><path d="M20.2501 4.5002C20.2501 4.3002 20.1501 4.0502 19.9501 3.9502C19.7501 3.7502 19.5001 3.5002 19.2001 3.3002C17.4501 2.1502 15.5501 1.3002 13.5001 0.950197C8.90011 0.200197 4.75011 0.950197 1.10011 3.9502C0.900106 4.0502 0.750106 4.3002 0.750106 4.5002C0.650106 6.4502 0.650106 8.3502 0.550106 10.3002C0.450106 13.5002 1.40011 16.3502 3.45011 18.8502C5.25011 21.1002 7.60011 22.9002 10.2001 24.3002C10.3001 24.4002 10.6501 24.4002 10.8501 24.3002C11.8001 23.6502 12.8001 23.1002 13.7501 22.5002C15.4501 21.3002 16.9501 19.8502 18.1501 18.2002C19.3501 16.6002 20.2001 14.9002 20.3001 12.8502C20.4001 11.4502 20.5001 10.0502 20.5001 8.8002C20.3501 7.3002 20.3501 5.9002 20.2501 4.5002ZM16.5001 14.5502C16.2001 15.1002 15.6501 15.6002 15.2001 16.1502C15.1001 16.2502 14.9001 16.3502 14.7501 16.3502C13.9001 16.1502 13.1501 15.9002 12.4001 15.7002L12.3001 15.6002C12.9501 14.8502 13.7001 14.3002 14.2501 13.5502C16.0501 11.3002 15.4501 8.5002 13.5001 7.0002C11.5501 5.3002 8.60011 5.5002 6.85011 7.5502C5.45011 9.1502 5.25011 11.1002 6.00011 13.1002C6.55011 14.6002 7.70011 15.5502 9.00011 16.3002C10.4001 17.1502 12.0001 17.5002 13.6001 17.8002C14.2501 17.9002 14.8001 18.0002 15.5501 18.1002C15.2501 18.4002 15.0001 18.7502 14.7001 18.9502C13.5001 20.1002 13.5001 20.1002 12.0001 19.8002C10.2001 19.3502 8.45011 18.7502 6.85011 17.5502C4.40011 15.8502 3.10011 13.5002 3.20011 10.5002C3.30011 7.5002 4.80011 5.3502 7.60011 4.2002C10.6001 2.9002 13.9001 3.7502 15.8501 6.1502C18.0001 8.5502 18.3001 11.7502 16.5001 14.5502Z" fill="currentColor"/></svg>