<svg xmlns="http://www.w3.org/2000/svg" width="25" height="25" fill="currentColor" viewBox="0 0 25 25">
  <path d="M17.7 12.6S16 9.85 12.65 9.85c-3.3 0-5.15 2.75-5.15 2.75s1.6 2.75 5.05 2.75C16 15.3 17.7 12.6 17.7 12.6zm-4.6-7.9c-8.45.55-7.4 7.4-7.4 7.4 1.75-2.8 4.65-3.85 8.05-3.85 3.45 0 6.85 2.4 6.85 7 0 2.3-1.5 3.9-3.15 4.95-2.15 1.35-4.7 1.85-7.2 1.5-6.8-.95-8.55-5-8.55-5 0 3.55 3.85 7.65 11.3 7.65 4.7 0 11.05-3.5 11-9.05 0-4.45-2.4-11.2-10.9-10.6zm-1.25 15.95c8.45-.55 7.45-7.45 7.45-7.45-1.75 2.8-4.65 3.85-8.05 3.85-3.4 0-6.85-2.4-6.85-7 0-2.3 1.5-3.9 3.15-4.95 2.15-1.35 4.7-1.85 7.2-1.5 6.8.95 8.55 5 8.55 5C23.3 5.1 19.6 1 12 1 7.3 1 .95 4.5 1 10.05c0 4.45 2.4 11.2 10.85 10.6z"/>
</svg>
