<?xml version="1.0" encoding="utf-8"?>
<!-- Generator: Adobe Illustrator 22.1.0, SVG Export Plug-In . SVG Version: 6.00 Build 0)  -->
<svg version="1.0" id="Layer_1" xmlns="http://www.w3.org/2000/svg" xmlns:xlink="http://www.w3.org/1999/xlink" x="0px" y="0px"
	 viewBox="0 0 25 25" style="enable-background:new 0 0 25 25;" xml:space="preserve">
<g>
	<path d="M9.9,19.4L9.9,19.4c-0.1,0-0.1,0-0.1,0c-0.4,0-0.7-0.1-1-0.2c-1-0.4-1.8-1.1-2.2-2.1c0,0,0-0.1-0.1,0
		c-0.7,0.1-1.5,0-2.2-0.4c-0.9-0.5-1.5-1.3-1.7-2.3c0-0.2,0-0.3-0.1-0.5c0-0.1,0-0.2,0-0.3s0-0.2,0-0.3c0.1-1.1,0.7-1.9,1.6-2.5l0,0
		v0C3.9,9.8,3.9,8.7,4.5,7.6s1.5-1.7,2.7-2c0.1,0,0.3,0,0.5,0c0.1,0,0.3,0,0.4,0c0.1,0,0.2,0,0.3,0c1,0.1,1.8,0.6,2.5,1.4l0,0
		c0.8-0.8,1.8-1.2,2.9-1.1c1.1,0.1,2,0.8,2.6,1.8c0,0,0,0,0,0c0.8-0.3,1.6-0.4,2.4-0.3c2.1,0.4,3.7,2.4,3.4,4.7
		c-0.1,1-0.5,1.8-1.1,2.5c-1.1,1.1-2.3,1.5-3.8,1.2c0,0-0.1,0-0.1,0c-0.7,1.2-2.2,1.8-3.5,1.4c-0.2,0-0.4-0.1-0.5-0.2c0,0,0,0,0,0.1
		c-0.6,1.1-1.5,1.8-2.7,2C10.2,19.4,10.1,19.4,9.9,19.4z"/>
</g>
</svg>
