<svg data-name="Layer 1" xmlns="http://www.w3.org/2000/svg" viewBox="0 0 25 25"><path d="M18.67 19.52a1.69 1.69 0 0 0 1.63-1.16v-2a1.67 1.67 0 0 0-1.62-1.16A1.7 1.7 0 0 0 17 16.34v2a1.72 1.72 0 0 0 1.67 1.18Z"/><path d="M22 1H3a2 2 0 0 0-2 2v19a2 2 0 0 0 2 2h19a2 2 0 0 0 2-2V3a2 2 0 0 0-2-2Zm-6.27 3.22h1.75v4.41a1 1 0 0 0 1.15 1.13A1.28 1.28 0 0 0 20 8.35V4.22h1.77v6.85H20.2v-.73a2.22 2.22 0 0 1-2 .93c-1.63 0-2.44-.84-2.44-2.17ZM4 8.86a5.2 5.2 0 0 0 1.24.81 2.86 2.86 0 0 0 1.12.21 1.29 1.29 0 0 0 1.14-.42v-.6a1.07 1.07 0 0 0-.6-.36l-.78-.17-.24-.06C4.51 8 3.82 7.65 3.53 7.07V5.35A2.77 2.77 0 0 1 6.22 4a4.16 4.16 0 0 1 3 1.08l-.97 1.13a3 3 0 0 0-2.07-.81 1.27 1.27 0 0 0-1.09.41v.52a1 1 0 0 0 .52.29h.18c.2 0 .48.12.83.19 1.41.32 2.17.66 2.49 1.3v1.78a2.81 2.81 0 0 1-2.77 1.38A4.56 4.56 0 0 1 3 10Zm9.37 12h-1.74v-4.28c0-.82-.33-1.32-1.1-1.32a1.21 1.21 0 0 0-1.21 1.36v4.22H7.56v-4.26c0-.87-.36-1.32-1.09-1.32a1.2 1.2 0 0 0-1.21 1.36v4.22H3.5V14h1.63v.75a2.15 2.15 0 0 1 2-1 2.09 2.09 0 0 1 1.92 1 2.38 2.38 0 0 1 2.07-1 2.1 2.1 0 0 1 2.3 2.29Zm8.61-2a3.39 3.39 0 0 1-3.3 2.14 3.42 3.42 0 0 1-3.35-2.21v-2.88a3.43 3.43 0 0 1 3.35-2.21A3.42 3.42 0 0 1 22 15.9Z" style="fill-rule:evenodd"/></svg>