<svg id="Layer_1" data-name="Layer 1" xmlns="http://www.w3.org/2000/svg" viewBox="0 0 25 25"><path d="M21.22,6.66l-.31.1-1.68.15-.47.75-.34-.11-1.33-1.2-.2-.62-.26-.67-.83-.75-1-.19,0,.45,1,.94.48.56-.53.28-.44-.13L14.61,6l0-.52-.86-.35L13.5,6.31l-.86.19.09.69,1.12.21L14,6.31l.92.13.43.25h.69l.47.95L17.8,8.91l-.09.49-1-.13L15,10.15l-1.25,1.5-.17.67h-.45l-.83-.39-.82.39.2.86.36-.41.62,0,0,.77.51.15.52.58.84-.24,1,.16,1.12.3.56.06L18,15.6l1.83,1.08-1.18,2.25-1.25.58L17,20.8,15.16,22l-.2.7a10.48,10.48,0,0,0,6.26-16Z"/><path d="M13.71,18l-.77-1.42.7-1.46-.7-.21-.79-.79-1.74-.4L9.83,12.5v.72H9.57l-1.5-2V9.51L7,7.71,5.21,8H4l-.59-.38L4.2,7l-.76.18A10.49,10.49,0,0,0,12.5,23a11.55,11.55,0,0,0,1.32-.09l-.11-1.27s.48-1.89.48-2S13.71,18,13.71,18Z"/><path d="M5.9,5.39l1.87-.26.86-.48,1,.28,1.55-.08L11.67,4l.77.12L14.32,4l.51-.57.73-.49,1,.16L17,3A10.46,10.46,0,0,0,4.4,5.82h0Zm7-2.35L14,2.45l.68.4-1,.76-1,.1-.43-.28Zm-3.17.09.47.2.62-.2.34.59-1.43.37-.69-.4S9.75,3.26,9.77,3.13Z"/></svg>