<?xml version="1.0" encoding="utf-8"?> <!-- Generator: Adobe Illustrator 24.1.2, SVG Export Plug-In . SVG Version: 6.00 Build 0)  --> <svg version="1.1" id="Layer_1" xmlns="http://www.w3.org/2000/svg" xmlns:xlink="http://www.w3.org/1999/xlink" x="0px" y="0px" viewBox="0 0 25 25" style="enable-background:new 0 0 25 25;" xml:space="preserve"> <g> <g> <path d="M17.5,6c0-0.1-0.1-0.1-0.2-0.3c-0.5,0.9-0.9,1.8-1.4,2.7c-2.3,4.5-4.6,9-6.9,13.5c0,0,0,0.1,0,0.1h10.7 c0.7-0.2,1.3-0.5,1.7-1.1c0.2-0.4,0.4-0.8,0.6-1.3v-5c-0.8-1.6-1.6-3.2-2.5-4.7C18.9,8.6,18.2,7.3,17.5,6z M5.3,3 C4.2,3.3,3.3,4,3.1,5.1C3,5.3,3,5.4,3,5.5C3,7,3,8.6,3,10.1c0,0.1,0,0.2,0.1,0.3c1.5,2.9,3,5.9,4.5,8.9C10.4,13.9,13.2,8.4,16,3 H5.3z M20.9,3.5c-0.3-0.2-0.8-0.4-1.1-0.5h-1c0.2,0.4,0.4,0.8,0.6,1.1c0.9,1.7,1.8,3.5,2.7,5.2v-4C21.8,4.6,21.5,4,20.9,3.5z M3,19.7c0,0.7,0.4,1.3,1,1.7c0.4,0.3,0.8,0.4,1.2,0.6h1c-1.1-2.1-2.1-4.1-3.2-6.2C3,17.1,3,18.4,3,19.7z"/> </g></g></svg>