<svg width="25" height="25" viewBox="0 0 25 25" fill="currentColor" xmlns="http://www.w3.org/2000/svg">
<path d="M11.9502 11.6572C12.0203 11.6338 12.0905 11.6104 12.1607 11.6104C13.6348 11.1892 15.0621 10.6277 16.4893 10.0193C17.8932 9.43438 19.2737 8.73245 20.4669 7.74975C21.707 6.74364 22.7131 5.43337 23.2747 3.79552C23.3449 3.56155 23.5086 3.23398 23.532 3C21.59 5.64395 13.8922 5.92472 13.8922 5.92472L15.6938 4.26348C8.41709 4.26348 3.33978 7.37538 1 9.01323C3.97152 9.34079 6.68566 10.6043 8.79145 12.4995C9.84435 12.1953 10.8973 11.9613 11.9502 11.6572Z" />
<path d="M24 11.3998C24 11.3998 16.9105 10.8616 9.54018 13.2248C10.5229 14.2543 11.3418 15.4242 11.9736 16.6877C15.8576 14.5351 21.2157 11.7976 24 11.3998Z" />
<path d="M12.4649 17.8108C12.9095 18.9573 13.2136 20.1974 13.3306 21.4842L20.0926 14.5351L12.4649 17.8108Z" />
</svg>