<svg width="25" height="25" viewBox="0 0 25 25" fill="currentColor" xmlns="http://www.w3.org/2000/svg">
<path d="M23.7857 11.3506L18.6818 2.57143C18.3961 2.19481 18.0065 2 17.526 2H7.46104C6.98052 2 6.6039 2.19481 6.3052 2.57143L1.21429 11.3506C0.928571 11.8312 0.928571 12.3117 1.21429 12.7922L6.31818 21.5584C6.6039 21.9481 6.99351 22.1299 7.47403 22.1299H17.539C18.0195 22.1299 18.3961 21.9351 18.6948 21.5584L23.7857 12.7792C24.0714 12.2987 24.0714 11.8312 23.7857 11.3506ZM16.6688 14.5844C16.6688 14.7273 16.5909 14.8052 16.4481 14.8052H8.82468C8.68182 14.8052 8.6039 14.7273 8.6039 14.5844V13C8.6039 12.8571 8.68182 12.7792 8.82468 12.7792H16.4481C16.5909 12.7792 16.6688 12.8571 16.6688 13V14.5844ZM16.6688 11.4156C16.6688 11.5584 16.5909 11.6364 16.4481 11.6364H8.82468C8.68182 11.6364 8.6039 11.5584 8.6039 11.4156V9.83117C8.6039 9.68831 8.68182 9.61039 8.82468 9.61039H16.4481C16.5909 9.61039 16.6688 9.68831 16.6688 9.83117V11.4156Z" />
</svg>