<?xml version="1.0" encoding="utf-8"?>
<!-- Generator: Adobe Illustrator 24.2.3, SVG Export Plug-In . SVG Version: 6.00 Build 0)  -->
<svg version="1.1" id="Layer_1" xmlns="http://www.w3.org/2000/svg" xmlns:xlink="http://www.w3.org/1999/xlink" x="0px" y="0px"
	 viewBox="0 0 18 23" style="enable-background:new 0 0 18 23;" xml:space="preserve">
<g>
	<g>
		<path d="M2.64479 9.05515C2.64479 8.06503 2.64479 7.0749 2.64479 6.0714C2.64479 5.7369 2.77513 5.5362 3.07491 5.4024C4.83452 4.61297 6.60715 3.83693 8.36675 3.03413C8.6144 2.92709 8.82295 2.92709 9.07059 3.03413C10.8172 3.82355 12.5637 4.59959 14.3103 5.37564C14.6492 5.52282 14.7795 5.75028 14.7795 6.12492C14.7665 7.98475 14.7926 9.8312 14.7665 11.691C14.7535 13.591 14.2582 15.3572 13.2285 16.9494C12.2118 18.5282 10.7781 19.5317 9.00542 20.0268C8.80991 20.0803 8.6144 20.0803 8.41889 20.0268C6.98514 19.6254 5.75994 18.8895 4.76935 17.7254C3.9873 16.8156 3.4529 15.7586 3.11402 14.6079C2.8012 13.5642 2.63176 12.4938 2.65782 11.3967C2.64479 10.6206 2.64479 9.84457 2.64479 9.05515Z"/>
		<path d="M0.00043395 8.29071C0.00043395 6.8014 0.00043395 5.32685 0.00043395 3.83754C0.00043395 3.42466 0.130549 3.23297 0.520896 3.08552C3.13766 2.08281 5.76889 1.08011 8.38566 0.0774144C8.64589 -0.0258048 8.86275 -0.0258048 9.12298 0.0774144C11.7253 1.08011 14.3276 2.06807 16.9444 3.07077C17.407 3.24772 17.5082 3.40992 17.5082 3.91127C17.5082 6.75717 17.5516 9.58832 17.4937 12.4342C17.4504 15.0589 16.713 17.4772 15.1083 19.5563C13.8939 21.1341 12.3036 22.1663 10.4097 22.6824C9.88921 22.8299 9.36875 22.9183 8.84829 22.9921C8.60252 23.0216 8.32783 22.9626 8.08205 22.9183C6.60741 22.6529 5.24843 22.1221 4.03401 21.2078C2.66057 20.1609 1.67748 18.8043 1.01244 17.2118C0.332951 15.575 -0.0140233 13.8645 0.00043395 12.0803C0.0148912 10.8122 0.00043395 9.55883 0.00043395 8.29071ZM1.27267 8.55613C1.27267 9.72103 1.28713 10.8712 1.27267 12.0361C1.25822 13.3484 1.47508 14.6313 1.87988 15.8847C2.28468 17.1086 2.86298 18.2145 3.71595 19.173C4.87254 20.4706 6.33272 21.2521 8.00977 21.5912C8.31337 21.6502 8.63143 21.6945 8.93503 21.6797C9.20972 21.665 9.49887 21.5912 9.77355 21.5175C11.5373 21.0899 13.0264 20.2051 14.1397 18.7453C15.542 16.9169 16.1926 14.7788 16.236 12.4932C16.2938 9.78001 16.2504 7.05208 16.2504 4.33889C16.2504 4.22093 16.2215 4.16194 16.1058 4.11771C13.7059 3.20348 11.306 2.28925 8.90612 1.37503C8.81937 1.34554 8.68926 1.34554 8.60252 1.37503C6.20261 2.28925 3.81716 3.20348 1.41725 4.11771C1.30159 4.16194 1.25822 4.22093 1.25822 4.35364C1.27267 5.75447 1.27267 7.1553 1.27267 8.55613Z"/>
	</g>
</g>
</svg>
