<svg width="25" height="25" viewBox="0 0 25 25" fill="currentColor" xmlns="http://www.w3.org/2000/svg">
<path d="M19.8871 14.4672C20.2188 14.2373 20.4738 13.9817 20.6523 13.6497C20.8055 13.3431 20.8819 12.9088 20.8819 12.5256C20.8819 12.1168 20.8055 11.7336 20.627 11.3759C20.5025 11.1267 20.3288 10.9148 20.1308 10.7313C20.0447 10.6515 19.9542 10.5771 19.8613 10.5073C19.7295 10.4161 19.5898 10.345 19.4439 10.2924C19.3242 10.2493 19.2007 10.2186 19.0732 10.1995C18.9642 10.1832 18.8523 10.1752 18.7385 10.1752C18.3304 10.1752 17.9475 10.2774 17.6162 10.5073C17.2844 10.7373 17.029 10.9927 16.8505 11.3248C16.672 11.7081 16.5951 12.0657 16.5951 12.4745C16.5951 12.6828 16.6151 12.8912 16.6584 13.0927C16.7002 13.2867 16.7629 13.4743 16.8505 13.6497C17.029 14.0073 17.2844 14.2884 17.6415 14.4672C17.9733 14.6971 18.3561 14.7992 18.7643 14.7992C19.1724 14.7992 19.5295 14.6971 19.8871 14.4672Z" />
<path fill-rule="evenodd" clip-rule="evenodd" d="M12.5126 23C18.3051 23 23 18.2992 23 12.4999C23 6.70078 18.2798 2 12.4874 2C6.69494 2 2 6.67524 2 12.4999C2 18.3248 6.72072 23 12.5126 23ZM9.1954 10.4821C9.57825 10.2778 9.93532 10.1756 10.344 10.1756C10.7521 10.1756 11.135 10.3544 11.5173 10.6099C11.8238 10.8398 12.1045 11.1975 12.283 11.6063H14.4775C14.3243 10.8398 13.865 10.099 13.0993 9.46024C12.7423 9.12817 12.283 8.84706 11.8238 8.71935C11.3646 8.59163 10.8032 8.48945 10.2671 8.48945C9.55296 8.48945 8.81255 8.66826 8.17478 9.02599C7.48594 9.3836 6.97563 9.8946 6.61807 10.4821C6.261 11.0697 6.08247 11.7085 6.08247 12.3983C6.08247 12.6049 6.09804 12.8052 6.12625 13.0004C6.15738 13.216 6.2036 13.4253 6.26052 13.6295C6.29895 13.7661 6.34224 13.9006 6.38846 14.0333C6.59278 14.5442 6.92455 15.0041 7.3327 15.4128C7.74085 15.7705 8.22586 16.1026 8.73617 16.2814C8.86217 16.3346 8.99351 16.3809 9.12875 16.4202C9.28345 16.4651 9.44399 16.501 9.6089 16.5279C9.85457 16.568 10.1095 16.588 10.3693 16.588C11.007 16.588 11.6453 16.5114 12.1809 16.2303C12.7676 15.9493 13.2273 15.5916 13.6354 15.1318C13.8315 14.8984 13.9983 14.6591 14.1384 14.4025C14.2897 14.1256 14.4099 13.8285 14.5028 13.4968H12.3083C12.0787 13.9567 11.798 14.2632 11.492 14.4931C11.1092 14.6974 10.7521 14.7997 10.344 14.7997C9.93532 14.7997 9.50188 14.723 9.1954 14.4931C8.88941 14.2632 8.60871 13.9822 8.43018 13.6245C8.25116 13.2669 8.14949 12.858 8.14949 12.4493C8.14949 12.0405 8.25116 11.6574 8.43018 11.2996C8.60871 10.9931 8.88941 10.7121 9.1954 10.4821ZM20.8566 9.05117C21.4691 9.40878 22.0047 9.86857 22.3622 10.5073C22.7193 11.0949 22.9236 11.7847 22.9236 12.5511C22.9236 13.3176 22.7446 14.0073 22.3875 14.646C22.0558 15.2847 21.5455 15.7957 20.933 16.1533C20.3205 16.5109 19.6064 16.6898 18.8917 16.6898C18.1265 16.6898 17.463 16.5109 16.7994 16.1788C16.403 15.9804 16.0522 15.7363 15.7472 15.4465C15.6314 15.3365 15.522 15.22 15.4193 15.097C15.3395 15.0016 15.2636 14.9024 15.1921 14.7992C14.7582 14.1096 14.5797 13.4453 14.5797 12.7044C14.5797 11.938 14.7582 11.1971 15.1153 10.5584C15.4728 9.91978 15.9574 9.40878 16.6209 9.05117C17.2587 8.69343 17.9733 8.51463 18.7643 8.51463C19.5295 8.51463 20.2441 8.69343 20.8566 9.05117Z" />
</svg>