<?xml version="1.0" encoding="UTF-8"?><svg id="a" xmlns="http://www.w3.org/2000/svg" viewBox="0 0 25 25"><path d="M10.06,15.56h0c-.34-.06-.68,0-.98,.17l-4.86,2.8c-.69,.41-.92,1.27-.52,1.95,.09,.16,.21,.3,.36,.42,.15,.11,.32,.2,.5,.25,.18,.05,.37,.06,.56,.04,.19-.02,.37-.08,.53-.18l2.76-1.59v3.17c-.01,.25,.05,.49,.17,.71,.12,.22,.3,.4,.52,.52s.47,.19,.73,.19c.26,0,.51-.07,.73-.19,.22-.13,.4-.31,.52-.52,.12-.22,.18-.46,.17-.71v-5.62c0-.33-.11-.66-.33-.91-.22-.26-.53-.43-.87-.49Zm-1.54-2.32c.12-.22,.19-.47,.19-.71s-.07-.5-.19-.71c-.12-.22-.31-.4-.52-.54l-4.86-2.8c-.16-.09-.34-.15-.53-.18s-.38-.01-.56,.04c-.18,.05-.35,.13-.5,.25s-.27,.26-.36,.42c-.39,.68-.16,1.54,.52,1.95l2.75,1.59-2.75,1.59c-.69,.41-.92,1.27-.52,1.95,.09,.16,.21,.3,.36,.42,.15,.11,.32,.2,.5,.25,.18,.05,.37,.06,.56,.04,.19-.02,.37-.08,.53-.18l4.86-2.8c.22-.13,.4-.32,.52-.54ZM4.23,6.5l4.86,2.8c.55,.32,1.26,.23,1.71-.22,.15-.14,.26-.3,.34-.48,.08-.18,.12-.37,.12-.57V2.43c.01-.25-.05-.49-.17-.71-.12-.22-.3-.4-.52-.52-.22-.13-.47-.19-.73-.19-.26,0-.51,.07-.73,.19-.22,.13-.4,.31-.52,.52-.12,.22-.18,.46-.17,.71v3.19l-2.76-1.59c-.16-.09-.34-.15-.53-.18-.19-.02-.38-.01-.56,.04-.18,.05-.35,.13-.5,.25-.15,.11-.27,.26-.36,.42-.39,.68-.17,1.54,.52,1.95Zm10.09,2.69c.15,.11,.32,.2,.5,.25,.18,.05,.37,.06,.56,.04,.19-.02,.37-.09,.53-.18l4.86-2.8c.69-.41,.92-1.27,.52-1.95-.09-.16-.21-.3-.36-.42-.15-.11-.32-.2-.5-.25-.18-.05-.37-.06-.56-.04-.19,.02-.37,.08-.53,.18l-2.72,1.57V2.42c.01-.25-.05-.49-.17-.71s-.3-.4-.52-.52c-.22-.13-.47-.19-.73-.19s-.51,.07-.73,.19c-.22,.13-.4,.31-.52,.52-.12,.22-.18,.46-.17,.71V7.92c-.03,.29,.03,.59,.19,.85,.09,.16,.21,.3,.36,.42Zm8.97,4.91l-2.75-1.59,2.75-1.59c.69-.41,.92-1.27,.52-1.95-.09-.16-.21-.3-.36-.42-.15-.11-.32-.2-.5-.25-.18-.05-.37-.06-.56-.04-.19,.02-.37,.08-.53,.18l-4.86,2.8c-.22,.13-.41,.32-.53,.54-.13,.22-.19,.47-.18,.72,0,.25,.06,.5,.18,.72,.13,.22,.31,.4,.53,.53l4.86,2.8c.16,.09,.34,.15,.53,.18,.19,.02,.38,.01,.56-.04,.18-.05,.35-.13,.5-.25,.15-.11,.27-.26,.36-.42,.4-.68,.17-1.54-.52-1.95Zm-7-1.58h0Zm4.49,6h0l-4.86-2.8c-.16-.09-.34-.15-.53-.18-.19-.02-.38-.01-.56,.04-.18,.05-.35,.13-.5,.25-.15,.11-.27,.26-.36,.42-.15,.26-.21,.56-.18,.85v5.48c-.01,.25,.05,.49,.17,.71,.12,.22,.3,.4,.52,.52,.22,.13,.47,.19,.73,.19s.51-.07,.73-.19c.22-.13,.4-.31,.52-.52,.12-.22,.18-.46,.17-.71v-3.15l2.72,1.57c.16,.09,.34,.15,.53,.18,.19,.02,.38,.01,.56-.04,.18-.05,.35-.13,.5-.25,.15-.11,.27-.26,.36-.42,.39-.68,.16-1.54-.52-1.95Zm-5.61-5.78v-.49c0-.12-.05-.24-.14-.33l-1.93-1.92c-.09-.08-.21-.13-.33-.14h-.49c-.13,0-.24,.06-.33,.14l-1.93,1.92c-.08,.09-.13,.21-.14,.33v.49c0,.12,.06,.24,.14,.33l1.93,1.92c.09,.08,.21,.13,.33,.14h.49c.13,0,.24-.06,.33-.14l1.93-1.92c.08-.09,.13-.21,.14-.33Zm-1.72-.23c0,.09-.04,.18-.1,.25l-.57,.57c-.07,.06-.15,.1-.24,.1h-.02c-.09,0-.18-.04-.25-.1l-.57-.57c-.06-.07-.1-.16-.1-.25v-.02c0-.09,.04-.18,.1-.24l.57-.57c.07-.06,.15-.09,.25-.1h.02c.09,0,.18,.04,.25,.1l.57,.57c.06,.07,.1,.15,.1,.24v.02Z"/></svg>