<?xml version="1.0" encoding="utf-8"?><!-- Generator: Adobe Illustrator 24.1.2, SVG Export Plug-In . SVG Version: 6.00 Build 0)  --><svg version="1.1" id="Layer_1" xmlns="http://www.w3.org/2000/svg" xmlns:xlink="http://www.w3.org/1999/xlink" x="0px" y="0px" viewBox="0 0 25 25" style="enable-background:new 0 0 25 25;" xml:space="preserve"><path d="M3.8,8.8c-0.3-0.6-1-0.9-1.6-0.6c-0.7,0.3-0.9,1-0.6,1.6l2.7,5.8c0.4,0.9,0.9,1.4,1.7,1.4c0.9,0,1.3-0.5,1.7-1.4 c0,0,2.3-5.1,2.4-5.1c0,0,0.1-0.2,0.3-0.2c0.2,0,0.3,0.2,0.3,0.4v4.9c0,0.7,0.4,1.4,1.2,1.4c0.8,0,1.3-0.6,1.3-1.4v-4.1 c0-0.8,0.6-1.3,1.3-1.3c0.7,0,1.3,0.5,1.3,1.3v4.1c0,0.7,0.4,1.4,1.2,1.4c0.8,0,1.3-0.6,1.3-1.4v-4.1c0-0.8,0.6-1.3,1.3-1.3 s1.3,0.5,1.3,1.3v4.1c0,0.7,0.4,1.4,1.2,1.4c0.8,0,1.3-0.6,1.3-1.4V11c0-1.7-1.4-2.9-3-2.9s-2.7,1.1-2.7,1.1 c-0.6-0.7-1.3-1.1-2.6-1.1c-1.4,0-2.5,1.1-2.5,1.1c-0.5-0.7-1.5-1.1-2.2-1.1c-1.2,0-2.1,0.5-2.7,1.8l-1.7,4L3.8,8.8"/></svg>