<svg id="Layer_1" data-name="Layer 1" xmlns="http://www.w3.org/2000/svg" viewBox="0 0 25 25"><path d="M9.45,9a4.24,4.24,0,0,1,4.1-1.66,4.59,4.59,0,0,1,1.18.34v.05a4.56,4.56,0,0,1,.82.49h0a3.93,3.93,0,0,1,.92,1.07A4,4,0,0,1,17,11.9a4.21,4.21,0,0,1-4.82,3.34,4.11,4.11,0,0,1-3.49-4.61c0-.15.06-.25.06-.34A1.84,1.84,0,0,1,9,9.74v0A4.39,4.39,0,0,1,9.45,9ZM22.21,13a1.75,1.75,0,0,0-1.54.79l-2.3-1a4.88,4.88,0,0,0,.2-2.26,5.93,5.93,0,0,0-1-2.35,6.46,6.46,0,0,0-.88-.93l2.42-2.11a1.81,1.81,0,0,0,1,.29A1.77,1.77,0,0,0,22,3.72a1.82,1.82,0,0,0-3.63,0,1.8,1.8,0,0,0,.2.73L15.91,6.66a3.42,3.42,0,0,0-.62-.35A4.43,4.43,0,0,0,14,5.92a5.12,5.12,0,0,0-1.74-.1,5.84,5.84,0,0,0-2.56.94,4.91,4.91,0,0,0-1.18,1c-.05,0-.1.1-.1.15l-.31.44L4.58,6.85a.58.58,0,0,0,.06-.29A1.78,1.78,0,0,0,2.85,4.84,1.83,1.83,0,0,0,1,6.56,1.79,1.79,0,0,0,2.85,8.27a1.69,1.69,0,0,0,1.33-.58L7.61,9.15v0a3.9,3.9,0,0,0-.36,1,5.43,5.43,0,0,0,0,1.56v0a4.3,4.3,0,0,0,.36,1.43l.05.14a4,4,0,0,0,.46.84L3.92,18.37a2.41,2.41,0,0,0-.87-.19,1.78,1.78,0,0,0-1.8,1.72,1.83,1.83,0,0,0,3.65,0A2,2,0,0,0,4.64,19l4-4a5.69,5.69,0,0,0,2.46,1.52,6,6,0,0,0,1.08.2l0,2.06A1.73,1.73,0,0,0,11,20.43a1.71,1.71,0,0,0,1.79,1.72,1.71,1.71,0,0,0,1.79-1.72,1.73,1.73,0,0,0-1.38-1.66v-2a7.41,7.41,0,0,0,1.13-.19l.56-.14,4.51,6.07a1.12,1.12,0,0,0,.51.4s.05,0,.05,0a2.43,2.43,0,0,1,.26.05,1.25,1.25,0,0,0,.92-.19l.11-.1a1.3,1.3,0,0,0,.56-.78,1.06,1.06,0,0,0,0-.47,1.13,1.13,0,0,0-.22-.42l-4.4-6,.35-.49a4.65,4.65,0,0,0,.52-.83l.31.15s2,.88,2,.92a1.8,1.8,0,0,0,1.85,1.73,1.72,1.72,0,1,0,0-3.44Z"/><path d="M13.5,12.35l.36-2.41V8.72H12.22V9.89l.25,2.46Z"/><path d="M13.71,13.47a.73.73,0,0,0-.72-.73.77.77,0,0,0-.77.73.7.7,0,0,0,.77.69A.66.66,0,0,0,13.71,13.47Z"/></svg>