<svg width="25" height="25" viewBox="0 0 25 25" fill="currentColornone" xmlns="http://www.w3.org/2000/svg">
<path d="M4.11776 12.6931C4.026 15.1735 5.92246 18.297 9.1342 19.43C12.4377 20.5937 16.0165 19.4606 18.0353 16.674L16.9647 15.7859C15.5577 17.5008 13.4471 18.7257 11.2448 18.5113C8.73656 18.2664 6.96245 16.9496 5.95305 14.6223C5.67775 14.0098 5.46364 13.3668 5.40246 12.6624H4.11776V12.6931Z" />
<path d="M17.5153 9.78392C17.9436 9.60019 18.3412 9.38583 18.7389 9.20209C17.5153 6.32358 13.9671 4.48623 11.3671 4.88432V6.10922C14.1812 6.0786 16.1695 7.36474 17.5153 9.78392Z" />
<path d="M21.1859 9.53894C19.9012 9.53894 18.8306 10.3964 18.4942 11.56C17.3624 11.5294 15.5577 11.56 14.4565 11.56C14.1201 10.3964 13.0495 9.53894 11.7648 9.53894C10.2048 9.53894 8.95068 10.7945 8.95068 12.3562C8.95068 13.918 10.2048 15.1735 11.7648 15.1735C12.8659 15.1735 13.8448 14.5304 14.3036 13.5811H14.3342C15.5883 13.5505 17.3624 13.5505 18.6471 13.5811C18.953 14.2242 19.473 14.7141 20.1153 14.9897C19.7483 16.0003 19.0753 17.2558 18.3412 18.0826C16.2 20.4712 13.5695 21.543 10.3577 21.0836C8.03304 20.7468 6.16716 19.5525 4.72953 17.6845C3.32247 15.8472 2.77189 13.7648 3.07777 11.4375C3.32247 9.56956 4.08718 7.94657 5.34129 6.59918C6.8401 4.97619 8.70597 4.02689 10.9695 3.84315C11.0918 3.84315 11.3365 3.84315 11.3365 3.84315V2.0058C10.5107 1.97518 9.68479 2.06705 8.92009 2.25078C6.65657 2.83261 4.7907 4.08813 3.32247 5.92549C1.48719 8.2528 0.72249 10.917 1.08955 13.8261C1.42602 16.429 2.61895 18.6032 4.63776 20.2874C7.29892 22.5535 10.3577 23.4722 13.753 22.7679C17.8518 21.9104 20.8188 18.9707 22.1647 14.9591C23.2353 14.561 24 13.5505 24 12.3256C24 10.7945 22.7459 9.53894 21.1859 9.53894Z" />
</svg>