<svg id="Layer_1" data-name="Layer 1" xmlns="http://www.w3.org/2000/svg" viewBox="0 0 25 25"><path d="M21.59,9.64a7.23,7.23,0,0,0,.18-1.32A7.8,7.8,0,0,0,21.59,7V2.26l-.52.1c-1.67.18-3.37.32-5,.41A8.52,8.52,0,0,0,9,2.77c-1.71-.09-3.37-.23-5-.41l-.53,0V7a4.79,4.79,0,0,0-.17,1.36A4.45,4.45,0,0,0,3.4,9.67a3.33,3.33,0,0,0-1.4,3A13.1,13.1,0,0,0,4,19.1a8.24,8.24,0,0,1,.92-2,9.33,9.33,0,0,0,3,3.09.41.41,0,0,0-.22.07.46.46,0,0,0-.17.17.46.46,0,0,0-.17-.17.44.44,0,0,0-.22-.07H7.05a.5.5,0,0,0-.34.16.51.51,0,0,0-.14.36v1.72a.55.55,0,0,0,.14.37.46.46,0,0,0,.34.16h.18a.46.46,0,0,0,.22-.06.55.55,0,0,0,.17-.17.44.44,0,0,0,.16.17A.46.46,0,0,0,8,23h.13a.46.46,0,0,0,.22-.06.55.55,0,0,0,.17-.17.44.44,0,0,0,.16.17.46.46,0,0,0,.22.06H9a.49.49,0,0,0,.34-.15.54.54,0,0,0,.14-.36V21a8.5,8.5,0,0,0,6.08,0v1.46a.57.57,0,0,0,.14.38A.5.5,0,0,0,16,23h.14a.43.43,0,0,0,.22-.06.46.46,0,0,0,.17-.17.52.52,0,0,0,.16.17.46.46,0,0,0,.23.06h.13a.43.43,0,0,0,.22-.06.46.46,0,0,0,.17-.17.52.52,0,0,0,.16.17.46.46,0,0,0,.23.06H18a.46.46,0,0,0,.34-.16.55.55,0,0,0,.14-.37V20.7a.57.57,0,0,0-.14-.38.52.52,0,0,0-.34-.18h-.13a.4.4,0,0,0-.22.06.46.46,0,0,0-.17.17.46.46,0,0,0-.17-.17.43.43,0,0,0-.22-.06,9.43,9.43,0,0,0,3-3.1A8.24,8.24,0,0,1,21,19c.21.7,2.09-3.19,2-6.47a3.49,3.49,0,0,0-.34-1.66A3,3,0,0,0,21.59,9.64Zm-9.09,5-1.8-1.92a5.35,5.35,0,0,0,1.8-2.21,5.06,5.06,0,0,0,1.79,2.21ZM8.08,12.59a3.79,3.79,0,0,1-2.19-.71A4.29,4.29,0,0,1,4.44,10a4.6,4.6,0,0,1-.22-2.44A4.23,4.23,0,0,1,5.3,5.38a3.92,3.92,0,0,1,2-1.16,3.69,3.69,0,0,1,2.27.24A4,4,0,0,1,11.35,6a4.41,4.41,0,0,1-.49,5.32,3.86,3.86,0,0,1-2.78,1.24Zm8.83,0a3.73,3.73,0,0,1-2.18-.71A4.15,4.15,0,0,1,13.28,10a4.51,4.51,0,0,1-.23-2.44,4.31,4.31,0,0,1,1.08-2.16,3.92,3.92,0,0,1,2-1.16,3.72,3.72,0,0,1,2.28.24A4,4,0,0,1,20.18,6a4.37,4.37,0,0,1,.67,2.34,4.41,4.41,0,0,1-1.16,3,3.84,3.84,0,0,1-2.77,1.24Zm0-6a1.66,1.66,0,0,1,.93.3,1.87,1.87,0,0,1,.61.8,1.91,1.91,0,0,1,.09,1,1.75,1.75,0,0,1-.45.91,1.63,1.63,0,0,1-.85.49,1.51,1.51,0,0,1-1-.1,1.6,1.6,0,0,1-.75-.66,1.87,1.87,0,0,1-.28-1,1.79,1.79,0,0,1,.13-.68,1.66,1.66,0,0,1,.36-.58,1.59,1.59,0,0,1,.54-.39,1.56,1.56,0,0,1,.64-.13Zm-8.83,0a1.6,1.6,0,0,1,.92.3,1.81,1.81,0,0,1,.62.8,2,2,0,0,1,.09,1,1.75,1.75,0,0,1-.45.91,1.67,1.67,0,0,1-.85.49,1.5,1.5,0,0,1-1-.1,1.6,1.6,0,0,1-.75-.66,1.87,1.87,0,0,1-.28-1,1.79,1.79,0,0,1,.13-.68,1.66,1.66,0,0,1,.36-.58,1.5,1.5,0,0,1,.54-.39,1.51,1.51,0,0,1,.63-.13Z" fill-rule="evenodd"/></svg>