<svg viewBox="0 0 25 25" fill="currentColor" xmlns="http://www.w3.org/2000/svg">
<path fill-rule="evenodd" clip-rule="evenodd" d="M2 12.5C2 18.3085 6.71885 23 12.5112 23C18.3035 23 23 18.3085 23 12.4777V4.61383C23 3.18404 21.8371 2 20.3834 2H12.5112C6.69649 2 2 6.71383 2 12.5ZM12.7571 17.6383C12.6677 17.7723 12.4888 17.7947 12.3546 17.7053C12.2428 17.616 12.198 17.4819 12.2651 17.3702L13.4951 13.6617H8.50793C8.19483 13.6617 8.01591 13.3043 8.19483 13.0585L8.95521 11.9862L12.2651 7.38405C12.3546 7.25 12.5335 7.22766 12.6677 7.31702C12.7795 7.40639 12.8242 7.54043 12.7795 7.65213L11.5495 11.3606H16.5143C16.8274 11.3606 17.0063 11.7181 16.8274 11.9638L16.067 13.0362L12.7571 17.6383Z"/>
</svg>