<svg width="23" height="23" viewBox="0 0 23 23" fill="none" xmlns="http://www.w3.org/2000/svg"><path d="M9.89039 13.0708H0V22.9612H9.89039V13.0708Z" fill="#currentColor"/><path d="M4.96459 9.92917C7.70645 9.92917 9.92917 7.70645 9.92917 4.96459C9.92917 2.22272 7.70645 0 4.96459 0C2.22272 0 0 2.22272 0 4.96459C0 7.70645 2.22272 9.92917 4.96459 9.92917Z" fill="#currentColor"/><path d="M18.0354 9.92917C20.7773 9.92917 23 7.70645 23 4.96459C23 2.22272 20.7773 0 18.0354 0C15.2935 0 13.0708 2.22272 13.0708 4.96459C13.0708 7.70645 15.2935 9.92917 18.0354 9.92917Z" fill="#currentColor"/><path d="M18.0354 22.9612C20.7773 22.9612 23 20.7385 23 17.9966C23 15.2548 20.7773 13.032 18.0354 13.032C15.2935 13.032 13.0708 15.2548 13.0708 17.9966C13.0708 20.7385 15.2935 22.9612 18.0354 22.9612Z" fill="#currentColor"/></svg>