<svg xmlns="http://www.w3.org/2000/svg" id="Layer_1" data-name="Layer 1" viewBox="0 0 25 25" fill="currentColor"><path d="M24,22.49A1.53,1.53,0,0,1,22.47,24H13.53l-1.35-3.83h6.39l-1.1-3.38.52-.53c.68.74,1.56,1.63,2.7,2.69l.74-.74c-1.22-1.11-2.12-2-2.77-2.69a8.16,8.16,0,0,0,2-3.55h1.95v-.9H18.23V9.61H16.82v1.46H15.6l-1.82-5.6,8.69.15A1.52,1.52,0,0,1,24,7.12Z"/><path d="M15.9,12l.33,1h.62s0,.44,1.13,1.77A7.93,7.93,0,0,0,19.56,12Z"/><path d="M16.87,15l.24.72.2-.19C17.15,15.3,17,15.13,16.87,15Z"/><path d="M1,2.53A1.54,1.54,0,0,1,2.53,1h8.94l6,18.66H2.53A1.54,1.54,0,0,1,1,18.13Z"/><path d="M7.59,12.9a2,2,0,0,0,2.1-1.73H7.6V9.94H11a3.1,3.1,0,0,1,.09.73,3.32,3.32,0,0,1-3.46,3.52A3.6,3.6,0,0,1,7.59,7,3.46,3.46,0,0,1,10,7.94l-.95.91a2.09,2.09,0,0,0-1.46-.56,2.31,2.31,0,0,0,0,4.61Z" style="fill: rgb(79, 80, 100)"/></svg>