<svg width="25" height="25" viewBox="0 0 25 25" fill="currentColor" xmlns="http://www.w3.org/2000/svg">
<path d="M24 10.5129C24 12.0497 23.2446 13.925 21.7079 15.4618C21.3172 15.8525 20.9264 16.2172 20.5618 16.6079C20.2753 16.9465 20.0148 16.9986 19.7022 16.6339C19.3897 16.2693 19.025 15.9567 18.6864 15.6181C17.6706 14.5762 17.6706 13.5083 18.6083 12.4143C20.0669 10.7473 19.9888 8.61144 18.3999 7.23094C16.9412 5.95463 14.8054 6.05882 13.4249 7.46536C12.0965 8.84586 12.0704 10.9557 13.4249 12.3622C15.6128 14.6023 17.8268 16.7902 20.0408 19.0042C20.9264 19.8898 21.786 20.8015 22.6976 21.635C23.1404 22.0517 23.0363 22.2861 22.5935 22.5987C20.6399 23.849 18.8687 23.8229 17.1236 22.208C14.8054 19.994 12.5393 17.6498 10.2471 15.2795C7.82476 12.779 7.4601 8.81981 9.2834 5.79835C11.1067 2.80294 14.7793 1.3443 18.1134 2.282C21.6558 3.24574 24 6.31929 24 10.5129Z" />
<path d="M1.44323 8.58539C1.67765 8.79376 1.83394 8.924 1.99022 9.08028C6.1838 13.2739 10.3774 17.4674 14.597 21.661C15.0138 22.0778 14.9877 22.3122 14.5189 22.6248C12.5653 23.9011 10.742 23.849 8.99688 22.208C6.99126 20.3066 5.03773 18.327 3.13629 16.3214C1.15671 14.2376 0.609723 11.711 1.2609 8.89795C1.28695 8.81981 1.33904 8.76772 1.44323 8.58539Z" />
</svg>