<svg width="25" height="26" viewBox="0 0 25 26" fill="currentColor" xmlns="http://www.w3.org/2000/svg">
<path d="M7.64689 22.2345L7.73297 24.5L8.33554 22.5523C13.6582 24.7625 19.8417 22.4003 22.1372 17.2754C24.2032 12.6754 22.4529 7.30189 18.0197 4.66347L18.1058 7.1085C18.7657 7.32952 19.1244 8.02021 18.8948 8.66945C18.6653 9.30488 17.948 9.65023 17.2737 9.42921C17.0011 9.34632 16.7715 9.16675 16.6137 8.93191L13.4574 10.6863C13.9165 11.667 13.6152 12.8136 12.7257 13.4628L14.4617 16.0598C15.1503 15.9631 15.8103 16.419 15.9107 17.082C16.0111 17.7451 15.5377 18.3805 14.849 18.4772C14.2465 18.5601 13.6726 18.2286 13.4574 17.6898L8.30685 18.643C8.24946 19.0298 7.94818 19.3475 7.54647 19.4165L7.64689 22.2345Z" />
<path d="M12.496 3.15765C13.859 3.15765 15.1933 3.4063 16.4558 3.90359L17.1444 1.5L17.2736 4.74623L17.3596 7.08075C16.8288 7.21889 16.4414 7.67474 16.4271 8.21348L13.0412 10.0921C12.1517 9.15281 10.6453 9.08375 9.66971 9.9402C8.69413 10.7966 8.62239 12.2471 9.5119 13.1864C10.1575 13.8633 11.1618 14.1119 12.0513 13.808L13.7729 16.3774C13.5864 16.5432 13.4573 16.7504 13.3999 16.9714L8.09156 17.9522C7.76158 17.5516 7.15901 17.4963 6.7573 17.814C6.34124 18.1317 6.28385 18.7119 6.61383 19.0987C6.67122 19.154 6.7286 19.2092 6.78599 19.2645L6.88642 21.8062C1.97979 18.8224 0.530751 12.5786 3.62968 7.85432C5.55216 4.93962 8.89498 3.15765 12.496 3.15765Z" />
</svg>