<?xml version="1.0" encoding="utf-8"?>
<!-- Generator: Adobe Illustrator 24.2.1, SVG Export Plug-In . SVG Version: 6.00 Build 0)  -->
<svg version="1.1" id="Layer_1" xmlns="http://www.w3.org/2000/svg" xmlns:xlink="http://www.w3.org/1999/xlink" x="0px" y="0px"
	 viewBox="0 0 25 25" style="enable-background:new 0 0 25 25;" xml:space="preserve">
<g>
	<g>
		<path d="M6.7,5H4.4C4.1,5,4,5.1,4,5.4v14.3C4,19.9,4.1,20,4.4,20h2.4c0.2,0,0.4-0.1,0.4-0.4V5.4C7.1,5.1,7,5,6.7,5z M20.4,7.2
			c-0.4-0.7-1-1.3-1.7-1.6C18,5.2,17.1,5,16.1,5H10C9.8,5,9.7,5.1,9.7,5.4v14.3c0,0.2,0.1,0.4,0.4,0.4h2.4c0.2,0,0.4-0.1,0.4-0.4
			v-5.3c0-0.1,0-0.1,0.1-0.1H16c1,0,1.8-0.2,2.6-0.6c0.8-0.4,1.3-0.9,1.8-1.6c0.4-0.7,0.6-1.5,0.6-2.4C21,8.7,20.8,7.9,20.4,7.2z
			 M17.3,11.2c-0.4,0.4-1,0.6-1.6,0.6h-2.8c-0.1,0-0.1,0-0.1-0.1V7.7c0-0.1,0-0.1,0.1-0.1h2.8c0.7,0,1.2,0.2,1.6,0.6
			c0.4,0.4,0.6,0.9,0.6,1.5C17.9,10.3,17.7,10.8,17.3,11.2z"/>
	</g>
</g>
</svg>
