<?xml version="1.0" encoding="utf-8"?><svg version="1.1" id="Layer_1" xmlns="http://www.w3.org/2000/svg" xmlns:xlink="http://www.w3.org/1999/xlink" x="0px" y="0px" viewBox="0 0 50 50" style="enable-background:new 0 0 50 50;" xml:space="preserve"><g> <g> <path d="M25.15,17.71h0.27c1.46,0,2.64-1.18,2.64-2.64V4.51c0-1.46-1.18-2.64-2.64-2.64h-0.27c-1.46,0-2.64,1.18-2.64,2.64v10.56 C22.51,16.53,23.7,17.71,25.15,17.71z M14.78,7.33c-1.53,0-2.77,1.24-2.77,2.77v29.28c0,1.53,1.24,2.77,2.77,2.77 s2.77-1.24,2.77-2.77V10.11C17.55,8.57,16.31,7.33,14.78,7.33z M4.19,21.35c-1.88,0-3.4,1.52-3.4,3.4s1.52,3.4,3.4,3.4 s3.4-1.52,3.4-3.4S6.07,21.35,4.19,21.35z M25.36,21.35c-1.88,0-3.4,1.52-3.4,3.4s1.52,3.4,3.4,3.4c1.88,0,3.4-1.52,3.4-3.4 S27.24,21.35,25.36,21.35z M46.6,21.35c-1.88,0-3.4,1.52-3.4,3.4s1.52,3.4,3.4,3.4s3.4-1.52,3.4-3.4S48.48,21.35,46.6,21.35z M25.42,31.78h-0.27c-1.46,0-2.64,1.18-2.64,2.64v10.56c0,1.46,1.18,2.64,2.64,2.64h0.27c1.46,0,2.64-1.18,2.64-2.64V34.42 C28.06,32.96,26.88,31.78,25.42,31.78z M35.98,7.33c-1.53,0-2.77,1.24-2.77,2.77v29.28c0,1.53,1.24,2.77,2.77,2.77 s2.77-1.24,2.77-2.77V10.11C38.75,8.57,37.51,7.33,35.98,7.33z"/> </g></g></svg>