<?xml version="1.0" encoding="utf-8"?><!-- Generator: Adobe Illustrator 24.1.3, SVG Export Plug-In. SVG Version: 6.00 Build 0) --><svg version="1.1" id="Layer_1" xmlns="http://www.w3.org/2000/svg" xmlns:xlink="http://www.w3.org/1999/xlink" x="0px" y="0px" viewBox="0 0 25 25" style="enable-background:new 0 0 25 25;" xml:space="preserve"><path d="M21.8,19.4c-1.4-0.5-2.8-1.1-4.3-1.6c-0.9-0.4-1.8-0.7-2.6-1c0.2-1.3,0.4-2.6,0.4-3.8c0-1.3-0.3-2.5-0.4-3.8 c0.2-0.1,0.6-0.2,0.9-0.4c2-0.8,4-1.5,5.9-2.2c0.1,0,0.2-0.2,0.2-0.2c0-0.5,0-0.9,0-1.4c-2.6,1-5.2,2-7.8,3C13,5.3,11.1,3.3,8.6,2 C8.4,2,8.2,2,8.2,2C7.9,2.3,7.6,2.6,7.2,3c2.6,1.1,4.4,2.9,5.7,5.4c-0.5,0.2-0.9,0.3-1.3,0.5c-2.5,1-5,1.9-7.6,2.9 c-1,0.4-1,0.4-1,1.5c0,0.1,0,0.3,0,0.4c0.1,0.1,0.2,0.3,0.3,0.4c0.5,0.2,1,0.4,1.6,0.6c2.2,0.8,4.3,1.6,6.5,2.5 c0.5,0.2,1,0.4,1.6,0.6c-0.6,0.8-1,1.6-1.6,2.3c-1.1,1.4-2.5,2.4-4.2,3.1c0.4,0.3,0.6,0.6,0.9,0.9C8.1,24,8.3,24,8.4,24 c2.5-1.2,4.4-3.1,5.7-5.6c0-0.1,0.3-0.2,0.4-0.2c1.8,0.7,3.6,1.4,5.5,2.1c0.7,0.3,1.3,0.5,2,0.8c0-0.5,0-0.9,0-1.4 C22,19.6,21.9,19.5,21.8,19.4z M13.4,16.2c-2.8-1.1-5.6-2.1-8.3-3.2c0,0,0-0.1,0-0.1c2.8-1.1,5.5-2.1,8.3-3.2 C14.1,11.9,14.1,14,13.4,16.2z"/></svg>