<?xml version="1.0" encoding="utf-8"?><!-- Generator: Adobe Illustrator 24.1.3, SVG Export Plug-In. SVG Version: 6.00 Build 0) --><svg version="1.1" id="Layer_1" xmlns="http://www.w3.org/2000/svg" xmlns:xlink="http://www.w3.org/1999/xlink" x="0px" y="0px" viewBox="0 0 25 25" style="enable-background:new 0 0 25 25;" xml:space="preserve"><path fill-rule="evenodd" clip-rule="evenodd" d="M20.3 13.4v-2.8l-2.337-.292a6.256 6.256 0 00-.578-1.4L18.83 7.05l-1.98-1.98-1.857 1.445a6.253 6.253 0 00-1.4-.578L13.3 3.6h-2.8l-.292 2.337c-.488.135-.958.33-1.4.578L6.95 5.07 4.97 7.05l1.445 1.858a6.254 6.254 0 00-.578 1.4L3.5 10.6v2.8l2.337.292c.135.488.33.958.578 1.4L4.97 16.95l1.98 1.98 1.857-1.444c.442.249.912.443 1.4.578L10.5 20.4h2.8l.292-2.336c.488-.136.958-.33 1.4-.579l1.858 1.445 1.98-1.98-1.444-1.857c.249-.442.443-.912.578-1.4L20.3 13.4zM9.9 9.34c0-.225.284-.45.511-.281.039.025.266.163.599.364 1.137.687 3.5 2.115 3.72 2.332a.317.317 0 010 .562c-.163.08-2.172 1.302-3.416 2.058-.501.305-.878.534-.96.582-.17.112-.454 0-.454-.28V9.34z"/></svg>