<svg width="25" height="25" viewBox="0 0 25 25" fill="currentColor" xmlns="http://www.w3.org/2000/svg">
<path d="M12.3731 23.9851C11.1343 23.2687 9.85075 22.6119 8.64179 21.8358C7.20895 20.8955 5.89552 19.806 4.92537 18.3582C4.31343 17.4328 4 16.4179 4 15.2985C4.01493 11.6269 4 7.95522 4 4.28358C4 4.13433 4 4 4 3.83582C4.77612 3.79104 5.52239 3.76119 6.25373 3.70149C7.82089 3.55224 9.34328 3.25373 10.7313 2.49254C11.403 2.13433 11.9851 1.67164 12.4179 1C13.8507 2.85075 15.9104 3.31343 18.0298 3.62687C18.9701 3.76119 19.9104 3.79104 20.9104 3.86567C20.9104 4 20.9104 4.13433 20.9104 4.28358C20.9104 7.92537 20.8806 11.5522 20.9254 15.194C20.9403 16.7164 20.3881 17.9701 19.4328 19.0896C17.806 21 15.7313 22.3134 13.5373 23.4776C13.2239 23.6418 12.9104 23.8209 12.597 24C12.5224 23.9851 12.4478 23.9851 12.3731 23.9851ZM9.59701 12.1791C9.49254 12.1791 9.44776 12.194 9.40298 12.194C8.79104 12.209 8.73134 12.2687 8.73134 12.8657C8.73134 14.1493 8.73134 15.4328 8.73134 16.7015C8.73134 17.1493 8.85075 17.2836 9.28358 17.2836C11.403 17.2836 13.5224 17.2836 15.6418 17.2836C16.0597 17.2836 16.1791 17.1493 16.1791 16.7313C16.1791 15.4925 16.1791 14.2388 16.1791 13C16.1791 12.209 16.1791 12.209 15.403 12.1791C15.3881 12.1791 15.3582 12.1642 15.3134 12.1343C15.3134 11.5522 15.3284 10.9552 15.3134 10.3731C15.2836 9.23881 14.4925 8.1194 13.4328 7.73134C11.4925 7.02985 9.73134 8.52239 9.61194 10.3731C9.56716 10.9701 9.59701 11.5672 9.59701 12.1791Z" />
<path d="M10.9403 12.1791C10.9701 11.4627 10.9403 10.7612 11.0597 10.0896C11.194 9.31343 11.8657 8.89552 12.6119 8.97015C13.2985 9.02985 13.8806 9.62687 13.9104 10.3731C13.9403 10.9701 13.9104 11.5672 13.9104 12.194C12.9552 12.1791 11.9851 12.1791 10.9403 12.1791Z" />
</svg>